<svg xmlns="http://www.w3.org/2000/svg" viewBox="0 0 131.3 45.7"><defs><style>.cls-1{fill:#fff;}.cls-2{fill:#00b3be;}</style></defs><title>logo.svg</title><g id="Слой_2" data-name="Слой 2"><g id="Layer_1" data-name="Layer 1"><path class="cls-1" d="M49.1,19.4l1.1.8,1.5.8a9,9,0,0,0,3.9.9,4.4,4.4,0,0,0,3-.8,2.5,2.5,0,0,0,1-1.9,2.4,2.4,0,0,0-.7-1.8,9.2,9.2,0,0,0-2-1.3l-3.4-1.7a17.1,17.1,0,0,1-2.9-1.9,8.4,8.4,0,0,1-2-2.3A6,6,0,0,1,47.6,7a6.5,6.5,0,0,1,.6-2.8A6.1,6.1,0,0,1,50,2,8.5,8.5,0,0,1,52.7.6,11.4,11.4,0,0,1,56.2,0,14.6,14.6,0,0,1,63.3,2V6.6a16.3,16.3,0,0,0-3.8-2A10.4,10.4,0,0,0,56.2,4a5.1,5.1,0,0,0-2.8.7,2.1,2.1,0,0,0-1,1.8,2.3,2.3,0,0,0,.8,1.7,7.9,7.9,0,0,0,2.2,1.4l3,1.4a15.5,15.5,0,0,1,2.9,1.6,7.2,7.2,0,0,1,2.4,2.5,7.4,7.4,0,0,1,.8,3.6,6.9,6.9,0,0,1-.6,2.9A6.5,6.5,0,0,1,62,24a7.9,7.9,0,0,1-2.7,1.5,11.2,11.2,0,0,1-3.5.5A13.9,13.9,0,0,1,49,24.2ZM35.9,21a8.1,8.1,0,0,1-2.8-1.8,7.9,7.9,0,0,1-1.8-2.7,9.2,9.2,0,0,1-.6-3.5,9.2,9.2,0,0,1,.7-3.6,7.8,7.8,0,0,1,1.9-2.7,8.3,8.3,0,0,1,2.9-1.8,10.6,10.6,0,0,1,3.7-.6A14.3,14.3,0,0,1,44,5l.4.2a10.2,10.2,0,0,1,.8-2.6l.8-1.4L43.9.5A18.4,18.4,0,0,0,39.6,0a16,16,0,0,0-5.7,1,13.2,13.2,0,0,0-4.4,2.7,12.2,12.2,0,0,0-2.9,4.2,13.5,13.5,0,0,0-1,5.3,13.1,13.1,0,0,0,1,5,12.4,12.4,0,0,0,3,4.3A12.7,12.7,0,0,0,33.7,25a15,15,0,0,0,5.5.9,18.6,18.6,0,0,0,5-.6l1.7-.6V20.1a14.7,14.7,0,0,1-6.3,1.5A10.4,10.4,0,0,1,35.9,21ZM23,12.6H14.4v4h4.2v4.2l-2.2.6-2.3.2a10.3,10.3,0,0,1-3.7-.6,8.3,8.3,0,0,1-2.8-1.8,7.9,7.9,0,0,1-1.8-2.7A9.4,9.4,0,0,1,5.1,13a9.3,9.3,0,0,1,.6-3.5,8,8,0,0,1,4.6-4.5A10.1,10.1,0,0,1,14,4.3a17.9,17.9,0,0,1,7,1.5V5.6A18.6,18.6,0,0,1,23,2.2,29.1,29.1,0,0,0,18.3.5,18.4,18.4,0,0,0,13.9,0,15.6,15.6,0,0,0,8.3,1,13.3,13.3,0,0,0,3.9,3.7,12,12,0,0,0,1,7.8a13.3,13.3,0,0,0-1,5.2,13.3,13.3,0,0,0,1,5.2,12,12,0,0,0,2.9,4.1A12.6,12.6,0,0,0,8.1,25a15.1,15.1,0,0,0,5.4.9,19.7,19.7,0,0,0,5.2-.7A20.3,20.3,0,0,0,23,23.6Z"/><path class="cls-2" d="M127.6,3.6A13.2,13.2,0,0,0,118.2,0h0a17.5,17.5,0,0,0-10,3.3,53.8,53.8,0,0,0-7.5,6.5,69.1,69.1,0,0,0-7.1-6.3A16.2,16.2,0,0,0,84,0h0a14.3,14.3,0,0,0-9.8,3.8,12.6,12.6,0,0,0-4,9.2,12.9,12.9,0,0,0,3.7,9.4A13.2,13.2,0,0,0,83.3,26h0a17.5,17.5,0,0,0,10-3.3,57.8,57.8,0,0,0,7.5-6.5,78.1,78.1,0,0,0,7.1,6.3,15.9,15.9,0,0,0,9.5,3.5h.1a14.3,14.3,0,0,0,9.8-3.8,12.6,12.6,0,0,0,4-9.1A12.9,12.9,0,0,0,127.6,3.6Zm-10,17.7a12.6,12.6,0,0,1-7.6-2.9c-2.1-1.6-4.1-3.6-6-5.4a46.6,46.6,0,0,1,6-5.4,13.8,13.8,0,0,1,7.9-2.9A8.5,8.5,0,0,1,124,7a8.4,8.4,0,0,1-.1,11.8,8.7,8.7,0,0,1-6.2,2.5ZM83.8,4.7a12.6,12.6,0,0,1,7.7,2.9c2.1,1.6,4,3.6,6,5.4a44.5,44.5,0,0,1-6,5.4,13.6,13.6,0,0,1-7.8,2.9h-.1a8.5,8.5,0,0,1-6.1-2.4,8.2,8.2,0,0,1-2.4-5.9h0a8.2,8.2,0,0,1,2.5-5.8A8.8,8.8,0,0,1,83.8,4.7Z"/><path class="cls-1" d="M8.4,37.6l-.5.3H7v.5a1.6,1.6,0,0,1,.1.4,1.7,1.7,0,0,1-.2.7l-.5.6-.7.4H5l-.6.3-.2.3H6.4l.6.3.5.5a1.6,1.6,0,0,1,.2.8,1.8,1.8,0,0,1-.2.9,1.7,1.7,0,0,1-.5.6l-.9.4H3.9L3.1,45l-.6-.5a1.3,1.3,0,0,1-.2-.7,2.7,2.7,0,0,1,.1-.6H3.7a1.5,1.5,0,0,0-.1.4.7.7,0,0,0,.3.6l1,.2A1.8,1.8,0,0,0,6,44.2a.8.8,0,0,0,.4-.7.7.7,0,0,0-.4-.7l-1.3-.2h-1l-.6-.2-.3-.3a1,1,0,0,1-.1-.4.7.7,0,0,1,.3-.7l.8-.4A1.7,1.7,0,0,1,2.4,39a2,2,0,0,1,.2-.8l.5-.6.8-.4H6.7a1.7,1.7,0,0,0,1.1-.4ZM5.9,39a.9.9,0,0,0-1-1,1,1,0,0,0-.8.3,1.1,1.1,0,0,0-.3.8,1,1,0,0,0,.3.8,1.1,1.1,0,0,0,.8.2A.9.9,0,0,0,5.9,39Z"/><path class="cls-1" d="M11.6,43.1h-.8l-.8-.2-.4-.5a1.5,1.5,0,0,1-.1-.6c0-.2,0-.4,0-.5V36.4c0-.2,0-.4,0-.6s0-.3,0-.4v-.8l1.4-.3a3.2,3.2,0,0,1,.1.7c0,.3,0,.6,0,1v5.1c0,.2,0,.4,0,.5v.5h.5Z"/><path class="cls-1" d="M17.9,40.1a4.3,4.3,0,0,1-.2,1.3,2.9,2.9,0,0,1-.5,1l-.9.6-1.1.2-1.1-.2a2.4,2.4,0,0,1-.8-.6,2.9,2.9,0,0,1-.5-1,4.7,4.7,0,0,1,0-2.6,2.9,2.9,0,0,1,.5-1,2.4,2.4,0,0,1,.8-.6l1.1-.2,1.1.2a2.2,2.2,0,0,1,.9.7,2.9,2.9,0,0,1,.5,1A4.4,4.4,0,0,1,17.9,40.1Zm-1.5,0a5.3,5.3,0,0,0-.1-1.1,2.1,2.1,0,0,0-.3-.7l-.4-.4h-.5a1,1,0,0,0-.9.5A3.4,3.4,0,0,0,14,40a5.9,5.9,0,0,0,.1,1.1,2.1,2.1,0,0,0,.2.7l.4.4h.5a1,1,0,0,0,.9-.5A3.3,3.3,0,0,0,16.4,40.2Z"/><path class="cls-1" d="M24.7,40a4.7,4.7,0,0,1-.2,1.3,3.3,3.3,0,0,1-.5,1,2.3,2.3,0,0,1-.8.7l-1,.2a1.8,1.8,0,0,1-1.5-.7v.6H19.4v-.8c0-.1,0-.3,0-.5V36.1q0-.5,0-.9a2.8,2.8,0,0,0-.1-.6l1.4-.3v.6c0,.2,0,.4,0,.6v1.4a4.6,4.6,0,0,1,0,.6h0l.7-.5h.8l1,.2.7.6a3,3,0,0,1,.5,1A4.5,4.5,0,0,1,24.7,40Zm-1.5,0a5.5,5.5,0,0,0-.1-.8,2.2,2.2,0,0,0-.2-.6l-.4-.4L22,38l-.7.2-.5.4v3l.5.4.6.2a1,1,0,0,0,.9-.5A3.5,3.5,0,0,0,23.2,40Z"/><path class="cls-1" d="M30.5,43.4l-.5-.3-.3-.5-.8.6-.9.2a2,2,0,0,1-1.5-.5,1.8,1.8,0,0,1-.5-1.3,1.8,1.8,0,0,1,.8-1.6,4,4,0,0,1,2.2-.5h.4v-.3a1.7,1.7,0,0,0-.1-.8c-.1-.2-.3-.3-.7-.3h-.6l-.6.2-.6.3-.6-.9,1.3-.6,1.3-.2a1.8,1.8,0,0,1,1.9,1v.5c0,.1,0,.2,0,.4v2.3c0,.2,0,.4,0,.5a1.2,1.2,0,0,0,.1.4l.2.3.3.2Zm-1.1-3.1H28.3l-.5.2-.3.4a1.4,1.4,0,0,0-.1.5,1,1,0,0,0,.2.7.8.8,0,0,0,.6.2l.6-.2.5-.5Z"/><path class="cls-1" d="M35,43.1h-.8l-.8-.2-.4-.5a1.6,1.6,0,0,1-.1-.6c0-.2,0-.4,0-.5V36.4c0-.2,0-.4,0-.6V34.6l1.4-.3a3.8,3.8,0,0,1,.1.7c0,.3,0,.6,0,1v5.1c0,.2,0,.4,0,.5v.5h.5Z"/><path class="cls-1" d="M43.4,42.5l-.9.6-1.1.2a2.3,2.3,0,0,1-1.9-.8,3.5,3.5,0,0,1-.7-2.3,4.1,4.1,0,0,1,.2-1.4,3.1,3.1,0,0,1,.6-1l.9-.6,1-.2h.9l.8.5-.7.9a1.5,1.5,0,0,0-1-.5,1,1,0,0,0-1,.6,2.2,2.2,0,0,0-.2.7,6.7,6.7,0,0,0-.1,1,2.5,2.5,0,0,0,.4,1.7,1,1,0,0,0,.8.3,1.8,1.8,0,0,0,1.2-.6Z"/><path class="cls-1" d="M49.7,40.1a4.4,4.4,0,0,1-.2,1.3,2.8,2.8,0,0,1-.5,1l-.9.6-1.1.2-1.1-.2a2.3,2.3,0,0,1-.8-.6,2.9,2.9,0,0,1-.5-1,4.8,4.8,0,0,1,0-2.6,2.9,2.9,0,0,1,.5-1l.8-.6,1.1-.2,1.2.2a2.3,2.3,0,0,1,.9.7,3,3,0,0,1,.5,1A4.4,4.4,0,0,1,49.7,40.1Zm-1.5,0a5.2,5.2,0,0,0-.1-1.1,2,2,0,0,0-.3-.7l-.4-.4H47a1,1,0,0,0-.9.5,3.4,3.4,0,0,0-.3,1.6,5.9,5.9,0,0,0,.1,1.1,2.1,2.1,0,0,0,.2.7l.4.4H47a1,1,0,0,0,.9-.5A3.3,3.3,0,0,0,48.2,40.2Z"/><path class="cls-1" d="M54.2,38.2h-.4a1.1,1.1,0,0,0-.7.3,1.2,1.2,0,0,0-.4.6v4.1H51.4V38.9a6.4,6.4,0,0,0-.1-1l-.2-.7,1.2-.3a2,2,0,0,1,.2,1l.7-.7.8-.2h.5Z"/><path class="cls-1" d="M60.8,40a5.2,5.2,0,0,1-.2,1.4,3.3,3.3,0,0,1-.5,1,2.1,2.1,0,0,1-.8.7l-1,.2a2.3,2.3,0,0,1-1.4-.5c0,.2,0,.4,0,.6v2l-1.3.3V38.6c0-.2,0-.4,0-.5v-1l1.2-.2v.7l.7-.5.9-.2.9.2.7.5a2.7,2.7,0,0,1,.5.9A4.5,4.5,0,0,1,60.8,40Zm-1.4.1a4,4,0,0,0-.2-1.6.9.9,0,0,0-.9-.5,1.7,1.7,0,0,0-1.3.6v3l.5.4.6.2a1.1,1.1,0,0,0,1-.5A3.2,3.2,0,0,0,59.4,40.1Z"/><path class="cls-1" d="M67.6,40.1a4.3,4.3,0,0,1-.2,1.3,2.8,2.8,0,0,1-.5,1l-.9.6-1.1.2-1.1-.2a2.3,2.3,0,0,1-.8-.6,2.9,2.9,0,0,1-.5-1,4.8,4.8,0,0,1,0-2.6,2.9,2.9,0,0,1,.5-1,2.4,2.4,0,0,1,.8-.6l1.1-.2,1.2.2a2.3,2.3,0,0,1,.9.7,3,3,0,0,1,.5,1A4.5,4.5,0,0,1,67.6,40.1Zm-1.5,0a5.2,5.2,0,0,0-.1-1.1,2.1,2.1,0,0,0-.3-.7l-.4-.4h-.5a1,1,0,0,0-.9.5,3.4,3.4,0,0,0-.3,1.6,5.9,5.9,0,0,0,.1,1.1,2.1,2.1,0,0,0,.2.7l.4.4h.5a1,1,0,0,0,.9-.5A3.3,3.3,0,0,0,66.1,40.2Z"/><path class="cls-1" d="M72.1,38.2h-.4a1.1,1.1,0,0,0-.7.3,1.2,1.2,0,0,0-.4.6v4.1H69.3V38.9a6.1,6.1,0,0,0-.1-1l-.2-.7,1.2-.3a2.1,2.1,0,0,1,.2,1l.7-.7.8-.2h.5Z"/><path class="cls-1" d="M77.6,43.4l-.5-.3-.3-.5-.8.6-.9.2a2,2,0,0,1-1.5-.5,1.8,1.8,0,0,1-.5-1.3,1.8,1.8,0,0,1,.8-1.6,3.9,3.9,0,0,1,2.2-.5h.4v-.3a1.7,1.7,0,0,0-.2-.8q-.1-.3-.7-.3H75l-.6.2-.6.3-.6-.9,1.3-.6,1.3-.2a1.8,1.8,0,0,1,1.8,1v.5c0,.1,0,.2,0,.4v2.3c0,.2,0,.4,0,.5a1.3,1.3,0,0,0,.1.4l.2.3.3.2Zm-1.1-3.1H75.4l-.5.2-.3.4a1.4,1.4,0,0,0-.1.5,1,1,0,0,0,.2.7.8.8,0,0,0,.6.2l.6-.2.5-.5Z"/><path class="cls-1" d="M82.7,43l-1.2.3h-.7l-.5-.3-.3-.5a2.1,2.1,0,0,1-.1-.6V38h-.7v-.9h.7c0-.3,0-.5,0-.8a6.2,6.2,0,0,1,.1-.7l1.4-.3c0,.2-.1.5-.1.9s0,.6,0,1h1.5l-.3.9H81.2v3.4a1.4,1.4,0,0,0,.2.8l.6.2h.6Z"/><path class="cls-1" d="M85.2,40.5h0a3,3,0,0,0,.1.6,1.4,1.4,0,0,0,.2.6l.5.4h.7a2.3,2.3,0,0,0,1.5-.6l.5.8a3.3,3.3,0,0,1-2.2.8l-1.2-.2-.9-.6a3,3,0,0,1-.6-1,4.1,4.1,0,0,1-.2-1.3,4.5,4.5,0,0,1,.2-1.4,2.9,2.9,0,0,1,.6-1l.8-.6,1-.2h.9l.8.5a2.2,2.2,0,0,1,.6,1,5.6,5.6,0,0,1,.2,1.7v.3Zm2.2-1a2,2,0,0,0-.3-1.2.9.9,0,0,0-.8-.4,1,1,0,0,0-.9.4,2.1,2.1,0,0,0-.3,1.2Z"/><path class="cls-1" d="M97.7,41.2a2,2,0,0,1-.2.8l-.5.7-.8.4-1,.2-1.2-.2-1.2-.5.5-.9.9.4,1,.2.7-.2a.8.8,0,0,0,.3-.6.7.7,0,0,0-.2-.5l-.7-.3-.7-.2a1.9,1.9,0,0,1-1.1-.6,1.6,1.6,0,0,1-.4-1.1,1.8,1.8,0,0,1,.2-.8l.5-.6.7-.4h.9l1.1.2.9.4-.4.9-.8-.3h-.7l-.7.2a.7.7,0,0,0-.2.6.6.6,0,0,0,.2.4l.6.3.8.2.8.3.5.4.2.5A1.9,1.9,0,0,1,97.7,41.2Z"/><path class="cls-1" d="M100.4,40.5h0a3,3,0,0,0,.1.6,1.5,1.5,0,0,0,.2.6l.5.4h.7a2.3,2.3,0,0,0,1.5-.6l.5.8a3.3,3.3,0,0,1-2.2.8l-1.2-.2a2.4,2.4,0,0,1-.9-.6,2.9,2.9,0,0,1-.6-1,4.2,4.2,0,0,1-.2-1.3,4.5,4.5,0,0,1,.2-1.4,2.9,2.9,0,0,1,.6-1l.8-.6,1-.2h.9l.8.5a2.2,2.2,0,0,1,.6,1,5.6,5.6,0,0,1,.2,1.7v.3Zm2.2-1a2,2,0,0,0-.3-1.2.9.9,0,0,0-.8-.4,1,1,0,0,0-.9.4,2,2,0,0,0-.3,1.2Z"/><path class="cls-1" d="M108.6,38.2h-.4a1.1,1.1,0,0,0-.7.3,1.2,1.2,0,0,0-.4.6v4.1h-1.3V38.9a6.4,6.4,0,0,0-.1-1l-.2-.7,1.2-.3a2,2,0,0,1,.2,1l.7-.7.8-.2h.5Z"/><path class="cls-1" d="M112.8,43.2h-1.2l-2.2-6,1.4-.2,1.1,3.3.2.6v.7h0v-.9l.2-.5,1-3.1H115Z"/><path class="cls-1" d="M117.4,35.9a.9.9,0,0,1-.6.3.8.8,0,0,1-.6-.3.9.9,0,0,1-.2-.6.9.9,0,0,1,.3-.6.8.8,0,0,1,.6-.3l.6.3a.9.9,0,0,1,0,1.3Zm-1.3,7.2v-6l1.3-.2v6.2Z"/><path class="cls-1" d="M123.8,42.5l-.9.6-1.1.2a2.3,2.3,0,0,1-1.9-.8,3.6,3.6,0,0,1-.7-2.3,4.1,4.1,0,0,1,.2-1.4,3.2,3.2,0,0,1,.6-1l.9-.6,1-.2h.9l.8.5-.7.9a1.5,1.5,0,0,0-1-.5,1,1,0,0,0-1,.6,2.6,2.6,0,0,0-.2.7,7.1,7.1,0,0,0-.1,1,2.5,2.5,0,0,0,.4,1.7,1,1,0,0,0,.8.3,1.7,1.7,0,0,0,1.2-.6Z"/><path class="cls-1" d="M126.2,40.5h0a2.9,2.9,0,0,0,.1.6,1.4,1.4,0,0,0,.2.6l.5.4h.7a2.3,2.3,0,0,0,1.5-.6l.5.8a3.3,3.3,0,0,1-2.2.8l-1.2-.2a2.4,2.4,0,0,1-.9-.6,3,3,0,0,1-.6-1,4.2,4.2,0,0,1-.2-1.3,4.5,4.5,0,0,1,.2-1.4,2.8,2.8,0,0,1,.6-1l.8-.6,1-.2h.9l.8.5a2.2,2.2,0,0,1,.6,1,5.7,5.7,0,0,1,.2,1.7v.3Zm2.2-1a2,2,0,0,0-.3-1.2.9.9,0,0,0-.8-.4,1,1,0,0,0-.9.4,2.1,2.1,0,0,0-.3,1.2Z"/></g></g></svg>