<svg xmlns="http://www.w3.org/2000/svg" viewBox="0 0 71.8 65"><defs><style>.cls-1{fill:#00b3be;}</style></defs><title>blobe-mark</title><g id="Слой_2" data-name="Слой 2"><g id="Слой_2-2" data-name="Слой 2"><path class="cls-1" d="M19.2,21.6C7.8,20-2.2,31,.4,42.2a23.5,23.5,0,0,0,3.9,7.9A91.2,91.2,0,0,0,17.2,65l1-.9A102.4,102.4,0,0,0,30.3,49.9a18.5,18.5,0,0,0,4-9.8C35,30.6,28.7,22.9,19.2,21.6Zm-2,31.7A14.7,14.7,0,1,1,31.9,38.6,14.8,14.8,0,0,1,17.2,53.3Z"/><path class="cls-1" d="M30.7,49.4l-.3.5.3-.5Z"/><path class="cls-1" d="M25.9,55.7l-1.7,2.1h0l1.7-2.1Z"/><path class="cls-1" d="M29.7,50.7l.6-.8-.6.8Z"/><path class="cls-1" d="M34.3,40.9a15.2,15.2,0,0,1-.3,1.6h0a14.9,14.9,0,0,0,.3-1.6Z"/><path class="cls-1" d="M40.8,0A31.1,31.1,0,0,0,11.7,20.3l3.1-.7A29.3,29.3,0,0,1,19,12.8h.2l.7.6,1.4,1.2A27.1,27.1,0,0,0,25.9,18a.7.7,0,0,1,.3,1l-.7,2.2,1.3.7.5-1.5.3-.8.2-.5h.1a29.8,29.8,0,0,0,11.9,2.9h.1v2.6q0,2.6,0,5.2a.6.6,0,0,1-.1.5H34.9l.6,1.4h4.3v8.3h-.1l-3.1.3q-.1.8-.2,1.5l3.3-.3h.1V58h-.2c-1.2-.3-2.9-1.8-4-3h0a40.7,40.7,0,0,1-3.5-4l-.9,1.3a31.7,31.7,0,0,0,2.7,3,33.2,33.2,0,0,0,4.3,3.6l.4.3h-.5a28.7,28.7,0,0,1-10-2.8l-1.7,2.1A31,31,0,1,0,40.8,0Zm-14,16.6h-.2a28.3,28.3,0,0,1-6.3-4.7h0l-.5-.5h0a27.3,27.3,0,0,1,9.3-6.5c3.5-1.5,7.5-2.5,9.1-2.3h.4l-.3.2A32.6,32.6,0,0,0,26.8,16.6Zm12.9,3.7a28.4,28.4,0,0,1-11.5-2.8h-.1A31,31,0,0,1,39.7,3.5h.2V20.3Zm23.1-7.9H63a25.3,25.3,0,0,1,3,4.3,29,29,0,0,1,3.7,13.3H58.5a.8.8,0,0,1-.6-.2h0a.8.8,0,0,1-.2-.6,36.1,36.1,0,0,0-2.1-10.8v-.6h.1a30.8,30.8,0,0,0,7.2-5.5ZM43.4,2.4c1.7-.2,6.7,1,10,2.6a29,29,0,0,1,7.8,5.5l.6.6h0A28.5,28.5,0,0,1,55,16.6h-.2A33.7,33.7,0,0,0,47.9,6.5a32.6,32.6,0,0,0-4.5-3.8L43,2.5Zm-1.7,1h.2a31.3,31.3,0,0,1,4.9,4,32.3,32.3,0,0,1,6.6,9.8h-.1a28.6,28.6,0,0,1-11.5,2.8h-.1Zm0,21.2q0-1,0-2.1c0-.1,0-.2,0-.4v-.3h.1a30.3,30.3,0,0,0,12.1-3h.1v.2l.3,1.1.7,2.4a36,36,0,0,1,1.1,7.1.8.8,0,0,1-.1.6l-.6.2H42.4a.8.8,0,0,1-.6-.2.8.8,0,0,1-.2-.6C41.7,27.9,41.7,26.2,41.7,24.6Zm0,7.2H56.2c.1.1.1.3.1.6A36.3,36.3,0,0,1,55.1,40l-.6,2-.3.8H54l-1.9-.6L48,41.1l-4.2-.7-1.9-.3h-.1Zm0,26.9V41.8h.1c2.5-.3,9.5,1.4,11.6,2.8h0A31,31,0,0,1,41.9,58.5Zm20.1-7.8a28.7,28.7,0,0,1-9.3,6.5,26.8,26.8,0,0,1-9,2.3H43l.4-.3A33.5,33.5,0,0,0,54.8,45.5H55a28.2,28.2,0,0,1,6.8,5.3h0Zm7.9-18.5a28.7,28.7,0,0,1-6.6,16.9h-.4A30.9,30.9,0,0,0,55.6,44h-.1l.4-1.2.8-2.6a34.6,34.6,0,0,0,1.1-7.5c0-.4.1-.7.7-.7H69.6A.7.7,0,0,1,69.7,32.4Z"/><path class="cls-1" d="M13.3,21.9h0l-1.5.4Z"/><path class="cls-1" d="M10.3,22.9l1.5-.6-1.5.6Z"/><path class="cls-1" d="M33,31.7h0l-.7-1.5Z"/><path class="cls-1" d="M24.7,23.2l1.4.7-1.4-.7Z"/></g></g></svg>