<svg xmlns="http://www.w3.org/2000/svg" viewBox="0 0 74.7 61.5"><defs><style>.cls-1{fill:#fff;fill-rule:evenodd;}</style></defs><title>group</title><g id="Слой_2" data-name="Слой 2"><g id="Слой_2-2" data-name="Слой 2"><path class="cls-1" d="M74.2,35.9a6.8,6.8,0,0,0-8.4-4.4l.2.4a13.8,13.8,0,0,1,1.5,7c0,3.7,0,7.5,0,11.2v.8h7.2V37.3Z"/><path class="cls-1" d="M1,34.5a21.1,21.1,0,0,0-1,2.8V50.8H7.2V50c0-4,0-8,0-11.9a11.3,11.3,0,0,1,.7-4.3l1-2.4A6.7,6.7,0,0,0,1,34.5Z"/><path class="cls-1" d="M51.3,31.8a14.4,14.4,0,0,0-16-10.5,14.2,14.2,0,0,0-10.4,6.9,14.7,14.7,0,0,0-2.1,8c0,8.2,0,16.5,0,24.7v.6H51.9c0-.2,0-.3,0-.4,0-8.5,0-17,0-25.5A15.3,15.3,0,0,0,51.3,31.8Z"/><path class="cls-1" d="M65.1,36.3a10,10,0,0,0-7.9-8.5,8.9,8.9,0,0,0-4.8.3c2,4.5,1.9,6.2,1.9,10.7s0,10.8,0,16.3v.7H65.2c0-.2,0-.4,0-.5q0-8.6,0-17.2A12.9,12.9,0,0,0,65.1,36.3Z"/><path class="cls-1" d="M14.4,29a10,10,0,0,0-4.9,9c0,5.7,0,11.4,0,17.1,0,.2,0,.4,0,.6H20.4v-.8q0-9.4,0-18.8A16.9,16.9,0,0,1,21.5,30l.8-2A9.6,9.6,0,0,0,14.4,29Z"/><path class="cls-1" d="M37.3,18.6A9.3,9.3,0,1,0,28,9.2,9.3,9.3,0,0,0,37.3,18.6Z"/><path class="cls-1" d="M55.3,25.1a6.2,6.2,0,0,0,6.1-6.4,6.3,6.3,0,1,0-6.1,6.4Z"/><path class="cls-1" d="M19.5,25.1a6.3,6.3,0,0,0,.1-12.5,6.3,6.3,0,0,0-.1,12.5Z"/><path class="cls-1" d="M7,28.7a4.3,4.3,0,0,0,4.2-4.2,4.2,4.2,0,0,0-8.4,0A4.3,4.3,0,0,0,7,28.7Z"/><path class="cls-1" d="M67.8,28.7a4.2,4.2,0,1,0-4.3-4.2A4.3,4.3,0,0,0,67.8,28.7Z"/></g></g></svg>