<svg xmlns="http://www.w3.org/2000/svg" viewBox="0 0 60.4 53.1"><defs><style>.cls-1{fill:#fff;fill-rule:evenodd;}</style></defs><title>heart-white</title><g id="Слой_2" data-name="Слой 2"><g id="Слой_2-2" data-name="Слой 2"><path class="cls-1" d="M59.9,11.9A14.3,14.3,0,0,0,55,3.4,14.1,14.1,0,0,0,49,.5,21.1,21.1,0,0,0,36.6,1.6a20.1,20.1,0,0,0-6,3.6c-.2.2-.4.3-.7,0A21.5,21.5,0,0,0,21.5.8,21,21,0,0,0,12.9.2,15,15,0,0,0,6,2.8,13,13,0,0,0,2.5,6.6a17.7,17.7,0,0,0-2.4,8v3.1c.2,1.1.3,2.3.6,3.4a27.3,27.3,0,0,0,2.8,7.4A42,42,0,0,0,8.5,36a62.9,62.9,0,0,0,7,6.9,82.7,82.7,0,0,0,8.2,6.3l6,3.8a.7.7,0,0,0,.8,0,89.2,89.2,0,0,0,9-5.8,76.4,76.4,0,0,0,10.5-9.2,46.4,46.4,0,0,0,6.5-8.6A28,28,0,0,0,60,20.1c.1-.8.2-1.6.4-2.4V15C60.2,14,60.1,12.9,59.9,11.9Z"/></g></g></svg>