<svg xmlns="http://www.w3.org/2000/svg" viewBox="0 0 86.4 83.7"><defs><style>.cls-1{fill:#fff;}</style></defs><title>people-white</title><g id="Слой_2" data-name="Слой 2"><g id="Слой_2-2" data-name="Слой 2"><path class="cls-1" d="M43.2,0a9.3,9.3,0,0,0-9.4,9.2,9.4,9.4,0,0,0,18.8,0A9.3,9.3,0,0,0,43.2,0Zm0,16.7a7.7,7.7,0,0,1-7.8-7.5,7.8,7.8,0,0,1,15.5,0A7.7,7.7,0,0,1,43.2,16.7Z"/><path class="cls-1" d="M86.3,45.9c-.7-5.6-1.3-11-1.9-16.4a4.7,4.7,0,0,0-3.7-4.4l-1.3-.3-4.8-1.1h-.1a8.5,8.5,0,0,0,4.4-7.4,8.6,8.6,0,0,0-8.7-8.5,8.8,8.8,0,0,0-6.7,3.1h-.1v-.2a10.4,10.4,0,0,0-.1-1,5.1,5.1,0,0,0-5.2-4.3h-.6A5.1,5.1,0,0,0,53,10.7a3.5,3.5,0,0,1-.2,1.2,8.7,8.7,0,0,1-.8,1.9,17.2,17.2,0,0,1-4.1,4.8h0L45,18.4H41.4l-3,.2h0a17.5,17.5,0,0,1-4.1-4.8,8.7,8.7,0,0,1-.8-1.9,3.5,3.5,0,0,1-.1-1.2,5.1,5.1,0,0,0-4.6-5.3h-.6a5.1,5.1,0,0,0-5.2,4.3,10.4,10.4,0,0,0-.1,1v.2h-.1A8.8,8.8,0,0,0,16,7.6a8.6,8.6,0,0,0-8.7,8.5,8.5,8.5,0,0,0,4.4,7.4h-.1L6.8,24.8H6.7l-1.1.3a4.7,4.7,0,0,0-3.7,4.4C1.3,35,.7,40.3,0,45.9A4.3,4.3,0,0,0,3.8,51a4.1,4.1,0,0,0,3.4-1.1h.1V50c-.1,1.6-.2,3.2-.4,4.8h0l-.2,2.6c-.1,1.8-.3,3.6-.4,5.4V63c-.2,2.4-.5,5.4-.6,8.2s1.5,5.2,4.2,5.4h.5a4.7,4.7,0,0,0,4.8-4.7c.2-2.6.4-5.2.6-7.7V61.7h.1v1.9c.2,2.5.4,5.4.7,8.2a4.7,4.7,0,0,0,4.8,4.7h.5c2.7-.2,4.4-2.4,4.2-5.4s-.4-5.7-.6-8.2v-.4c-.1-1.7-.3-3.5-.4-5.2l-.2-2.2v-.4c-.1-1.6-.3-3.2-.4-4.8v-.2h.1a4.1,4.1,0,0,0,2.8,1.1h.5a4.3,4.3,0,0,0,3.7-5.1c-.7-5.8-1.3-11.2-1.9-16.4a4.7,4.7,0,0,0-3.7-4.4l-1.3-.3-4.8-1.1h-.1a8.5,8.5,0,0,0,4.2-5.7v0a26.2,26.2,0,0,0,7,8.5h.2l.9.7h0c0,.2.1.5.1.7v.6c0,2.8,0,5.6,0,8.1h0a166.5,166.5,0,0,1-.5,17.4c-.4,3.9-.7,7.8-1,11.5l-.3,3.1c-.3,3.1-.5,6.2-.7,9.3a5.5,5.5,0,0,0,1.4,4,5.4,5.4,0,0,0,3.8,1.8H36a5.5,5.5,0,0,0,5.6-5.2l.7-8.7V68.1l.9-11.3V55.3h.1v1.1l.6,6.7.4,5.2v.3c.3,3.3.5,6.7.8,10a5.5,5.5,0,0,0,5,5H51a5.4,5.4,0,0,0,5.3-3.8,9.6,9.6,0,0,0,.2-3.2c-.5-6-.9-10.9-1.3-15.3l-.2-1.7a175.5,175.5,0,0,1-1-19.9s0-.1,0-.1-.1-2.6-.2-3.9h0c-.1-2.3-.2-4.8-.2-7.1,0-.2,0-.4,0-.7h0a3.9,3.9,0,0,1,0-.8h0l.5-.4h0l.5-.4a26.2,26.2,0,0,0,7-8.5v0a8.5,8.5,0,0,0,4.2,5.7H66l-4.8,1.1h-.1l-1.1.3a4.7,4.7,0,0,0-3.7,4.4c-.6,5.2-1.2,10.5-1.9,16.4A4.3,4.3,0,0,0,58.2,51a4.1,4.1,0,0,0,3.4-1.1h.1V50c-.1,1.6-.2,3.2-.4,4.8v.5l-.2,2.2-.4,5.2V63c-.2,2.7-.5,5.4-.6,8.2s1.5,5.2,4.2,5.4h.5a4.7,4.7,0,0,0,4.8-4.7c.3-2.8.5-5.7.7-8.2V61.7h.1v2.4c.2,2.5.4,5.2.6,7.7a4.7,4.7,0,0,0,4.8,4.7h.5c2.7-.2,4.4-2.4,4.2-5.4s-.4-5.8-.6-8.2v-.2c-.1-1.8-.3-3.6-.4-5.4l-.2-2.6c-.1-1.5-.3-3.2-.4-4.8v-.2h.1a4.1,4.1,0,0,0,2.8,1.1h.5A4.3,4.3,0,0,0,86.3,45.9ZM24.7,26.4l1.3.3a3.1,3.1,0,0,1,2.4,3c.6,5.3,1.2,10.8,1.9,16.4A2.7,2.7,0,0,1,28,49.4h-.3a2.7,2.7,0,0,1-2.6-2.6l-.6-4.9-1.2-10a1.7,1.7,0,0,0-.2-.6v-.2h-.2v1.2c0,1.3,0,2.6,0,3.9,0,3,0,6.1.1,9.1s.4,6.4.6,9.5l.2,2.6c.1,1.9.3,3.7.5,5.6s.5,5.4.6,8.2-.9,3.4-2.7,3.6h-.3a3.1,3.1,0,0,1-3.2-3.1c-.2-2.8-.5-5.6-.7-8.3l-.4-4.6L17.1,54l-.3-3.3H15.2l-.3,3.2-.4,5-.4,4.6c-.2,2.7-.4,5.5-.7,8.3a3.1,3.1,0,0,1-3.2,3.1H9.9c-1.8-.1-2.8-1.5-2.7-3.6s.4-5.5.6-8.2.3-3.7.5-5.6L8.5,55c.2-3.1.5-6.3.6-9.5s.1-6.2.1-9.2c0-1.3,0-2.6,0-3.9V31.2H9v.2a1.7,1.7,0,0,0-.3.6L7.5,41.7l-.6,5.1a2.7,2.7,0,0,1-2.6,2.6H4a2.7,2.7,0,0,1-2.3-3.2C2.4,40.5,3,35,3.6,29.7a3.1,3.1,0,0,1,2.4-3l1.3-.3,4.6-1.1a23.1,23.1,0,0,1,3.8-.4h.5a23.1,23.1,0,0,1,3.8.4ZM16,23a6.9,6.9,0,0,1-7-6.8,6.9,6.9,0,0,1,7-6.8,6.9,6.9,0,0,1,7,6.8A6.9,6.9,0,0,1,16,23Zm44.5-6.3a24.6,24.6,0,0,1-6.8,8.3l-.4.3A2.8,2.8,0,0,0,52,26.5,3.8,3.8,0,0,0,52,28c0,.2,0,.4,0,.6,0,2.4.1,4.9.2,7.3s.1,2.5.2,3.8a176.9,176.9,0,0,0,1,20.1l.2,1.7c.4,4.5.8,9.3,1.3,15.3a8,8,0,0,1-.1,2.6A3.7,3.7,0,0,1,51,82h-.3a3.8,3.8,0,0,1-3.5-3.5c-.3-3.4-.6-6.9-.8-10.2l-.4-5.3-.6-7.6L45,51.7H42.1L42,53.2c-.1,1.1-.2,2.3-.3,3.4l-.9,11.5-.8,10.2A3.8,3.8,0,0,1,36,82h-.2a3.8,3.8,0,0,1-2.6-1.2,3.8,3.8,0,0,1-.9-2.8c.2-3.1.4-6.2.7-9.3l.3-3.3c.3-3.7.6-7.6,1-11.4a167.4,167.4,0,0,0,.5-17.6c0-2.7,0-5.5,0-8.2v-.6c-.1-.8-.2-1.7-.8-2l-.8-.6-.2-.2a24.6,24.6,0,0,1-6.8-8.3,10.8,10.8,0,0,1-1.3-6.7A3.4,3.4,0,0,1,28.1,7h.5a3.4,3.4,0,0,1,3.1,3.6,5.1,5.1,0,0,0,.2,1.8,10.3,10.3,0,0,0,1,2.2A18.6,18.6,0,0,0,38,20.3l3.6-.3,1.1-.2h0a2.3,2.3,0,0,1,.4,1.8c-.2,2.2-.5,4.4-.8,6.5L42,30.4,41.7,33l-.5,3.5a1.5,1.5,0,0,0,.2.9L43,40.2l.5.9.7-1.2a14.2,14.2,0,0,0,1.5-2.8,3.9,3.9,0,0,0-.1-2l-.2-.9-.5-4c-.4-2.7-.7-5.6-1.1-8.4a2.5,2.5,0,0,1,.3-1.8h.5l3.6.3a18.7,18.7,0,0,0,5.1-5.6,10.5,10.5,0,0,0,1-2.2,5.2,5.2,0,0,0,.2-1.8A3.4,3.4,0,0,1,57.8,7h.5a3.4,3.4,0,0,1,3.5,2.9A10.8,10.8,0,0,1,60.5,16.6Zm2.9-.5a7,7,0,0,1,14,0,7,7,0,0,1-14,0Zm19,33.2h-.3a2.7,2.7,0,0,1-2.6-2.6l-.6-5.1-1.1-9.8a1.7,1.7,0,0,0-.2-.6v-.2h-.2v1.2c0,1.3,0,2.6,0,3.9,0,3,0,6.1.1,9.2s.4,6.4.6,9.5l.2,2.6c.1,1.9.3,3.7.5,5.6s.5,5.4.6,8.2-.9,3.4-2.7,3.6h-.3a3.1,3.1,0,0,1-3.2-3.1c-.2-2.8-.5-5.6-.7-8.3l-.4-4.6-.4-5-.3-3.1H69.6L69.3,54l-.4,4.8-.4,4.6c-.2,2.7-.4,5.5-.7,8.3a3.1,3.1,0,0,1-3.2,3.1h-.3c-1.8-.1-2.8-1.5-2.7-3.6s.4-5.5.6-8.2.3-3.7.5-5.6l.2-2.6c.2-3.1.5-6.3.6-9.5s.1-6.1.1-9.1c0-1.3,0-2.6,0-3.9V31.2h-.2v.2a1.7,1.7,0,0,0-.2.6L61.8,42l-.6,4.9a2.7,2.7,0,0,1-2.6,2.6h-.3a2.7,2.7,0,0,1-2.3-3.2c.7-5.6,1.3-11.1,1.9-16.4a3.1,3.1,0,0,1,2.4-3l1.3-.3,4.7-1.1a23.1,23.1,0,0,1,3.8-.4h.5a23.1,23.1,0,0,1,3.8.4l4.6,1.1,1.3.3a3.1,3.1,0,0,1,2.4,3c.6,5.3,1.2,10.8,1.9,16.4A2.7,2.7,0,0,1,82.4,49.4Z"/></g></g></svg>