<svg xmlns="http://www.w3.org/2000/svg" viewBox="0 0 71.1 73.9"><defs><style>.cls-1{fill:#00b3be;}</style></defs><title>people-down</title><g id="Слой_2" data-name="Слой 2"><g id="Слой_2-2" data-name="Слой 2"><path class="cls-1" d="M71.1,38.4c-.6-5.3-1.2-10.1-1.7-14.6A4.4,4.4,0,0,0,66,19.7l-1.1-.3-4.3-1h-.2a7.7,7.7,0,0,0,3.8-6.6,7.9,7.9,0,0,0-15.7,0,7.7,7.7,0,0,0,3.8,6.6l-1.3.3-.8.2a4.2,4.2,0,0,0-2.4-1.6l-8-1.8a8.3,8.3,0,0,0,4.1-7.1,8.5,8.5,0,0,0-17,0A8.3,8.3,0,0,0,31,15.5l-8,1.8a4.1,4.1,0,0,0-2.2,1.4H19.4a7.7,7.7,0,0,0,4-6.7,7.8,7.8,0,0,0-7.9-7.7,7.8,7.8,0,0,0-7.9,7.7,7.6,7.6,0,0,0,3.6,6.5A43.5,43.5,0,0,0,5,19.7a4.4,4.4,0,0,0-3.3,4.1C1.1,29.1.5,34.4,0,38.4A4,4,0,0,0,3.5,43h.5a3.8,3.8,0,0,0,2.5-.9c-.2,3-.4,6.2-.8,9.6s-.4,5.1-.6,7.6V61A4.7,4.7,0,0,0,5.2,63a4.2,4.2,0,0,0,4,2.7H10a4.4,4.4,0,0,0,3.7-4.2c.2-2.4.4-4.7.6-7l.4-4.5h0v1.8l.2,2.8c.2,2.5.4,5,.7,7.5A4.2,4.2,0,0,0,20,65.8h.5a4.3,4.3,0,0,0,3.6-2.9c-.2,1.9-.3,3.9-.4,5.8A5,5,0,0,0,25,72.3a5,5,0,0,0,3.5,1.6h.3a5,5,0,0,0,5.1-4.8l.8-9.7.8-9.6v-.7l.5,6.3.4,4.8c.2,3,.5,6.1.7,9.1a5,5,0,0,0,4.6,4.6h.4a4.9,4.9,0,0,0,4.8-3.5,8.7,8.7,0,0,0,.2-2.9c-.4-5.3-.8-9.6-1.1-13.6V52.3c-.3-2.9-.5-5.9-.7-8.8A4.4,4.4,0,0,0,48,45.4v.4c-.4,4.5-.8,9.4-1.2,15a4.4,4.4,0,0,0,3.7,4.9h.6a4.3,4.3,0,0,0,4.4-4c.3-2.9.5-5.8.7-8.7l.3-3.3V50l.3,4.1c.2,2.4.4,5,.6,7.4a4.4,4.4,0,0,0,4.4,4.3h.4c2.5-.2,4-2.2,3.9-4.9s-.4-4.9-.6-7.3l-.4-4.9L65,46.3c-.1-1.4-.2-2.8-.3-4.2a3.7,3.7,0,0,0,2.5,1h.5A4,4,0,0,0,71.1,38.4ZM50.1,11.8a6.2,6.2,0,0,1,12.4,0,6.2,6.2,0,0,1-12.4,0ZM28.6,8.3a6.9,6.9,0,0,1,13.7,0,6.9,6.9,0,0,1-13.7,0ZM9.3,11.8a6.1,6.1,0,0,1,6.2-6,6.1,6.1,0,0,1,6.2,6,6.1,6.1,0,0,1-6.2,6A6.1,6.1,0,0,1,9.3,11.8ZM20.3,64.1H20a2.6,2.6,0,0,1-2.7-2.4c-.3-3.4-.6-6.8-.9-10.2l-.7-8.9H13.6c-.2,2.4-.4,4.9-.6,7.3s-.6,7.7-.9,11.5a2.7,2.7,0,0,1-2.3,2.7H9.2a2.5,2.5,0,0,1-2.4-1.7,3.1,3.1,0,0,1-.2-1.3c.2-3.1.4-6.1.7-9.2a176.9,176.9,0,0,0,1-22.5c0-1.4,0-2.8,0-4.2H8.1a3.8,3.8,0,0,0-.3.9L6.2,39.2a2.3,2.3,0,0,1-2.2,2.1H3.7a2.4,2.4,0,0,1-2-2.8Q2.5,31.3,3.4,24a2.8,2.8,0,0,1,2.1-2.6,32.3,32.3,0,0,1,9.2-1.7h2l3,.5-.5,4.5c-.5,4.7-1.1,9.5-1.6,14.2a7.6,7.6,0,0,0,0,2,5.6,5.6,0,0,0,.2,1.4,4.5,4.5,0,0,0,3.6,3h0c.4,4.7.8,9.5,1.2,14.2,0,.5.1.9.1,1.4A2.7,2.7,0,0,1,20.3,64.1Zm4.2-6.6v2.9h0v-.8L23.9,56c-.3-3.5-.6-7.1-.9-10.6h0a4.4,4.4,0,0,0,2.7-1.9c-.1,1.3-.2,2.5-.3,3.8C25.1,50.7,24.8,54.1,24.6,57.5Zm21.5-16c-.4-2.3-.6-4.5-.8-6.8s-.8-6.9-1.2-10.3a3.4,3.4,0,0,0-.4-.9l-.4.2c0,3.7.1,7.3,0,11a171.8,171.8,0,0,0,1,19.5q.6,6.8,1.1,13.6a7.1,7.1,0,0,1-.1,2.3,3.2,3.2,0,0,1-3.2,2.3h-.3a3.4,3.4,0,0,1-3.1-3.1c-.4-4.6-.8-9.2-1.1-13.8s-.6-6.7-.8-10.1H34.1c-.1,1.4-.3,3-.4,4.5L32.1,69a3.4,3.4,0,0,1-3.4,3.2h-.2a3.2,3.2,0,0,1-3.1-3.5c.2-3.2.5-6.4.7-9.6s.6-7.8,1-11.7c.8-7.7.3-15.3.4-23,0-.3,0-.6,0-.9h-.3a4.5,4.5,0,0,0-.4,1c-.3,2.1-.5,4.1-.7,6.2s-.7,6.9-1.2,10.3a2.9,2.9,0,0,1-2.7,2.8H20.4l-.2-.2h-.1l-.2-.2h-.1l-.2-.2h-.1l-.2-.4v-.6h0a5.4,5.4,0,0,1,0-.5,7.1,7.1,0,0,1,0-.8c.7-6.2,1.4-12.4,2.2-18.6a2.6,2.6,0,0,1,2-2.4l9.7-2.2h.6c1,0,1.4.8,1.3,1.9s-.6,5.2-1,7.8-.5,3.6-.7,5.5a1.4,1.4,0,0,0,.2.8l2,3.4a23.4,23.4,0,0,0,2.1-3.7,6.2,6.2,0,0,0-.2-2.6c-.5-3.7-1-7.3-1.4-11-.1-1.1.2-2,1.3-2h.6l9.6,2.2a2.7,2.7,0,0,1,2,2.4l1.5,13.1c.2,2.1.5,4.1.7,6.2a3.2,3.2,0,0,1-.1.9,2.7,2.7,0,0,1-.8,1.4h-.1l-.2.2H48.7A2.8,2.8,0,0,1,46.1,41.5Zm21.3-.1h-.3a2.3,2.3,0,0,1-2.2-2.2c-.5-4.4-1-8.8-1.5-13.2a3,3,0,0,0-.4-.8h-.3v1.1c0,3.9-.1,7.8,0,11.7s.4,7.2.7,10.8.7,8.2,1,12.2c.1,1.8-.8,3-2.3,3.1h-.3a2.7,2.7,0,0,1-2.8-2.7c-.3-3.8-.6-7.7-.9-11.5l-.6-7.3H55.4l-.5,6.2c-.4,4.3-.7,8.6-1.1,12.9a2.6,2.6,0,0,1-2.7,2.5h-.4a2.8,2.8,0,0,1-2.3-3.1q.6-7.5,1.2-15a3,3,0,0,1,.1-.6,4.4,4.4,0,0,0,3.4-3.2,6.7,6.7,0,0,0,.4-3.6c-.6-4.9-1.1-9.9-1.7-14.8l-.4-3.4a20.3,20.3,0,0,1,5.1-.6,20.8,20.8,0,0,1,3.9.4l5.3,1.3a2.7,2.7,0,0,1,2.1,2.6q.8,7.3,1.7,14.6A2.3,2.3,0,0,1,67.4,41.4Z"/></g></g></svg>