<svg xmlns="http://www.w3.org/2000/svg" viewBox="0 0 73.5 70.8"><defs><style>.cls-1{fill:none;stroke:#00b3be;stroke-miterlimit:10;stroke-width:1.8px;fill-rule:evenodd;}</style></defs><title>prize</title><g id="Слой_2" data-name="Слой 2"><g id="Слой_2-2" data-name="Слой 2"><path class="cls-1" d="M30.6,47.8H21.4a3.2,3.2,0,0,1-2.9-1.6l-2-3.5-2.3-4.1c-.4-.8-1.1-.8-1.6-.1l-.2.3L9,44.9,2.7,56.1l-1.8,3v.8a2,2,0,0,0,1.5.5h8.4A3.4,3.4,0,0,1,14,62.1l4.3,7.3a.9.9,0,0,0,1.8,0l3.1-5.4,5.7-10.1,2.5-4.5C31.9,48.5,31.6,47.9,30.6,47.8Z"/><path class="cls-1" d="M72.4,58.9l-3.5-6.2-4.8-8.4-3.1-5.4c-.6-1-1.3-1-1.9,0l-4,7A3.4,3.4,0,0,1,52,47.9H42.7a.8.8,0,0,0-.7,1.3l.3.5,6.1,10.8,5,8.9c.5.9,1.3.9,1.8,0l4.2-7a3.7,3.7,0,0,1,3.5-2h8.3a1.9,1.9,0,0,0,1.5-.5v-.8Z"/><path class="cls-1" d="M43.8,43h3.7a1.2,1.2,0,0,0,1.3-.9c.4-1,.8-1.9,1.1-2.9A3.9,3.9,0,0,1,52,36.8l3.5-2a1.4,1.4,0,0,0,.8-1.5L55.9,30a4.3,4.3,0,0,1,.5-2.8L58.2,24a1.8,1.8,0,0,0,0-1.8l-1.4-2.5a6.8,6.8,0,0,1-1.1-3.8c0-1-.1-2.1-.1-3.1a1.8,1.8,0,0,0-1-1.6c-1.1-.6-2.1-1.1-3.1-1.8a4.8,4.8,0,0,1-1.4-1.5c-.7-1.3-1.3-2.6-1.9-3.9a1,1,0,0,0-1.1-.7l-3.9.2a5.5,5.5,0,0,1-3.5-.8L36.8,1.1a1.6,1.6,0,0,0-1.6,0L33.1,2.3a7.9,7.9,0,0,1-4.8,1.3H25.9a1.7,1.7,0,0,0-1.5.8L22.7,7.3a7.1,7.1,0,0,1-2.2,2.3l-3.6,2.4a1.7,1.7,0,0,0-.8,1.7q.1,1.6.2,3.3a3.3,3.3,0,0,1-.5,2l-2.1,3.3a1.6,1.6,0,0,0,0,1.8l2.1,3.4a3.9,3.9,0,0,1,.6,2.3c0,1.3-.1,2.6-.1,3.9a1.5,1.5,0,0,0,.9,1.5l3.5,1.9a4.9,4.9,0,0,1,1.5,1.4,36,36,0,0,1,1.9,3.5,1.8,1.8,0,0,0,1.8,1.1h3.8a3.7,3.7,0,0,1,1.7.4l3.6,2.3a1.6,1.6,0,0,0,1.8.1l2.4-1.4A6.4,6.4,0,0,1,43.8,43Zm-8-7.5A12.1,12.1,0,1,1,47.9,23.4,12.1,12.1,0,0,1,35.9,35.5Z"/></g></g></svg>