<svg xmlns="http://www.w3.org/2000/svg" viewBox="0 0 93.8 89.6"><defs><style>.cls-1{fill:#fff;}</style></defs><title>teambuilding</title><g id="Слой_2" data-name="Слой 2"><g id="Слой_2-2" data-name="Слой 2"><path class="cls-1" d="M40.6,3.1c1.4,0,2.2,1.1,2.9,2.4s2.6,5.4,4.1,8a3.2,3.2,0,0,0,1.9,1.6c5.4.6,9.9,3,14.6,6.5,1-1.1,1.9-2.3,2.9-3.3a3.2,3.2,0,0,1,2.3-1.1,2.9,2.9,0,0,1,2,.8c1.5,1.3,1.4,2.8,0,4.2l-4,4a3.8,3.8,0,0,1-2.7,1.3,4.3,4.3,0,0,1-2.3-.7l-3.8-2.3c-1.2,4.2-2.3,8.2-1,12.6s1.9,8,2.8,12,.3,3.5-1.7,5.6a5.6,5.6,0,0,0,3,.9c2,0,3.8-1.3,5.5-2.8a8.9,8.9,0,0,1,5.5-2.1,7.1,7.1,0,0,1,5.7,3,11.1,11.1,0,0,1,1.6,3.7c1,3.7,2,7.3,2.7,11,1.1,5.3,4.4,9.3,8.2,13,1.4,1.4,1.8,2.9.5,4.5a3.2,3.2,0,0,1-2.5,1.3,4.1,4.1,0,0,1-3-1.6c-3.1-3.6-6.1-7.3-9.3-11.2l-4.5,2.9c.5,2.1.9,4,1.3,6a3.3,3.3,0,0,1-2.6,4.2h-.8a3.3,3.3,0,0,1-3.3-2.7c-.6-2.6-1.1-5.2-1.7-7.8s.2-3.5,2.1-4.7c4.3-2.6,4.2-2.7,3-7.5-.6-2.1-1.2-4.2-1.8-6.3h-.5a6.8,6.8,0,0,1-5,2.2c-2.7,0-5.4-1.4-8.1-1.9s-1.9-2.6.1-4.6l-1.9-2.2c0,3.7.1,6.9,0,10.2a12.9,12.9,0,0,1-1,3.3c-.1.4-.5.9-.5,1.3,0,4.7,0,9.3,0,14.3h4.3c2,.1,3.4,1,3.4,3.1s-1.2,3.1-3.3,3.1h-8c-2.2,0-3.2-1.2-3.2-3.2s0-3,0-4.7H34.3c0,1.6,0,3.2,0,4.8A2.9,2.9,0,0,1,31,87.6h0a2.9,2.9,0,0,1-3.3-3.1c0-2.7-.1-5.3,0-8s1.3-3.4,3.6-3.4h5.2c.3-2.8.8-5.4-2-7.4s-2.5-2.6-4-3.7-3.5-4.3-2.5-7.4a4.8,4.8,0,0,0,0-1.5c-2.5,5.1-4.8,10.1-7.3,15.1-.7,1.3-.8,2.4.6,3.3s3.7,3.9,2.8,7.1a45.7,45.7,0,0,0-.7,5.5c-.3,2.2-1.6,3.4-3.5,3.4h-.5c-2-.2-3-1.5-2.9-4a12.4,12.4,0,0,1,.4-2.6c.9-3.3-.4-5.5-3.7-7-1.6,3.6-3.1,7.2-4.8,10.8-.5,1-1.3,2.3-2.3,2.6H5.2a3.8,3.8,0,0,1-2.5-.8A4.1,4.1,0,0,1,2,83.1q5.8-13.7,12-27.3a5.6,5.6,0,0,1,5.3-3.5h1.7c1.5,0,2.3-.7,2.5-2.4s.9-5.6,1.3-8.3c.1-.6.1-1.3.2-1.9s.7-3.2,2.6-3.2h.5c2.4.3,2.3,2.2,2,4s-.6,5.4-.9,7.9c1.4.3,3.2.3,3.7,1s.5,2.7.6,4.1-.3,1.8-.3,2.6a2.7,2.7,0,0,0,2.9,3h.1c3-.1,6-.4,9-.6s2.6-.8,2.3-2.6-.2-2.7-.3-4.5c-1.5,4.2-3.6,6.1-6.4,6.1h-.2A6.1,6.1,0,0,1,35,52.8a5.6,5.6,0,0,1,2.7-6,5.8,5.8,0,0,1,3-.9,7.8,7.8,0,0,1,5,2.4c.8-1,1.5-2.5,2.6-3h.5a14.5,14.5,0,0,1,3,.9l-1.6-7.3L39.4,37.6l-1.6,7c-.5,2.2-1.8,3.4-3.6,3.4h-1c-2.2-.4-3.3-2.4-2.8-4.9s1.3-5.8,2-8.7,1.8-4.1,4.3-4.1l2,.2,3.4.3c.7-3.4,1.5-6.6,2.1-9.9a4.1,4.1,0,0,0-.6-2.2L38.3,8c-1.1-2.2-.8-3.8.9-4.5a3.7,3.7,0,0,1,1.4-.3m0-1.8h0a5.5,5.5,0,0,0-2.1.5,4.2,4.2,0,0,0-2.4,2.4,5.7,5.7,0,0,0,.6,4.6l2.4,4.7,2.9,5.7a4.8,4.8,0,0,1,.5,1.2c-.4,2.4-1,4.7-1.5,7.2l-.2,1.1-1.7-.2-2.3-.2c-4.2,0-5.4,2.8-6.1,5.5l-.4,1.5a4.8,4.8,0,0,0-1.9-.7h-.8c-1.7,0-3.9.8-4.4,4.8,0,.3-.1.7-.1,1s0,.6-.1.9l-.5,3.4c-.3,1.6-.5,3.3-.8,5s-.3.8-.8.8H19.2A7.4,7.4,0,0,0,12.3,55C8.1,64.3,4,73.5.3,82.4a5.8,5.8,0,0,0,1.1,5.6,5.5,5.5,0,0,0,3.8,1.3l1.6-.2c1.6-.5,2.7-2.2,3.4-3.6s2.4-5.2,3.5-7.8l.5-1.2c1.5,1.1,1.6,2.4,1.2,3.9a14.2,14.2,0,0,0-.5,3c-.2,3.4,1.5,5.6,4.5,5.9h.7c2.8,0,4.8-1.9,5.3-5,.1-.8.2-1.5.2-2.3a20.4,20.4,0,0,1,.3-2.4c0,1.6,0,3.2,0,4.8A4.7,4.7,0,0,0,31,89.4,4.7,4.7,0,0,0,36,84.5c0-1,0-2,0-3h6.5c0,1,0,2,0,3a4.7,4.7,0,0,0,5,4.9h8.1c3.1,0,5.1-1.9,5.1-4.9s-1.9-4.8-5.1-4.9H53V78.1c0-3.8,0-7.4,0-11V67l.3-.7.3-.9a8.9,8.9,0,0,0,.8-2.9q0-.8,0-1.5l2.4.7a18.4,18.4,0,0,0,5.6,1.2,8.2,8.2,0,0,0,4.4-1.2l1.1,4a11,11,0,0,1,.7,3.5c-.2.4-1.5,1.3-2.8,2.1a5.7,5.7,0,0,0-2.9,6.6l.7,3.2c.3,1.5.6,3.1,1,4.6a5.1,5.1,0,0,0,5,4.1H71a5.1,5.1,0,0,0,4-6.3l-.9-4.1-.2-.7L76,77l1.8,2.2c2.2,2.7,4.3,5.2,6.5,7.7a5.9,5.9,0,0,0,4.4,2.2,5,5,0,0,0,3.9-2c1.8-2.2,1.5-4.8-.6-6.9s-6.7-7-7.7-12-1.7-7.4-2.7-11.1a13,13,0,0,0-1.9-4.3A8.9,8.9,0,0,0,72.5,49a10.7,10.7,0,0,0-6.6,2.5c-1.5,1.2-3,2.4-4.4,2.4.9-1.5,1-2.9.5-5.1l-.7-3.3c-.6-2.9-1.3-5.9-2.1-8.8s-.5-5.9.4-9.3l1.8,1.1a6,6,0,0,0,3.2,1,5.5,5.5,0,0,0,4-1.8l2.3-2.3,1.7-1.7a4.8,4.8,0,0,0,1.6-3.6,4.5,4.5,0,0,0-1.7-3.3,4.7,4.7,0,0,0-3.2-1.3,5,5,0,0,0-3.5,1.6l-2,2.1c-5-3.5-9.3-5.3-14-5.9a2.3,2.3,0,0,1-.6-.7c-1.3-2.4-2.6-5-3.8-7.5l-.2-.5c-.4-.9-1.7-3.4-4.5-3.4Zm-.9,42.9.9-3.9.2-.8L45,40l3.7.4v.5l.6,2.5h-.5l-1.2.2a5.5,5.5,0,0,0-2.2,2,8.3,8.3,0,0,0-4.6-1.6Zm-4.1,13-.3-.2-.2-.3.5.5ZM22.1,69.9a2.9,2.9,0,0,1,.3-.8l4.3-8.8a9.7,9.7,0,0,0,2.8,3.2A14.2,14.2,0,0,1,31.2,65a15.5,15.5,0,0,0,2.4,2.2c1.5,1,1.6,2.1,1.4,4.1H31.4c-2.8,0-4.6,1.3-5.2,3.6a8.3,8.3,0,0,0-3.7-4.8l-.3-.2Z"/><path class="cls-1" d="M15.4,38.8a6.2,6.2,0,0,1,6.1,5.8,6.1,6.1,0,0,1-5.9,6h-.2a6.2,6.2,0,0,1-6.1-5.8,6.2,6.2,0,0,1,6-5.9h.1m0-1.8h-.2a8.1,8.1,0,0,0-7.8,7.7,8,8,0,0,0,7.9,7.6h.3a7.9,7.9,0,0,0,7.6-7.9A8,8,0,0,0,15.4,37Z"/><path class="cls-1" d="M68.7,37.7h.1a6,6,0,0,1,6,5.8,6,6,0,0,1-6.1,5.8h0a5.8,5.8,0,1,1,0-11.6m0-1.8A8,8,0,0,0,63,38.2a7.5,7.5,0,0,0-2.1,5.4,7.7,7.7,0,0,0,7.8,7.5,7.8,7.8,0,0,0,7.9-7.5,7.8,7.8,0,0,0-7.8-7.7Z"/><path class="cls-1" d="M55.7,1.8a5.5,5.5,0,0,1,5.8,5.6A5.7,5.7,0,0,1,55.7,13h-.1a5.8,5.8,0,0,1-5.7-5.8,5.6,5.6,0,0,1,5.8-5.4h0m0-1.8h-.1A7.4,7.4,0,0,0,48,7.2a7.3,7.3,0,0,0,2.1,5.3,7.7,7.7,0,0,0,5.4,2.3h.1a7.4,7.4,0,0,0,7.6-7.4,7.2,7.2,0,0,0-2.1-5.2A7.7,7.7,0,0,0,55.7,0Z"/></g></g></svg>