<svg xmlns="http://www.w3.org/2000/svg" viewBox="0 0 445.2 445.1"><defs><style>.cls-1{fill:#fff;fill-rule:evenodd;}</style></defs><title>Ресурс 1</title><g id="Слой_2" data-name="Слой 2"><g id="Слой_1-2" data-name="Слой 1"><path class="cls-1" d="M222.4,0C344.5-.6,445.2,100,445.2,222.6S346,444.5,222.8,445.1-.1,345.2,0,222.6,99.4.6,222.4,0ZM186.1,221.6V358.4h56.8V221.5h38.4l4.9-48.1H242.8c0-10.6-.3-20.6.1-30.6.3-7.3,4.7-11,12-11.3,2.7-.1,5.3,0,8,0h22.4V84.6c-15.9,0-31.5-.2-47.1,0-26.2.4-46.4,17-50.4,42.9-2,13.1-1.3,26.5-1.8,39.8-.1,1.9-.2,3.8-.4,6.2H159v48Z"/></g></g></svg>