<svg xmlns="http://www.w3.org/2000/svg" viewBox="0 0 72.8 59.1"><defs><style>.cls-1{fill:#fff;}</style></defs><title>bag-white</title><g id="Слой_2" data-name="Слой 2"><g id="Слой_2-2" data-name="Слой 2"><path class="cls-1" d="M17.9,10.5V58.8h37V10.6Z"/><path class="cls-1" d="M72.8,48q0-15.8,0-31.6a5.5,5.5,0,0,0-5.2-5.8c-2.1-.1-4.3,0-6.5,0V59.1H68l1-.3A5.8,5.8,0,0,0,72.8,53c0-1.7,0-3.3,0-5"/><path class="cls-1" d="M5.7,10.5a6.5,6.5,0,0,0-2.5.6A5.5,5.5,0,0,0,0,16.5C0,28.7,0,40.9,0,53.1A9.9,9.9,0,0,0,.2,55a5.8,5.8,0,0,0,4.7,4h6.6V10.5H5.7"/><path class="cls-1" d="M26.4,8.3V3.5h20V8.3h4c0-1.5-.1-2.9,0-4.4s-1.4-4-4.2-4H26.4C24,0,22.6,1.3,22.5,2.8s0,3.7,0,5.6Z"/></g></g></svg>