<svg xmlns="http://www.w3.org/2000/svg" viewBox="0 0 83.5 85.9"><defs><style>.cls-1{fill:#fff;}</style></defs><title>cake</title><g id="Слой_2" data-name="Слой 2"><g id="Слой_2-2" data-name="Слой 2"><path class="cls-1" d="M81.7,75.2v8.9H1.8V75.2H81.7m0-1.8H1.8A1.8,1.8,0,0,0,0,75.2v8.9a1.8,1.8,0,0,0,1.8,1.8H81.7a1.8,1.8,0,0,0,1.8-1.8V75.2a1.8,1.8,0,0,0-1.8-1.8Z"/><path class="cls-1" d="M2.8,75.2H1v-17a.9.9,0,0,1,.9-.9h8.6V45.2a.9.9,0,0,1,.9-.9H20c0-1.3,0-2.6,0-3.8V38.1a.9.9,0,0,1,.9-.9h.9q0-1.9,0-3.9c0-3.3,0-6.8,0-10.2a4.8,4.8,0,0,1,1.7-3.8h.2c1-.9,1.6-1.3,2.7-.1l.4.4a5.4,5.4,0,0,1,1.6,4.3c-.1,3.2-.1,6.5,0,9.7q0,1.9,0,3.8H39q0-3.4,0-6.8c0-4.5,0-9.1,0-13.7a4.9,4.9,0,0,1,1.6-3.7c.6-.6,1-1,1.6-1h0c.6,0,1,.4,1.5.9l.2.2a5.5,5.5,0,0,1,1.6,4.3c0,4.8,0,9.7,0,14.4v5.3H55.7c0-1.6,0-3.3,0-4.9s0-6.1,0-9.1a4.6,4.6,0,0,1,1.7-3.8l.4-.4a1.7,1.7,0,0,1,1.3-.7c.6,0,1,.4,1.6,1.1l.2.3.7.9a3.4,3.4,0,0,1,.6,1.7c0,4,0,8,0,12.1v2.8h1a.9.9,0,0,1,.9.9v6.2h8a1.6,1.6,0,0,1,1.2.4,1.6,1.6,0,0,1,.4,1.2c0,3.7,0,7.4,0,11.1v.3h8a.9.9,0,0,1,.9.8v.2c0,.2,0,.4,0,.6v3.6q0,2.5,0,5.1a5,5,0,0,1-1.8,3.6,1.5,1.5,0,0,1-1.3.5,1.6,1.6,0,0,1-1.2-.8l-.8-1.5-.3-.6-.6-1.2a23.8,23.8,0,0,0-1.4-2.5,2.6,2.6,0,0,0-1.7-1.3,2.1,2.1,0,0,0-1.7.6,5.7,5.7,0,0,0-1.2,1.5l-1,2-.7,1.5a8.5,8.5,0,0,1-1,1.6,1.8,1.8,0,0,1-2.7.3,7,7,0,0,1-1.8-2.6l-.4-.8-.4-.7a12.2,12.2,0,0,0-1.4-2.3,2.6,2.6,0,0,0-1.9-1.1,2.7,2.7,0,0,0-1.8,1.3,15,15,0,0,0-1.3,2.2l-.7,1.3a24.2,24.2,0,0,1-1.4,2.3,1.8,1.8,0,0,1-1.4.8,1.7,1.7,0,0,1-1.4-.7,20.7,20.7,0,0,1-1.8-2.6l-.8-1.5a17,17,0,0,0-1.4-2.3,2.2,2.2,0,0,0-1.5-1,2.4,2.4,0,0,0-1.9.9,10.9,10.9,0,0,0-2,3.4,18.4,18.4,0,0,1-1.5,2.7,1.8,1.8,0,0,1-1.3.9,2,2,0,0,1-1.6-.6,8.1,8.1,0,0,1-1.8-2.7l-.5-1a16.7,16.7,0,0,0-1.9-2.9,1.9,1.9,0,0,0-1.4-.7,2.3,2.3,0,0,0-1.6.7,10.3,10.3,0,0,0-2,3.2,22.9,22.9,0,0,1-1.7,3.1,1.9,1.9,0,0,1-1.5,1,1.8,1.8,0,0,1-1.5-.8,18.1,18.1,0,0,1-1.5-2.3l-.4-.6-.7-1.2a14.3,14.3,0,0,0-1.2-2,2.4,2.4,0,0,0-1.8-1.1h0a2.7,2.7,0,0,0-2,1.3,13.6,13.6,0,0,0-1.3,2.2l-.6,1.2-.3.5-1.1,1.9a1.9,1.9,0,0,1-1.5.9,1.9,1.9,0,0,1-1.5-.8,18.5,18.5,0,0,1-1.6-2.4L7.4,67a19.5,19.5,0,0,0-1.3-2.2,2.5,2.5,0,0,0-1.6-1.1,2.3,2.3,0,0,0-1.7.7ZM4.3,61.8h.4a4.2,4.2,0,0,1,2.9,1.9A21.2,21.2,0,0,1,9,66.1l.7,1.4a16.8,16.8,0,0,0,1.4,2.2h.1l1-1.7.3-.5.6-1.1a15.2,15.2,0,0,1,1.5-2.5,4.4,4.4,0,0,1,3.4-2,4.1,4.1,0,0,1,3.2,1.8,16,16,0,0,1,1.4,2.3l.6,1.1.4.7a16.5,16.5,0,0,0,1.3,2h.1a21.2,21.2,0,0,0,1.5-2.8,11.9,11.9,0,0,1,2.4-3.7,4,4,0,0,1,3-1.2,3.7,3.7,0,0,1,2.6,1.3,18.1,18.1,0,0,1,2.1,3.2l.6,1.1a6.7,6.7,0,0,0,1.3,2.1h.2a16.7,16.7,0,0,0,1.4-2.4,12.6,12.6,0,0,1,2.4-4,4.2,4.2,0,0,1,3.3-1.4,3.9,3.9,0,0,1,2.8,1.7A18.6,18.6,0,0,1,50.3,66l.8,1.4a19.9,19.9,0,0,0,1.6,2.3,21.1,21.1,0,0,0,1.3-2.1l.6-1.3A16.5,16.5,0,0,1,56,63.8a4.2,4.2,0,0,1,3.2-2,4.1,4.1,0,0,1,3.3,1.7,13.7,13.7,0,0,1,1.7,2.6l.4.7.4.8a5.5,5.5,0,0,0,1.3,2h.1l.8-1.2L68,67l1-2.1a7.5,7.5,0,0,1,1.6-2,3.9,3.9,0,0,1,3.1-1,4.4,4.4,0,0,1,3,2.1,25.5,25.5,0,0,1,1.5,2.7l.6,1.2.3.6.6,1.1a2.9,2.9,0,0,0,1-2q0-2.5,0-5.1V59.1H73.5a1.6,1.6,0,0,1-1.3-.3,1.7,1.7,0,0,1-.4-1.3V57c0-3.6,0-7.3,0-10.9H63.1a.9.9,0,0,1-.9-.9V39h-.1a1.8,1.8,0,0,1-1.4-.4,1.8,1.8,0,0,1-.4-1.4V34.3c0-4,0-8,0-12a1.8,1.8,0,0,0-.3-.8l-.5-.6-.3-.3-.3-.3-.4.4a2.9,2.9,0,0,0-1.1,2.4c.1,3.1.1,6.2,0,9.2s0,3.4,0,5.1A1.4,1.4,0,0,1,55.9,39H44.5a.9.9,0,0,1-.9-.9V31.9c0-4.7,0-9.6,0-14.4a3.7,3.7,0,0,0-1.1-3l-.2-.2-.2-.2-.3.3a3.1,3.1,0,0,0-1.1,2.4c.1,4.6.1,9.2,0,13.7q0,3.5,0,6.9a1.7,1.7,0,0,1-.4,1.2,1.6,1.6,0,0,1-1.2.4H27.4a.9.9,0,0,1-.9-.9v-.9q0-1.9,0-3.8c0-3.2,0-6.5,0-9.8a3.6,3.6,0,0,0-1.1-3l-.4-.4-.2.2h-.2A3,3,0,0,0,23.6,23c.1,3.4.1,6.9,0,10.2q0,1.9,0,3.9v1a.9.9,0,0,1-.9.9h-.9v1.5c0,1.3,0,2.7,0,4a1.6,1.6,0,0,1-.4,1.2,1.6,1.6,0,0,1-1.2.4H12.2V58.2a.9.9,0,0,1-.9.9H2.8v3.1A3.7,3.7,0,0,1,4.3,61.8Z"/><path class="cls-1" d="M41.2,9.7A3.1,3.1,0,0,1,41,9a7.2,7.2,0,0,1,.1-1.8,1.7,1.7,0,0,1,1.6-1.1,1.5,1.5,0,0,1,1.2,1.6c0,.3,0,.6-.1,1.1.9-1.2,1.7-2.4,1.1-3.9a5.7,5.7,0,0,0-1-1.9c-1-1.1-2.1-2-3.1-3a.9.9,0,0,0-.2.6,6.2,6.2,0,0,1-1.1,3.7,4,4,0,0,0,1.7,5.5"/><path class="cls-1" d="M23.7,16.9a3.1,3.1,0,0,1-.2-.7,7.2,7.2,0,0,1,.1-1.8,1.7,1.7,0,0,1,1.6-1.1,1.5,1.5,0,0,1,1.2,1.6c0,.3,0,.6-.1,1.1.9-1.2,1.7-2.4,1.1-3.9a5.7,5.7,0,0,0-1-1.9c-1-1.1-2.1-2-3.1-3a.9.9,0,0,0-.2.6A6.2,6.2,0,0,1,22,11.4a4,4,0,0,0,1.7,5.5"/><path class="cls-1" d="M57.4,16.1a3.1,3.1,0,0,1-.2-.7,7.2,7.2,0,0,1,.1-1.8,1.7,1.7,0,0,1,1.6-1.1A1.5,1.5,0,0,1,60,14c0,.3,0,.6-.1,1.1.9-1.2,1.7-2.4,1.1-3.9a5.7,5.7,0,0,0-1-1.9c-1-1.1-2.1-2-3.1-3a.9.9,0,0,0-.2.6,6.2,6.2,0,0,1-1.1,3.7,4,4,0,0,0,1.7,5.5"/><rect class="cls-1" x="80.8" y="67.5" width="1.8" height="7.03"/></g></g></svg>