<svg xmlns="http://www.w3.org/2000/svg" xmlns:xlink="http://www.w3.org/1999/xlink" viewBox="0 0 535 224.7"><defs><style>.cls-1{fill:none;}.cls-2{clip-path:url(#clip-path);}.cls-3{fill:#fff;}.cls-4{fill:#3b4751;}</style><clipPath id="clip-path" transform="translate(0 0)"><rect class="cls-1" width="535" height="224.7"/></clipPath></defs><title>infinity</title><g id="Слой_2" data-name="Слой 2"><g id="Слой_1-2" data-name="Слой 1"><g class="cls-2"><path class="cls-3" d="M119.7,40.1c25.5,0,47.5,10.4,66.9,25.3s35.2,31.3,52.8,47c-15.8,15.7-33.4,33.1-52.8,47-21.1,14.8-43.1,24.4-68.6,24.4H117c-21.1,0-39.6-7-52.8-20S44,133.3,44,113.2v-.9A71.6,71.6,0,0,1,65.1,61.8c13.2-13.1,32.6-21.8,54.6-21.8M415.3,183.8c-25.5,0-46.7-10.5-66.9-25.3-18.5-14-35.2-31.4-52.8-46.2,15.8-15.7,33.4-33.1,52.8-47,21.1-14.8,44-25.3,69.5-25.3,21.1,0,39.6,7.8,52.8,20.9S491,91.5,491,112.4c0,19.2-7.9,36.6-21.1,50.5s-32.6,20.9-53.7,20.9ZM502.5,31.3C482.2,11.3,453.2,0,420.6,0h-.9c-33.4,0-61.6,11.3-87.1,28.7-23.8,15.7-44.9,36.6-65.1,55.7-19.4-17.4-39.6-38.3-62.5-54C181.3,13.1,154,0,121.4,0A127.3,127.3,0,0,0,35.2,33.1C14.1,53.1,0,81.9,0,112.4c0,33.1,12.3,61,32.5,81s49.3,31.3,82.7,31.3,61.6-12.2,87.1-28.7c23.8-16.6,44.9-37.5,65.1-56.6,19.4,18.3,39.6,38.3,62.5,54.9s51,30.5,82.7,30.5h.9a128.9,128.9,0,0,0,86.2-33.1c22-20.9,35.2-48.8,35.2-79.3,0-33.1-12.3-61.9-32.5-81" transform="translate(0 0)"/><path class="cls-4" d="M71.7,199.2a6.5,6.5,0,0,0-.7,1l-1.2,5.7,3.4.7v-.3l1.1-5a5,5,0,0,1,1.2-2.4l.2-.2a3.4,3.4,0,0,0-4,.6" transform="translate(0 0)"/><path class="cls-4" d="M105.8,206a3.5,3.5,0,0,0-3.2-1.6h0a5.5,5.5,0,0,1,.1,3.2l-1,4.7v.3l3.4.7,1.2-5.7a3.6,3.6,0,0,0-.5-1.8" transform="translate(0 0)"/><path class="cls-4" d="M95.7,203a6.6,6.6,0,0,0-3.8-5.2,7.4,7.4,0,0,0-4.4-.7,6.8,6.8,0,0,0-3.9,1.8,5.8,5.8,0,0,0-1.8,3.1l-2.2,10.5v.3l13.8,2.9v-.3L95.6,205a5.9,5.9,0,0,0,.1-2" transform="translate(0 0)"/><path class="cls-4" d="M101.5,204.6a5.1,5.1,0,0,0-5-3h0a7.5,7.5,0,0,1,.1,3.9L95,213.2v.3l5.2,1.1v-.2l1.6-7.3a4.2,4.2,0,0,0-.2-2.5" transform="translate(0 0)"/><path class="cls-4" d="M78.5,198.2a4.2,4.2,0,0,0-3.1,3.3l-1.5,7.2v.3l5.2,1.1v-.3l1.7-8a6.4,6.4,0,0,1,1-2.4l.6-.8a5.1,5.1,0,0,0-3.9-.4" transform="translate(0 0)"/><path class="cls-4" d="M90.3,196.1a4,4,0,1,0-3.5-4.9,4.3,4.3,0,0,0,3.5,4.9" transform="translate(0 0)"/><path class="cls-4" d="M98.1,200.6a2.7,2.7,0,1,0-2.3-3.3,2.9,2.9,0,0,0,2.3,3.3" transform="translate(0 0)"/><path class="cls-4" d="M81.3,197.1a2.7,2.7,0,1,0,1.2-5.3,2.9,2.9,0,0,0-3.5,2,2.9,2.9,0,0,0,2.4,3.3" transform="translate(0 0)"/><path class="cls-4" d="M75,197.3a2,2,0,0,0,2.4-1.4,2.1,2.1,0,0,0-4-.9,2,2,0,0,0,1.6,2.2" transform="translate(0 0)"/><path class="cls-4" d="M103.7,203.4a2,2,0,0,0,2.4-1.3,2.1,2.1,0,0,0-4-.9,2,2,0,0,0,1.6,2.2" transform="translate(0 0)"/><path class="cls-4" d="M450.1,30.3a6.5,6.5,0,0,0-.8.9l-2,5.5,3.2,1.2v-.3l1.7-4.8a5,5,0,0,1,1.5-2.3l.2-.2a3.4,3.4,0,0,0-4.1,0" transform="translate(0 0)"/><path class="cls-4" d="M482.9,41.7a3.5,3.5,0,0,0-2.9-2,1.1,1.1,0,0,0,0,.2,5.5,5.5,0,0,1-.3,3.1L478,47.5v.3l3.2,1.2,2-5.5a3.6,3.6,0,0,0-.2-1.8" transform="translate(0 0)"/><path class="cls-4" d="M473.4,37.4a6.6,6.6,0,0,0-3.1-5.7,7.4,7.4,0,0,0-4.3-1.3,6.8,6.8,0,0,0-4.1,1.2,5.8,5.8,0,0,0-2.2,2.9l-3.7,10.1v.3l13.2,4.8v-.3l3.6-10a6,6,0,0,0,.4-2" transform="translate(0 0)"/><path class="cls-4" d="M478.9,39.7a5.1,5.1,0,0,0-4.5-3.6h0a7.5,7.5,0,0,1-.5,3.9l-2.6,7.2v.3l5,1.8v-.2l2.6-7.1a4.2,4.2,0,0,0,.1-2.5" transform="translate(0 0)"/><path class="cls-4" d="M457,30.2a4.2,4.2,0,0,0-3.5,2.9L451,40v.3l5,1.8v-.3l2.8-7.7a6.4,6.4,0,0,1,1.3-2.2l.7-.7a5.1,5.1,0,0,0-3.8-.9" transform="translate(0 0)"/><path class="cls-4" d="M469,29.8a4.3,4.3,0,0,0,5.6-2.2,4.5,4.5,0,0,0-8.4-3.1,4.3,4.3,0,0,0,2.8,5.3" transform="translate(0 0)"/><path class="cls-4" d="M476.1,35.4a2.7,2.7,0,1,0-1.9-3.6,2.9,2.9,0,0,0,1.9,3.6" transform="translate(0 0)"/><path class="cls-4" d="M459.9,29.5a2.9,2.9,0,0,0,3.8-1.5,2.9,2.9,0,0,0-1.9-3.6,2.9,2.9,0,0,0-3.8,1.5,2.9,2.9,0,0,0,1.9,3.6" transform="translate(0 0)"/><path class="cls-4" d="M453.7,28.9a2,2,0,0,0,2.5-1,2.1,2.1,0,0,0-3.8-1.4,2,2,0,0,0,1.3,2.4" transform="translate(0 0)"/><path class="cls-4" d="M481.3,38.9a2,2,0,0,0,2.5-1,2.1,2.1,0,0,0-3.8-1.4,2,2,0,0,0,1.3,2.4" transform="translate(0 0)"/><path class="cls-4" d="M461,193.8l-.3.6-1.6-.9a.5.5,0,0,1-.2-.3l-.8-4.7v-.2h.5l.5-.2c.8,1.5,1.6,2.9,2.2,4.4s-.2,1-.4,1.5m-2.8-7.3c.5-.1.9.1.9.6s-.3.5-.5.8-.8-.3-.8-.4-.3-.9.4-1m10-11.3a1.2,1.2,0,0,0-1.6.4l-.3.4-5.7,8.3a1.5,1.5,0,0,1-.7.5l-4,1.3h-.8l-5.9-2.1-4-1.4a1.2,1.2,0,0,0-1.6.6,1,1,0,0,0,.6,1.4l.6.2,9.2,3.3a1.1,1.1,0,0,1,.6.6l2.2,6.7,3,9.2,1.1,3.3a1.7,1.7,0,0,0,2.5,1,1.7,1.7,0,0,0,.8-2.2L461,196.4v-.5l.6-.2.3.8,2.8,8.6.5,1.6a1.6,1.6,0,0,0,2.1.9,1.7,1.7,0,0,0,1.1-2.2l-6.1-18.9a.9.9,0,0,1,.1-.9l2.8-4.1,3.3-4.9a.9.9,0,0,0-.3-1.4" transform="translate(0 0)"/><path class="cls-4" d="M457.6,184.8a2.9,2.9,0,1,0-3.9-1.8,3,3,0,0,0,3.9,1.8" transform="translate(0 0)"/><path class="cls-4" d="M82.8,28.5l-.3.6-1.5-.9a.5.5,0,0,1-.2-.3L80,23.1v-.2h.5l.5-.2c.8,1.5,1.6,2.9,2.2,4.4s-.2,1-.4,1.5M80,21.2c.5-.1.9.1.9.6s-.3.5-.5.8-.8-.3-.8-.4-.3-.9.4-1M90,9.9a1.2,1.2,0,0,0-1.6.4l-.3.4L82.5,19a1.5,1.5,0,0,1-.7.5l-4,1.3h-.8l-5.9-2.1-4-1.4a1.2,1.2,0,0,0-1.6.6,1,1,0,0,0,.6,1.4l.6.2L76,22.7a1.1,1.1,0,0,1,.6.6L78.8,30l3,9.2,1.1,3.3a1.7,1.7,0,0,0,2.5,1,1.7,1.7,0,0,0,.8-2.2L82.9,31.1v-.5l.6-.2.3.8,2.8,8.6.5,1.6a1.6,1.6,0,0,0,2.1.9,1.7,1.7,0,0,0,1.1-2.2L84,21.3a.9.9,0,0,1,.1-.9L87,16.2l3.3-4.9A.9.9,0,0,0,90,9.9" transform="translate(0 0)"/><path class="cls-4" d="M79.4,19.5a3,3,0,0,0,2.1-3.7,3.2,3.2,0,0,0-6.1,2,3.1,3.1,0,0,0,3.9,1.8" transform="translate(0 0)"/><path class="cls-4" d="M154.4,200.1a3.9,3.9,0,0,1-4.2-3.6,3.9,3.9,0,1,1,4.2,3.6m7.4-11.7-1.5-1.3a1.2,1.2,0,0,0-1.6,0l-.8.8a8.5,8.5,0,0,0-2.2-.7l-.2-1.2a1.2,1.2,0,0,0-1.3-1l-2,.2a1.2,1.2,0,0,0-1.1,1.2v1.2a8.6,8.6,0,0,0-2.1,1.1l-1-.7a1.2,1.2,0,0,0-1.6.2l-1.3,1.6a1.2,1.2,0,0,0,0,1.6l.9,1a9.4,9.4,0,0,0-.6,2.2l-1.2.3a1.2,1.2,0,0,0-1,1.3l.2,2a1.2,1.2,0,0,0,1.2,1.1h1.3a9.2,9.2,0,0,0,1,1.9l-.8,1.2a1.3,1.3,0,0,0,.2,1.6l1.5,1.3a1.2,1.2,0,0,0,1.6,0l1-.9,2,.7.3,1.4a1.2,1.2,0,0,0,1.3,1l2-.2a1.2,1.2,0,0,0,1.1-1.2v-1.4a9,9,0,0,0,2-1.1l1.1.7a1.2,1.2,0,0,0,1.6-.2l1.3-1.6a1.3,1.3,0,0,0,0-1.6l-.9-1a9,9,0,0,0,.7-2.2l1.2-.3a1.2,1.2,0,0,0,1-1.3l-.2-2a1.2,1.2,0,0,0-1.2-1.1h-1.2a9,9,0,0,0-1-2l.7-1a1.2,1.2,0,0,0-.2-1.6" transform="translate(0 0)"/><path class="cls-4" d="M137.8,204.1a3.2,3.2,0,1,1-3.2,3.2,3.2,3.2,0,0,1,3.2-3.2m-7.8,1.4a1.2,1.2,0,0,0-1.1,1.2V208a1.2,1.2,0,0,0,1,1.2h.9a7.2,7.2,0,0,0,.6,1.6l-.6.7a1.3,1.3,0,0,0,.1,1.6l.9.9a1.2,1.2,0,0,0,1.6.1l.7-.6,1.6.7v.9a1.2,1.2,0,0,0,1.2,1.1h1.2a1.2,1.2,0,0,0,1.2-1.1v-.9l1.7-.7.7.6a1.2,1.2,0,0,0,1.6-.1l.9-.9a1.3,1.3,0,0,0,.1-1.6l-.5-.7a7.3,7.3,0,0,0,.7-1.7h.8a1.2,1.2,0,0,0,1.1-1.2v-1.2a1.2,1.2,0,0,0-1-1.2h-.8a7.5,7.5,0,0,0-.7-1.7l.5-.6a1.3,1.3,0,0,0-.1-1.6l-.9-.9a1.2,1.2,0,0,0-1.6-.1l-.6.5-1.7-.8v-.8a1.2,1.2,0,0,0-1.2-1.1h-1.2a1.2,1.2,0,0,0-1.2,1.1v.8l-1.8.8-.6-.5a1.2,1.2,0,0,0-1.6.1l-.9.9a1.3,1.3,0,0,0-.1,1.6l.5.7a7.2,7.2,0,0,0-.7,1.7Z" transform="translate(0 0)"/><path class="cls-4" d="M426.5,202.6a3.9,3.9,0,0,1-4.2-3.6,3.9,3.9,0,1,1,4.2,3.6m7.4-11.7-1.5-1.3a1.2,1.2,0,0,0-1.6,0l-.8.8a8.5,8.5,0,0,0-2.2-.7l-.2-1.2a1.2,1.2,0,0,0-1.3-1l-2,.2a1.2,1.2,0,0,0-1.1,1.2v1.2a8.6,8.6,0,0,0-2.1,1.1l-1-.7a1.2,1.2,0,0,0-1.6.2l-1.3,1.6a1.2,1.2,0,0,0,0,1.6l.9,1a9.4,9.4,0,0,0-.6,2.2l-1.2.3a1.2,1.2,0,0,0-1,1.3l.2,2a1.2,1.2,0,0,0,1.2,1.1h1.4a9.2,9.2,0,0,0,1,1.9l-.8,1.2a1.3,1.3,0,0,0,.2,1.6l1.5,1.3a1.2,1.2,0,0,0,1.6,0l1-.9,2,.7.3,1.4a1.2,1.2,0,0,0,1.3,1l2-.2a1.2,1.2,0,0,0,1.1-1.2v-1.4a9,9,0,0,0,2-1.1l1.1.7a1.2,1.2,0,0,0,1.6-.2l1.3-1.6a1.3,1.3,0,0,0,0-1.6l-.9-1a9,9,0,0,0,.7-2.2l1.2-.3a1.2,1.2,0,0,0,1-1.3l-.2-2a1.2,1.2,0,0,0-1.2-1.1h-1.2a9,9,0,0,0-1-2l.7-1a1.2,1.2,0,0,0-.2-1.6" transform="translate(0 0)"/><path class="cls-4" d="M409.9,206.7a3.2,3.2,0,1,1-3.2,3.2,3.2,3.2,0,0,1,3.2-3.2m-7.8,1.4a1.2,1.2,0,0,0-1.1,1.2v1.2a1.2,1.2,0,0,0,1,1.2h.9a7.2,7.2,0,0,0,.6,1.6l-.6.7a1.3,1.3,0,0,0,.1,1.6l.9.9a1.2,1.2,0,0,0,1.6.1l.7-.6,1.6.7v.9a1.2,1.2,0,0,0,1.2,1.1h1.2a1.2,1.2,0,0,0,1.2-1.1v-.9l1.7-.7.7.6a1.2,1.2,0,0,0,1.6-.1l.9-.9a1.3,1.3,0,0,0,.1-1.6l-.5-.7a7.3,7.3,0,0,0,.7-1.7h.8a1.2,1.2,0,0,0,1.1-1.2v-1.2a1.2,1.2,0,0,0-1-1.2h-.8a7.5,7.5,0,0,0-.7-1.7l.5-.6a1.3,1.3,0,0,0-.1-1.6l-.9-.9a1.2,1.2,0,0,0-1.6-.1l-.6.5-1.7-.8V202a1.2,1.2,0,0,0-1.2-1.1h-1.2a1.2,1.2,0,0,0-1.2,1.1v.8l-1.8.8-.6-.5a1.2,1.2,0,0,0-1.6.1l-.9.9a1.3,1.3,0,0,0-.1,1.6l.5.7a7.2,7.2,0,0,0-.7,1.7Z" transform="translate(0 0)"/><path class="cls-4" d="M285,109.6c-2.2-2.9-5.4-4-8.8-4.7l-.4,1.9,3.1.9a8.7,8.7,0,0,1,5.2,4,5.3,5.3,0,0,1,.6,3.4l-3.6-.5v.2l2.7,1a.5.5,0,0,1,.4.8,2.7,2.7,0,0,1-1.7,2.2,13.3,13.3,0,0,1-2.6.4c-.6.1-.9-.2-1.1-.8a3.7,3.7,0,0,0-1-1.4,4.2,4.2,0,0,0-3.1-1.1v.9l1.2.3c2.1.7,2.6,2.9,2.3,5s-1.5,2.3-3.2,2.2l-4.4-.3a4.4,4.4,0,0,0-3.6-4.2v.9l.9.4a3.4,3.4,0,0,1,1.9,3.8c-.2,1.3-1.4,1.6-2.5,1.9h-.4a4.3,4.3,0,0,1-3.2-.6,7,7,0,0,1-1.2-1.8,5.3,5.3,0,0,1-1.3-.4,4,4,0,0,1-2.1-4.1c.1-1.2.4-2.5.7-3.7a.7.7,0,0,1,1.1-.4l.8.9a3.9,3.9,0,0,1,.4,3l.9.2c.5-2.1,0-3.9-1.9-5.1a.6.6,0,0,1-.2-.5,10.5,10.5,0,0,1,4.2-5.5c1.3,1.1,1.5,2.6.4,4.6l.3.3.4.4a4.6,4.6,0,0,0-.2-5.9l2.2-.9-1.2-1.4h-.6a12.6,12.6,0,0,0-7.5,7.8,1.4,1.4,0,0,1-.3.6,3,3,0,0,0-1,2c-.1.7-.2,1.3-.4,2-.8,3.5.3,6.4,3.4,8l.4.4a4.3,4.3,0,0,0,3,2.2c.5.1.7.4.4.8l-1.4,2.2a11.5,11.5,0,0,0,4.5-2.6,1.6,1.6,0,0,1,.5-.5,5.2,5.2,0,0,0,3.4-2.5,38.9,38.9,0,0,0,4,.1,4.8,4.8,0,0,0,4.5-2.9,15.3,15.3,0,0,0,.5-2h1.2a4.4,4.4,0,0,0,3.6-2.1,11.9,11.9,0,0,0,1.4-3.9,7.2,7.2,0,0,0-1.6-5.6" transform="translate(0 0)"/><path class="cls-4" d="M267.6,99.3h.4c.4.1.9.2,1-.4s0-.7.4-.7.4.4.6.5l.5-.8.6.5.5-.8.7.5.4-.3a1.7,1.7,0,0,1,.1.6c-.2,1.5-.4,3-.6,4.6a5.5,5.5,0,0,0,.2,1.4l.2.9c-.7-.2-1-1.5-.8-3l.4-3.3c-.4.4,0,1.2-.7,1.1s-.4-.4-.6-.7.2,1-.5.9-.4-.4-.6-.7.2,1.3-.9.9c1,1.6,2.4,2.9,2.5,4.8l-.2.3-.2-.2c-.3-1.9-1.6-3.2-2.6-4.7l-.8-1.2a1.2,1.2,0,0,1-.1-.4m-2.6,2.2a16.9,16.9,0,0,0,1.8,2.7l3.8,4.7,4.2-1.1c.1-.9.2-1.7.3-2.5s.7-3.3,1-5a6,6,0,0,0-.8-4.4,5.9,5.9,0,0,0-7.8-1.9,5.7,5.7,0,0,0-2.5,7.6" transform="translate(0 0)"/><path class="cls-4" d="M269.6,92.4l-1.2-4.9c-.1-.4-.4-.9-.9-.7a1.1,1.1,0,0,0-.6.9c.3,1.7.8,3.3,1.2,5l1.5-.4" transform="translate(0 0)"/><path class="cls-4" d="M274.6,89c.3-.4.4-1-.2-1.3s-.9.1-1.1.5l-1.9,3.1-.7,1.1,1.6.3,2.2-3.7" transform="translate(0 0)"/><path class="cls-4" d="M265.6,94.4l1.2-1-4.4-2.6c-.4-.2-.9-.3-1.1.2a1.2,1.2,0,0,0,.3,1l3.9,2.4" transform="translate(0 0)"/><path class="cls-4" d="M275.3,94.6h.4l3.6-.9c.4-.1.8-.4.7-.9s-.6-.6-1-.5l-4.8,1.2,1.1,1" transform="translate(0 0)"/><path class="cls-4" d="M260,98.7l3.4-.8a.9.9,0,0,0,.5-.4,13.9,13.9,0,0,0,.5-1.3l-4.6,1.2c-.4.1-1,.3-.8.9s.6.7,1.1.6" transform="translate(0 0)"/><path class="cls-4" d="M273.7,112.7a2.4,2.4,0,0,0,1.7-2.1l-4.3,1.1a2.8,2.8,0,0,0,2.6,1" transform="translate(0 0)"/><path class="cls-4" d="M274.9,108.5l-4.3,1.1.2.7,4.3-1.1-.2-.7" transform="translate(0 0)"/><path class="cls-4" d="M274.9,109.7c-1.9.3-3.8.9-3.9,1.4l4.3-1.1v-.2l-.5-.2" transform="translate(0 0)"/><path class="cls-4" d="M28.6,99.4a1.5,1.5,0,0,1-.6-.8l-.6-2.4L25,97.8a1.8,1.8,0,0,0,1.8.4c.2,0,.6,0,.7.1a1.3,1.3,0,0,1,.1.9,1.9,1.9,0,0,1-1.3,1.3l-2.2.6a2.7,2.7,0,0,0-1.2.9,17.2,17.2,0,0,0-1.2,2.2,1.4,1.4,0,0,0-.1.5,7,7,0,0,1-.9,3.1,18.5,18.5,0,0,1-3.1,3.9,2.6,2.6,0,0,0-1,1.6,2.3,2.3,0,0,0,1,2.2,1.9,1.9,0,0,0,2.3-.3,17.9,17.9,0,0,0,3.7-4.4l.4-.6a16.7,16.7,0,0,0,1.3-2.9,10.1,10.1,0,0,0,.1-4.8,7.3,7.3,0,0,1,3.3,4.9,12,12,0,0,1-.4,5.7,2.1,2.1,0,0,0,1.4,2.6,1.9,1.9,0,0,0,2.5-1.5,31.6,31.6,0,0,0,.7-4.5,12.9,12.9,0,0,0-1.2-6.2,11.6,11.6,0,0,0-3.2-4.1" transform="translate(0 0)"/><path class="cls-4" d="M21.5,99.6a1.4,1.4,0,0,1-1.5-1.4,1.6,1.6,0,0,1,1.5-1.5A1.5,1.5,0,0,1,23,98.1a1.4,1.4,0,0,1-1.4,1.4M38.9,88.2l-1-1.8-13,8-.2-.4a1.8,1.8,0,0,0-1.6-1.3,1.8,1.8,0,0,0-2,.8A2.9,2.9,0,0,1,19.5,95l-2.2.5a4.9,4.9,0,0,0,.5.9l2.1,2.5a1.7,1.7,0,0,1,.5,1.6,1.6,1.6,0,0,1-2.7.8,12.9,12.9,0,0,1-3.2-4.5l-.2-.4a6.8,6.8,0,0,0-1.1,1.3,5.3,5.3,0,0,0-.2,3.9,9.4,9.4,0,0,0,2,3.2,3.6,3.6,0,0,0,3.3,1.3c2-.2,3.2-1.5,3.9-3.4a3,3,0,0,1,2.6-2.1,3.2,3.2,0,0,0,2.3-1.1,1.2,1.2,0,0,0,.3-.9c-.1-.4-.5-.1-.8-.1a4.9,4.9,0,0,1-1.5-.2c-.5-.2-.4-.6,0-.9l.9-.6,5.3-3.7c.9-.6,1.8-1.3,2.9-.8h.2a1.2,1.2,0,0,0,1.3-1,4.8,4.8,0,0,0,0-1.1l3.3-2" transform="translate(0 0)"/><path class="cls-4" d="M18.1,101.2a1.1,1.1,0,0,0,1.7-.3,1.3,1.3,0,0,0-.2-1.7l-1.5-1.7a5.1,5.1,0,0,1-1.3-2.6,4.1,4.1,0,0,1,.7-3.3c.3,1,.5,1.9.7,2.8s.4.7.8.5a8.3,8.3,0,0,0,1.7-1.4,2.4,2.4,0,0,1,2.8-.8,2.4,2.4,0,0,1,1.4,1.3l1.2-.8a.5.5,0,0,0,.3-.7c-.2-.8-.4-1.7-.6-2.5l3.4,1h.5l3.1-1.7-1.6-.5A35,35,0,0,1,25,86.6a2.5,2.5,0,0,0-1.5-.1l-3.6,1a10.1,10.1,0,0,0-2.4.8,6.5,6.5,0,0,0-3,3.9,7,7,0,0,0-.3,2.4c.3,2.8,1.9,4.9,3.9,6.6" transform="translate(0 0)"/><path class="cls-4" d="M19.8,86.2a3.7,3.7,0,0,0,3.6-3.7,3.5,3.5,0,0,0-3.5-3.7c-2.2.1-3.4,1.4-3.5,3.7a3.6,3.6,0,0,0,3.5,3.7" transform="translate(0 0)"/><path class="cls-4" d="M495.4,127.1a14.5,14.5,0,0,1,5-2.9,12.9,12.9,0,0,1,6.5-.4l3.7,1a8.6,8.6,0,0,0,.3-1.2c.2-1.5.4-3,.6-4.5s-.1-.5-.5-.7a20,20,0,0,1-3.2-1.6,5.6,5.6,0,0,1-2.2-3.5c-.3-1.5-.5-3-.7-4.6l-4.2-.4,1.3-5.7.8.3,7.7,3.4c.6.2.9.5.6,1.1a5,5,0,0,0-.2,1c-.2.9-.2.9-1.1.6s0-.4,0-.6a1.8,1.8,0,0,0-3.6-.3,27.8,27.8,0,0,0-.3,3.8,5.8,5.8,0,0,0,.7,3,7,7,0,0,0,4.4,3.2,15.5,15.5,0,0,0,3.7.4,1.8,1.8,0,0,0-.2-3.6h-1.7a2,2,0,0,1,2.7-.8,4.2,4.2,0,0,1,2.6,3.6,19.7,19.7,0,0,1-2,10.6,3.7,3.7,0,0,1-2.6,2.1,1,1,0,0,0-.5.6,17.7,17.7,0,0,0-.1,10.7,18.8,18.8,0,0,1,.6,3.2,1.8,1.8,0,0,1-.6,1.3,2.4,2.4,0,0,1-3.7-1.1,20.6,20.6,0,0,1-.6-2.4c-.3-2-.7-4-.9-6a18.6,18.6,0,0,1,.9-6.8c.1-.3.2-.5-.2-.8a8.9,8.9,0,0,0-9.3.8l-.9.8a2.3,2.3,0,0,1-3-.7,2.2,2.2,0,0,1,.2-2.9" transform="translate(0 0)"/><path class="cls-4" d="M511.8,109.1a4.1,4.1,0,1,1,4.1,4.1,4.1,4.1,0,0,1-4.1-4.1" transform="translate(0 0)"/><path class="cls-4" d="M512.2,114.9l2.4.3a1.4,1.4,0,0,1,1.4,1.6,1.3,1.3,0,0,1-1.5,1.4,8.5,8.5,0,0,1-2.2-.2,10.6,10.6,0,0,1-3.4-1.3,6.3,6.3,0,0,1-2.7-5.6c.1-.9.3-1.9.4-2.8a1.6,1.6,0,0,1,1.9-1.2,1.5,1.5,0,0,1,1,1.9c-.1.5-.2,1.1-.3,1.6a3.6,3.6,0,0,0,2.9,4.3" transform="translate(0 0)"/><path class="cls-4" d="M342.5,168.8a1.3,1.3,0,0,0-.3-.6l-4.1-5a6.5,6.5,0,0,0-1.2-1.2,3.4,3.4,0,0,0-3.5.2l-2.3,1.8a11.5,11.5,0,0,0-2.6,2.5,1.7,1.7,0,0,0-.3,1.8,1.8,1.8,0,0,0,2.8.4l1.3-1.1,1-.8,1.9,1.7a.8.8,0,0,1,.3.6l1.2,9.5c.1.6.2,1.3.2,2a1.2,1.2,0,0,1-.7,1.2,1,1,0,0,1-1.2-.4,1.7,1.7,0,0,1-.3-.7c-.1-.6-.2-1.3-.2-1.9l-.3-2.3c0-.4-.3-.5-.6-.4s-.3.3-.3.6.3,2.7.5,4.1a1.9,1.9,0,0,1-.1.8,1,1,0,0,1-1.5.5,2.1,2.1,0,0,1-.6-.9,3.5,3.5,0,0,1-.1-.8l-.4-3.5c-.1-.4-.3-.6-.6-.4s-.2.3-.2.5.3,2.6.5,4a2.4,2.4,0,0,1-.1.9,1,1,0,0,1-.8.7.9.9,0,0,1-1-.4,4.2,4.2,0,0,1-.4-1.2c-.2-1.2-.3-2.5-.5-3.7s-.3-.5-.6-.4a.4.4,0,0,0-.2.5l.3,2.5c.1.6.2,1.2.2,1.8a1.1,1.1,0,0,1-1.5,1.1,1.3,1.3,0,0,1-.7-1.1c-.1-.6-.1-1.2-.2-1.8a.4.4,0,0,1,.3-.5,1.8,1.8,0,0,0,.9-2.7l-.6-.6a1.9,1.9,0,0,0-.4-3,1.8,1.8,0,0,0-.4-3,1.8,1.8,0,0,0,.6-1.6,1.9,1.9,0,0,0-1.7-1.6c-.2,0-.3-.1-.3-.3l-.6-5c-.1-.5-.2-.6-.7-.5v.2l-9.5,12.2,7.5,5.9.5.4a3.5,3.5,0,0,0,2.1.1l1.6-.2c.1.8.1,1.4.3,2.1a3.1,3.1,0,0,0,.4,1.1,1.8,1.8,0,0,0,2.7.4l.5-.5a1.8,1.8,0,0,0,3-.4,1.9,1.9,0,0,0,1.6.6,1.9,1.9,0,0,0,1.4-1l.4.3a1.7,1.7,0,0,0,2.2-.2,2.2,2.2,0,0,0,.6-1.9l-.2-1.5h.4l5.2-.6c.4-.1.5-.1.4-.5l-1.1-8.8" transform="translate(0 0)"/><path class="cls-4" d="M348,167.9h-.1l-3.6.5c-.3,0-.4.1-.4.5l1.1,8.6c.1.5.1.5.5.4l3.6-.4h.1l4.1-5.3-5.3-4.1" transform="translate(0 0)"/><path class="cls-4" d="M51.7,47.2l-.6-.3-6.3-1.4a6.6,6.6,0,0,0-1.7-.3,3.4,3.4,0,0,0-2.6,2.4l-.7,2.9a11.4,11.4,0,0,0-.5,3.5,1.7,1.7,0,0,0,.9,1.6,1.8,1.8,0,0,0,2.5-1.4l.4-1.7.3-1.3,2.5.2a.8.8,0,0,1,.6.3l6.8,6.8,1.4,1.4a1.2,1.2,0,0,1,.2,1.4,1,1,0,0,1-1.1.4l-.7-.4-1.3-1.3-1.7-1.7c-.3-.3-.5-.3-.7,0s0,.4.1.6l2.9,2.9a1.9,1.9,0,0,1,.4.7,1,1,0,0,1-.9,1.4,2.2,2.2,0,0,1-1-.3l-.6-.6-2.5-2.5c-.3-.3-.6-.2-.7.1s0,.4.2.5L50,63.8a2.4,2.4,0,0,1,.5.8,1,1,0,0,1-.2,1.1.9.9,0,0,1-1,.2l-1.1-.7-2.6-2.6c-.3-.3-.6-.2-.7,0a.4.4,0,0,0,.1.6l1.8,1.8,1.3,1.3a1.1,1.1,0,0,1-.5,1.8,1.3,1.3,0,0,1-1.2-.4l-1.3-1.3a.4.4,0,0,1-.1-.5,1.8,1.8,0,0,0-1-2.7h-.9A1.9,1.9,0,0,0,41,60.9a1.8,1.8,0,0,0-2.1-2.1,1.9,1.9,0,0,0-.5-1.6,1.9,1.9,0,0,0-2.3-.2.3.3,0,0,1-.5-.1L32,53.3c-.4-.4-.6-.4-.9.1V69H41.4a3.5,3.5,0,0,0,1.7-1.1l1.1-1.2,1.5,1.5,1,.6a1.8,1.8,0,0,0,2.4-1.4,5.1,5.1,0,0,0,0-.7,1.9,1.9,0,0,0,1.6-.5,1.9,1.9,0,0,0,.5-1.6,1.9,1.9,0,0,0,1.7-.5,1.9,1.9,0,0,0,.5-1.6H54a1.7,1.7,0,0,0,1.6-1.5A2.2,2.2,0,0,0,55,59L53.9,58l.3-.2L57.9,54c.3-.3.3-.3,0-.7l-6.2-6.2" transform="translate(0 0)"/><path class="cls-4" d="M55.5,43h-.1l-2.6,2.6c-.2.2-.3.4,0,.6l6.2,6.2c.3.3.3.3.7,0l2.6-2.6h0V43Z" transform="translate(0 0)"/><path class="cls-4" d="M224.2,91.7c-1.2-.3-1.5-.8-1.3-1.9l4.3-20.3c.3-1.2.8-1.5,2-1.3l10.9,2.3h.6l-.4,2a3,3,0,0,0,2.4,3.6l2,.4L242.6,87h.1l1.7-1.1a1.1,1.1,0,0,0,.4-.6q1-4.8,2-9.6a1.2,1.2,0,0,0-.2-.8l-3.5-5.3a1.1,1.1,0,0,0-.8-.5l-12.8-2.7a3.3,3.3,0,0,0-4.1,2.6c-1.4,6.8-2.9,13.6-4.3,20.4a4.3,4.3,0,0,0-.1,1,3,3,0,0,0,2.4,2.8l10.7,2.3h.2l.5-1.7h-.6l-10-2.1" transform="translate(0 0)"/><path class="cls-4" d="M247,90.5,245.3,88c1.2-1,1.8-1,2.3-.3s1.2,1.9-.6,2.9m-2,.6-4,2.5-.4.2-.2-.3a.4.4,0,0,1,.1-.3l.7-.5,3.4-2.2c.2-.1.4-.3.6,0s-.1.4-.2.5m-5.3,1.4c.1-.2.1-.4.2-.5l4.1-2.6h.5c.1,0,.1.2.2.3l-.3.3-4,2.5h-.6M238,95.4l-.9-1.3.6-1.2,1.6,2.5H238m9.1-8.9a1.8,1.8,0,0,0-1.4.4l-6.8,4.3a5,5,0,0,0-2.4,2.7,9.8,9.8,0,0,1-.5,1.1c-.4.7,0,1.2.8,1.2h2.7l.6-.2,8.4-5.3a2,2,0,0,0,.7-1.1c.3-.9-1-2.8-2-3" transform="translate(0 0)"/><path class="cls-4" d="M241,85.9l-14.8-3.2-.2,1,14.8,3.2.2-1" transform="translate(0 0)"/><path class="cls-4" d="M226.4,81.6l14.8,3.2.2-1-14.8-3.2-.2,1" transform="translate(0 0)"/><path class="cls-4" d="M242,81.4l-14.8-3.2-.2,1,14.8,3.2.2-1" transform="translate(0 0)"/><path class="cls-4" d="M239.5,88.8c.6.1,1-.2,1-.8l-14.8-3.2-.2,1h.4l13.6,2.9" transform="translate(0 0)"/><path class="cls-4" d="M238.5,89.7l-13.2-2.8-.2,1h.7l10.6,2.3a2.2,2.2,0,0,0,2.2-.6" transform="translate(0 0)"/><path class="cls-4" d="M229.9,90.1,224.9,89l-.2,1,5.1,1.1.2-1" transform="translate(0 0)"/><path class="cls-4" d="M234.4,92c1.5.4,1.1.5,1.7-.7l-1.5-.3-.2,1" transform="translate(0 0)"/><path class="cls-4" d="M385.7,197.1l-8.9-2.7,1.1-3.4,8.9,2.7-1.1,3.4m-5.5,11.6h-.3l-6.6-2c-.2-.1-.3-.1-.2-.4l3.3-10.8v-.3l7.2,2.2-3.5,11.3m-1-21a12.7,12.7,0,0,1,2.5-2.3,5.3,5.3,0,0,1,3.2-1.1,2.3,2.3,0,0,1,1.3.4,1.3,1.3,0,0,1,.4,1.8,4.2,4.2,0,0,1-2.2,2,13.2,13.2,0,0,1-4.5,1.1,8.3,8.3,0,0,1-1.8-.4l1.1-1.4m-5.9,5.4v.2l-8.9-2.7,1.1-3.4h.2l8.5,2.6c.2.1.3.1.2.3l-.9,3m-4.1,12.3-6.6-2h-.2l3.4-11.3,7.1,2.2v.3l-3.3,10.8c-.1.2-.1.3-.4.2m1.4-21.5a2.7,2.7,0,0,1-.5-1.8c.1-1.2,1.2-1.6,2.3-.9a3.4,3.4,0,0,1,1.3,1.8,11.4,11.4,0,0,1,.6,4.1v.2l-1.8-1.4a8.2,8.2,0,0,1-1.8-2m18.5,8.7h0l-5.1-1.6h.2a8.7,8.7,0,0,0,2.7-1.4,4.9,4.9,0,0,0,1.9-3.2,3.3,3.3,0,0,0-1.9-3.4h-.2l-.9-.3h-1.6a6.4,6.4,0,0,0-2.8.9,13.5,13.5,0,0,0-3.4,2.7l-1.4,1.8-.2.2v-1a13.2,13.2,0,0,0-.5-3.9,6.3,6.3,0,0,0-1.5-2.8,4,4,0,0,0-3.9-1.3,3,3,0,0,0-2.1,1.8,4.3,4.3,0,0,0,.4,4,9,9,0,0,0,1.3,1.7v.2l-6-1.8v.2l-2,6.5c-.1.2,0,.3.2.3l1.3.4c.2.1.3.1.2.3l-1.6,5.1-2,6.5v.3l21.4,6.6v-.3l3.5-11.6c.1-.3.1-.3.4-.2l1.3.4c.1,0,.2,0,.3-.1l2-6.6" transform="translate(0 0)"/><path class="cls-4" d="M57.7,173.3l-9.1,2.3-.9-3.5,9.1-2.3.9,3.5M59,186.1h-.3L52,187.9c-.2.1-.3,0-.4-.2l-2.7-10.9v-.3l7.3-1.8L59,186.1M47.3,168.6a12.8,12.8,0,0,1,1-3.3,5.3,5.3,0,0,1,2.2-2.6,2.3,2.3,0,0,1,1.3-.3,1.3,1.3,0,0,1,1.2,1.3,4.2,4.2,0,0,1-.8,2.9,13.2,13.2,0,0,1-3.3,3.2c-.5.4-1.1.4-1.8.6s.1-1.2.2-1.8M45,176.3v.2L36,178.7l-.9-3.5h.2l8.6-2.1c.2-.1.3,0,.3.2l.8,3.1m2.8,12.7-6.7,1.7h-.3L38,179.2l7.3-1.8v.3l2.7,10.9c.1.2,0,.3-.2.4M38,169.8a2.7,2.7,0,0,1-1.3-1.3c-.5-1.1.2-2,1.5-2a3.4,3.4,0,0,1,2,.9,11.4,11.4,0,0,1,2.6,3.2v.2l-2.3-.2a8.3,8.3,0,0,1-2.6-.8m20.3-2.1h0L53,168.9h0v-.2a8.7,8.7,0,0,0,1.6-2.6,4.9,4.9,0,0,0,0-3.7,3.3,3.3,0,0,0-3.4-2h-.2l-.9.2-1.4.8a6.4,6.4,0,0,0-1.9,2.2,13.5,13.5,0,0,0-1.5,4.1c-.1.7-.2,1.5-.3,2.3a1,1,0,0,1-.1.3l-.5-.8a13.1,13.1,0,0,0-2.5-3.1,6.3,6.3,0,0,0-2.7-1.6,4,4,0,0,0-4,.9,3,3,0,0,0-.9,2.7,4.3,4.3,0,0,0,2.4,3.2,9,9,0,0,0,2,.8h.2l-6.1,1.5v.3l1.6,6.5c.1.2.1.2.3.2l1.3-.3c.2-.1.3,0,.3.2l1.3,5.2,1.7,6.6v.3l21.8-5.4v-.3l-2.9-11.7c-.1-.3-.1-.3.3-.4l1.3-.3c.1,0,.2-.1.2-.2l-1.7-6.7" transform="translate(0 0)"/><path class="cls-4" d="M353.2,33.4h-.4c-.1-.1,0-.3-.1-.7l.6.3a.5.5,0,0,1-.1.5m.7,1.5c-.1-.1,0-.3-.1-.7l.6.3a.5.5,0,0,1-.1.5h-.4m1.8,1.9-.6-.3c-.1-.1,0-.3,0-.5h.5c.1.1,0,.3.1.7m2.8-5.3a7.9,7.9,0,0,0-2.9-2.3,2.8,2.8,0,0,0-2.8.1.6.6,0,0,0-.3.7c.1.5.1,1,.1,1.5a1.3,1.3,0,0,1-.9-1.4l-1,.7a1.2,1.2,0,0,1,1,1.3l-1.5-.6h-.6a2.2,2.2,0,0,0-1,2.1,8.4,8.4,0,0,0,.5,2.4,20.6,20.6,0,0,0,3.6,5.6.9.9,0,0,0,1.2.1,1,1,0,0,0,.1-1.4c-.8-1.1-1.7-2.2-2.4-3.4a21.4,21.4,0,0,1-1.1-2.3h.2l9.7,13.3a1.3,1.3,0,0,0,1.9.4,1.3,1.3,0,0,0,.3-1.9l-5.7-7.8-.2-.4.4-.2h.1l5.8,7.9a1.3,1.3,0,0,0,1.9.4,1.3,1.3,0,0,0,.3-2l-1-1.4-8.5-11.7-.2-.3.9.5a20.4,20.4,0,0,1,3.6,4.4c.4.6.9.7,1.4.4a1,1,0,0,0,.1-1.4c-.9-1.2-1.8-2.5-2.8-3.6" transform="translate(0 0)"/><path class="cls-4" d="M322.5,55.8H322a.5.5,0,0,1,0-.5h.7c-.1.3-.1.5-.2.6m2.5,3.4-.6-.3c-.1-.1,0-.3,0-.5h.5c.1.1,0,.3.1.7m-1.7-2.4h.5a.6.6,0,0,1-.1.5H323c.1-.3.2-.5.3-.6m1.5-5.2a2.7,2.7,0,0,0-2.7.2.6.6,0,0,0-.3.6c.1.5.1,1,.2,1.6s-1-.6-.9-1.4l-1.1.8c.8.1.9.7,1.1,1.3l-1.5-.6h-.5a2.5,2.5,0,0,0-1.1,2.1,6.3,6.3,0,0,0,.6,2.7,22.6,22.6,0,0,0,3.3,5c.4.5,1,.7,1.4.3s.4-.9,0-1.5a20.9,20.9,0,0,1-2.9-4.5l-.5-1.2h.1l.2.3,9.6,13.1a1.3,1.3,0,0,0,1.7.4,1.4,1.4,0,0,0,.3-2.1l-5.5-7.5-.4-.5.4-.3.3.5,5.6,7.7a1.3,1.3,0,1,0,2.2-1.6l-9.5-13.2-.2-.3h.1c.7.7,1.5,1.3,2.1,2.1s1.5,2,2.3,3.1a.9.9,0,1,0,1.5-.9v-.2c-.9-1.2-1.8-2.4-2.8-3.6a7.8,7.8,0,0,0-3-2.3" transform="translate(0 0)"/><path class="cls-4" d="M320.1,52.5a2.5,2.5,0,1,0-3.4-.5,2.6,2.6,0,0,0,3.4.5" transform="translate(0 0)"/><path class="cls-4" d="M350.8,30.1a2.6,2.6,0,0,0,.6-3.5,2.5,2.5,0,1,0-4.1,2.8,2.5,2.5,0,0,0,3.5.7" transform="translate(0 0)"/><path class="cls-4" d="M355.9,50.8l-.7.4-6.4-8.7-.9.7,6.3,8.7-.6.5.2.5-.4.3.4.6,3.2-2.4-.4-.6-.5.3-.4-.4" transform="translate(0 0)"/><path class="cls-4" d="M340.5,62l-.7.5-6.4-8.7-.9.6h0l5.8,7.9c.6.8.6.7-.1,1.3h0l.3.4-.4.4.4.6,3.2-2.3-.4-.6-.5.2-.4-.4" transform="translate(0 0)"/><path class="cls-4" d="M347.2,43a21.3,21.3,0,0,1-13.7,9.9v.4c4.5-.1,12.8-6.1,14.1-10.2h-.4" transform="translate(0 0)"/><path class="cls-4" d="M348.1,42.5a1.3,1.3,0,0,0-1.5-2.1,1.3,1.3,0,0,0,1.5,2.1" transform="translate(0 0)"/><path class="cls-4" d="M332.8,53.7a1.3,1.3,0,0,0-1.5-2,1.3,1.3,0,0,0,1.5,2" transform="translate(0 0)"/><path class="cls-4" d="M116.2,8.3l2.1,1.5-2.3,1.1.3-2.6m4,3.1-1.9-.2c1.1-.7,1.1-.7,1.9.2m.3-2.8c-.7.7-1.2.6-1.8-.2l1.8.2m2.5.3-.3,2.6L120.7,10,123,8.9m1.3.1,2.1,1.6L124,11.7l.3-2.7m4.1,3.2-1.9-.2c.8-.7,1.3-.6,1.9.2m.2-2.8c-.7.7-1.3.6-1.8-.2l1.8.2m2.5.3-.3,2.7-2.1-1.5,2.4-1.1m1.3.2,2.1,1.6-2.4,1.1.3-2.7m4.3.4c-.8.7-.9.7-1.8-.2l1.8.2m-2,2.6c.8-.7.9-.7,1.8.2l-1.8-.2m4.5-2.3-.3,2.6-2.1-1.5,2.3-1.1m-23.5,1.6,2.5.3-.2.2c.3.3.5.8.8.9a.9.9,0,0,0,1.2-.9l6.3.7v.2c.3.2.6.7,1,.7s.8-.3,1.2-.5v-.2l6.2.6a.8.8,0,0,0,.9,1.1c.3,0,.7-.5,1-.7v-.2l2.6.3-1.5,14.2h1.1l2-19.4L115.1,6.8l-2,19.5h1.2l1.5-14.2" transform="translate(0 0)"/><path class="cls-4" d="M138.4,31.3c.1-1.1.1-1.1-1-1.2l-11.7-1.2L114,27.6c-1.1-.1-1.1-.1-1.2,1s-.2,2-.3,3,.1,1,.9,1.1l12.5,1.3L137,35.3c.8.1,1-.1,1.1-.9s.2-2,.3-3" transform="translate(0 0)"/><path class="cls-4" d="M108.5,31.1a2.4,2.4,0,0,1-2.1-2.7,2.5,2.5,0,0,1,2.7-2.1,2.4,2.4,0,0,1,2.1,2.7,2.4,2.4,0,0,1-2.7,2.1m1.1-9.5a2,2,0,1,1-2.2,1.6,2,2,0,0,1,2.2-1.6m2.1-1-4-.4c-.8-.1-1,.2-1.1.9s-.3,3.3-.5,4.9-.3,3.3-.5,5,.1,1,.8,1l4.2.5c.6.1.8-.2.8-.7l1.1-10.3c.1-.6-.2-.9-.8-.9" transform="translate(0 0)"/><path class="cls-4" d="M142,34.6a2.4,2.4,0,0,1-2.1-2.6,2.4,2.4,0,1,1,4.8.5,2.4,2.4,0,0,1-2.6,2.1m1-9.6a2,2,0,0,1,1.7,2.1,1.9,1.9,0,1,1-3.8-.4A2,2,0,0,1,143,25m2.9,0c.1-.7-.2-.9-.8-.9l-3.9-.4c-.8-.1-1,.2-1.1.9s-.3,3.3-.5,4.9-.3,3.4-.6,5.2.1.8.7.9l4.2.4c.6.1.8-.2.8-.7q.5-5.1,1.1-10.3" transform="translate(0 0)"/><path class="cls-4" d="M132.4,28.3l2.5-11.9h-.1L129.3,28l3,.3" transform="translate(0 0)"/><path class="cls-4" d="M119.3,14.9c0,4,0,8,0,12l3,.3-2.8-12.4h-.2" transform="translate(0 0)"/><path class="cls-4" d="M127.1,15.6l-2.6,11.9,2.9.3V15.6h-.2" transform="translate(0 0)"/><path class="cls-4" d="M108.7,29.3c-.2,0-.5-.4-.5-.6a.9.9,0,0,1,.6-.6c.2,0,.4.3.9.7s-.7.5-1,.5m.3-2.2a1.6,1.6,0,0,0-1.8,1.4,1.6,1.6,0,0,0,1.4,1.8,1.7,1.7,0,0,0,1.8-1.4,1.6,1.6,0,0,0-1.4-1.8" transform="translate(0 0)"/><path class="cls-4" d="M109.4,23c.2,0,.3.3.6.5s-.5.4-.7.3a.6.6,0,0,1-.4-.5.6.6,0,0,1,.5-.4m-.2,1.6a1.2,1.2,0,0,0,1.3-1,1.2,1.2,0,0,0-1-1.3,1.1,1.1,0,0,0-1.3,1,1.2,1.2,0,0,0,1,1.3" transform="translate(0 0)"/><path class="cls-4" d="M142.2,32.8a.9.9,0,0,1-.5-.7c0-.2.4-.5.6-.5s.4.3.9.6-.8.6-1,.5m.3-2.2a1.6,1.6,0,0,0-1.8,1.5,1.6,1.6,0,1,0,3.2.3,1.6,1.6,0,0,0-1.4-1.7" transform="translate(0 0)"/><path class="cls-4" d="M142.7,26.5c.2.2.4.3.4.5s-.2.4-.4.7-.4-.5-.4-.7.2-.3.4-.4m-.1,1.6a1.1,1.1,0,0,0,1.2-1.1,1.1,1.1,0,0,0-1-1.2,1.1,1.1,0,0,0-1.2,1.1,1.2,1.2,0,0,0,1,1.2" transform="translate(0 0)"/><path class="cls-4" d="M476.5,171l2.4-.9-.4,2.5-2-1.7m4.8-1.6-1.2,1.5c.1-1.3.1-1.3,1.2-1.5m-2.1-1.8c.2,1-.2,1.3-1.2,1.4l1.2-1.4m1.7-1.9,2,1.7-2.4.8.4-2.5m.8-1,2.5-.9-.4,2.6-2-1.7m4.9-1.6-1.3,1.5c-.1-1,.3-1.4,1.3-1.5m-2.2-1.7c.2,1-.2,1.4-1.2,1.4l1.2-1.4m1.7-1.9,2.1,1.7-2.5.9.4-2.6m.8-1,2.5-.8-.4,2.6-2.1-1.7m2.7-3.3c.2,1.1.1,1.1-1.2,1.4l1.2-1.4m1,3.1c-.1-1.1-.1-1.2,1.2-1.4l-1.2,1.4m.7-5,2,1.7-2.4.9.4-2.5m-11.8,20.4,1.6-2v.3c.4,0,.9.1,1.2-.1a.9.9,0,0,0-.1-1.5l4.1-4.9v.2c.4-.1.9-.1,1.1-.4a3.2,3.2,0,0,0,.2-1.3h-.2l4-4.7a.8.8,0,0,0,1.4-.1c.2-.3,0-.8,0-1.2h-.2l1.7-2,10.9,9.2.7-.9-15-12.6-16.5,19.6,15,12.6.8-.9-10.9-9.2" transform="translate(0 0)"/><path class="cls-4" d="M508,165.5c-.9-.7-.9-.7-1.6.1l-7.6,9-7.6,9.1c-.7.8-.7.8.2,1.6l2.3,2c.6.5.9.5,1.4-.1l8.1-9.6,7.2-8.6c.5-.6.5-.9-.1-1.4l-2.4-2" transform="translate(0 0)"/><path class="cls-4" d="M491.1,190.1a2.4,2.4,0,0,1-3.4.3,2.5,2.5,0,0,1-.3-3.4,2.4,2.4,0,0,1,3.4-.2,2.4,2.4,0,0,1,.3,3.4m-7.3-6.3a2,2,0,1,1,.1,2.7,2,2,0,0,1-.1-2.7m.4-2.3-2.6,3.1c-.5.6-.4,1,.2,1.4l3.8,3.2,3.9,3.2c.5.4.9.4,1.3-.1l2.7-3.2c.4-.5.3-.8-.1-1.1l-7.9-6.6a.7.7,0,0,0-1.2.1" transform="translate(0 0)"/><path class="cls-4" d="M512.7,164.4a2.4,2.4,0,0,1-3.4.3,2.4,2.4,0,1,1,3.1-3.7,2.4,2.4,0,0,1,.3,3.4m-7.4-6.2a2,2,0,0,1,2.7-.2,1.9,1.9,0,1,1-2.4,2.9,2,2,0,0,1-.3-2.7m1.6-2.4c-.5-.4-.8-.3-1.2.1l-2.5,3c-.5.6-.4.9.2,1.4l3.8,3.2,4,3.3c.4.4.7.3,1.1-.1l2.7-3.3c.4-.4.3-.7-.1-1.1l-7.9-6.6" transform="translate(0 0)"/><path class="cls-4" d="M502.2,168.8l-8.5-8.7h-.1l6.6,10.9,2-2.3" transform="translate(0 0)"/><path class="cls-4" d="M483.8,172.1l10,6.8,2-2.3L483.8,172v.2" transform="translate(0 0)"/><path class="cls-4" d="M488.7,166.1l8.4,8.8,1.9-2.3L488.8,166h-.1" transform="translate(0 0)"/><path class="cls-4" d="M489.7,189a.8.8,0,0,1-.8.1.9.9,0,0,1-.1-.8c.1-.2.5-.2,1-.3s0,.9-.2,1.1m-1.7-1.4a1.6,1.6,0,0,0,.2,2.3,1.6,1.6,0,0,0,2.3-.2,1.7,1.7,0,0,0-.2-2.3,1.6,1.6,0,0,0-2.3.2" transform="translate(0 0)"/><path class="cls-4" d="M484.9,184.9c.1-.1.4-.1.7-.2s0,.7-.1.8a.6.6,0,0,1-.6,0,.6.6,0,0,1,0-.6m1.2,1.1a1.2,1.2,0,0,0-.1-1.6,1.2,1.2,0,0,0-1.6.1,1.1,1.1,0,0,0,.1,1.6,1.2,1.2,0,0,0,1.6-.1" transform="translate(0 0)"/><path class="cls-4" d="M511.3,163.2a.9.9,0,0,1-.8,0,.8.8,0,0,1-.1-.7c.1-.2.5-.2,1-.4s0,1-.1,1.1m-1.7-1.4a1.6,1.6,0,0,0,.2,2.3,1.6,1.6,0,1,0,2-2.5,1.6,1.6,0,0,0-2.2.2" transform="translate(0 0)"/><path class="cls-4" d="M506.5,159.2c.2,0,.5-.2.6-.1s.2.4.3.8h-.8c-.1-.1-.1-.4-.1-.6m1.3,1a1.1,1.1,0,0,0-.2-1.6,1.1,1.1,0,0,0-1.6.2,1.1,1.1,0,0,0,.2,1.6,1.2,1.2,0,0,0,1.6-.2" transform="translate(0 0)"/><path class="cls-4" d="M515.2,75.5l-22.3,7.3c-1.1.4-1.4,1-1,2.1l1.5,4.6c.4,1.4.9,1.6,2.3,1.2l11-3.6,11.2-3.6c1.1-.4,1.4-.9,1-2.1l-1.5-4.7c-.4-1.2-1-1.5-2.1-1.1" transform="translate(0 0)"/><path class="cls-4" d="M512.1,59.5,486,68l.2.6a12.1,12.1,0,0,0,.7,1.9,1.9,1.9,0,0,0,1,.8,1.4,1.4,0,0,0,1.1-.3,3.2,3.2,0,0,0,.6-1c1.2.9,2.1.6,2.5-.9,1.3,1,2,.7,2.7-.8,1.2,1,2,.7,2.5-.7s1.1.4,1.6.3.8-.7,1.1-1.1,1.1.4,1.5.2.8-.7,1.2-1.2,2,.5,2.4-.8,1.2.4,1.7.2.8-.8,1.2-1.2,1.9.6,2.5-.9a1.4,1.4,0,0,0,1.9.3c.6-.4.8-1,.4-1.9l-.7-2.2" transform="translate(0 0)"/><path class="cls-4" d="M508.4,56.1a.9.9,0,0,0-.7,0l-20.2,6.6c-.2.1-.5.2-.5.3s-.7,2.5-1,3.8l25.4-8.2-2.9-2.4" transform="translate(0 0)"/><path class="cls-4" d="M495.5,76.2c.3,1.4.7,2.7,1.1,4.1l1-.3c-.1-1.1-.9-2.1-.9-3.2h.2l1,3.2,3.1-1-1-3.2h.2c.6.9.7,2.2,1.3,3.2l.9-.4c-.4-1.2-.7-2.4-1.1-3.5s-1-1.4-2-1l-3.1,1a1.1,1.1,0,0,0-.9,1.3" transform="translate(0 0)"/><path class="cls-4" d="M504.1,74.6c0,.2.4.5.6.7l.5.5a2.9,2.9,0,0,1,.3.8c.1.6.4.8,1,.6l2-.7c1.5-.5,1.5-.4,1-1.9a2.3,2.3,0,0,1,0-.8c0-.3.3-.8.1-1a1.2,1.2,0,0,0-1-.3l-2,.6h0l-2,.7a1,1,0,0,0-.5.7" transform="translate(0 0)"/><path class="cls-4" d="M490.1,71.7c-.4.1-.6.5-.4,1.1l2.8,8.4.2.5,1.2-.4v-.4L491,72.3c-.2-.5-.5-.7-.9-.6" transform="translate(0 0)"/><path class="cls-4" d="M511.8,65.3c-.1-.2-.6-.3-.8-.5s-.4.6-.4.9c.9,3,1.9,6.1,2.9,9.1,1.3-.2,1.3-.2,1-1.4l-1.9-5.9a19.5,19.5,0,0,0-.7-2.2" transform="translate(0 0)"/><path class="cls-4" d="M499,71.9a1.6,1.6,0,1,0-3.1,1,1.6,1.6,0,1,0,3.1-1" transform="translate(0 0)"/><path class="cls-4" d="M504.4,73.4l4.3-1.4c-.8-.6-1.3,0-1.8,0l-.7-.5-.3.8c-.4.2-1.2.2-1.5,1" transform="translate(0 0)"/><path class="cls-4" d="M506.5,69.4a4.9,4.9,0,0,1-1-.9c-.5.5-.4.9.5,1.3s1,.4.9,1.2c.7-.9.6-1.1-.3-1.5" transform="translate(0 0)"/><path class="cls-4" d="M504.7,70.3c.5.2.9.5.7,1.2.8-.8.7-1.2-.2-1.6s-1-.4-.8-1.4c-.7,1-.7,1.4.2,1.7" transform="translate(0 0)"/><path class="cls-4" d="M205.8,180.2l-4-12.3,10.2,10.2-6.3,2m-1.4.4-6.2,2,2.3-14.1,3.9,12.1m10.1-3.2-13.3-13.3a1.8,1.8,0,0,0-2.1-.5l-17,5.5a1.9,1.9,0,0,0-1.5,1.7c-1,6.2-1.9,12.3-2.9,18.5-.3,1.7,0,2.1,1.8,2l.4,1.1a1,1,0,0,0,1.4.6l9.7-3.1,8.8-2.9,12.5-4c2.3-.7,2.3-.7,1.8-3,1.4-.8,1.5-1.4.3-2.5" transform="translate(0 0)"/><path class="cls-4" d="M438.7,35.3l-3.3-2.4a1.4,1.4,0,0,1-.5-1c0-5,0-10.1,0-15.1,0-.2,0-.4.1-.7l1.6,2c.2.2.5.2.8.3a7.3,7.3,0,0,0,0-.9l-.2-.3L432,10.4l-.4-.6h.3c.6,0,1-.2,1-.8s-.5-.7-1-.7h-2.3c-.6,0-1.1.1-1,.8s.5.8,1,.7a1,1,0,0,1,1.1.5,25.1,25.1,0,0,0,2,2.6,4.4,4.4,0,0,1,1.2,3.7,17.9,17.9,0,0,0,0,2.1c-1-1.1-1.8-2.2-2.6-3.3a32.6,32.6,0,0,0-2.6-3.2,3.4,3.4,0,0,0-2-1c-1.9-.1-3.8-.1-5.8,0a2.3,2.3,0,0,0-2.5,2,6.1,6.1,0,0,0-.2,1.5c0,2.3,0,4.6,0,7s.4,1.4,1.1,1.5,1.2-.5,1.2-1.5,0-4.1,0-6.2a3.1,3.1,0,0,1,.1-.5h.8c0,3.3,0,6.6,0,9.9s0,5.9,0,8.8a1.2,1.2,0,0,0,.9,1.2,1.4,1.4,0,0,0,1.8-1.4c0-2.7,0-5.4,0-8.2,0-.9,0-1.8,0-2.8h1.2c0,1,0,2,0,2.9,0,2.7,0,5.4,0,8.2a1.3,1.3,0,0,0,1.4,1.3c.9,0,1.4-.5,1.4-1.6q0-8.8,0-17.6c0-.2,0-.5,0-.9l4.2,5.5a13.6,13.6,0,0,0,1.6,1.4c0,3.2,0,6.7,0,10.2a.9.9,0,0,1-.3.6l-3.4,2.5a1,1,0,0,0-.4.7.7.7,0,0,0,.4.5,1,1,0,0,0,.7-.2l3-2.4a.9.9,0,0,1,.9,0l3,2.4a1.1,1.1,0,0,0,.8.2.6.6,0,0,0,.4-.5,1,1,0,0,0-.3-.7" transform="translate(0 0)"/><path class="cls-4" d="M424.4,10.5a3.4,3.4,0,0,0,3.3-3.3,3.4,3.4,0,0,0-6.7.1,3.3,3.3,0,0,0,3.4,3.3" transform="translate(0 0)"/><path class="cls-4" d="M306.9,144.6c-.7-.3-1.6-.4-2-1s-.3-1.4-.4-2.2h-.1a5,5,0,0,1-3.6-.6l-.7-.2c-.6.8-1.7,1.3-1.7,2.4s-.2.9-.4,1-.8,1.1-1,1.7l-2.5,5.9-2.9,6.9a2,2,0,0,0,.5,2.2,1.8,1.8,0,0,0,2.2.2,3.1,3.1,0,0,0,1-1.3l4.7-11.3c.7-1.7.7-1.7,2.5-1.2s5.1,1.9,6.5,4.5a16.5,16.5,0,0,1,.8,2.2,1.9,1.9,0,0,0,3.7-.9,5.9,5.9,0,0,0-.2-1,11.7,11.7,0,0,0-6.4-7.4" transform="translate(0 0)"/><path class="cls-4" d="M297.8,143.8a1.2,1.2,0,0,0-.1-1.6l-.7-.6a5.6,5.6,0,0,1-2-2.8,2.3,2.3,0,0,1,.3-1.9c.7,1.5.2,3.5,2,4.5l1.6-1.7a.8.8,0,0,0,.1-.5,1.6,1.6,0,0,1,1.6-1.9l.5-.2,3.3-3.8a3.3,3.3,0,0,0-2.4-.8c-1.7.2-3.5.5-5.2.6s-4.7,3.1-4.4,5.6,1.9,4,3.7,5.4a1.2,1.2,0,0,0,1.6-.3" transform="translate(0 0)"/><path class="cls-4" d="M301.2,131.9a3.6,3.6,0,1,0-4.5-2.5,3.6,3.6,0,0,0,4.5,2.5" transform="translate(0 0)"/><path class="cls-4" d="M304,136.6c.8.9.8,1.3.2,1.9l-.2-1.9m-2.6,1.2a1.3,1.3,0,0,0-1.8.3,1.2,1.2,0,0,0,.1,1.6,6,6,0,0,0,4.5,1.5,3.2,3.2,0,0,0,2.8-4.1h-.7l-.9-2.8-3.1,3.6,1.5.6a3.4,3.4,0,0,1-2.4-.8" transform="translate(0 0)"/><path class="cls-4" d="M305.6,128.9a1.4,1.4,0,0,0-1.2.2,1.3,1.3,0,0,0,0,1.9,1.9,1.9,0,0,1,0,2.9l-.3.3-2.9,3.3.7.4,3.6-4.1c.3.9.6,1.7.8,2.4s.5.7,1.1.4-.4-1.8-.5-2.7-.7-2.5-.5-3.9a1.6,1.6,0,0,0-.7-1.2" transform="translate(0 0)"/><path class="cls-4" d="M291.8,148.9c.1,1.2.2,2.4.2,3.6a1.4,1.4,0,0,0,.9,1.4c-.1-1.5-.2-2.9-.3-4.3a1.8,1.8,0,0,1,.5-1.5l3-3.4-.7-.5-3.1,3.5a1.9,1.9,0,0,1-1.1.5l-4.6.3a1.6,1.6,0,0,0,1.7.7l3.4-.2" transform="translate(0 0)"/><path class="cls-4" d="M298.4,140.7l-.7.9.5.6,1.6-1.9-.6-.5-.8.9" transform="translate(0 0)"/><path class="cls-4" d="M245.5,143.7c-.2.5-.7.5-1.2.5l-.2-1.8c.5-.2.9-.2,1.2.2a1.4,1.4,0,0,1,.3,1m-2.7,2.3c-.1-.9-.2-1.7-.3-2.6a.4.4,0,0,1,.2-.4l1-.5a2.7,2.7,0,0,1-.8,3.4m-1.6,2.3-.7-4.9h1.5v.5l.2,1.3c.2,1.5.1,1.9-1.1,3.1m-.6.9-1,1.5-1.3-9.3a11.7,11.7,0,0,0,1.3,1.3,1.4,1.4,0,0,1,.6,1c.2,1.5.4,3,.6,4.5a1.7,1.7,0,0,1-.2.9m-1.5,2.5-1,1.7-2-14.5h.1c.5.7,1.1,1.3,1.6,2a2.9,2.9,0,0,1,.2,1.1c.4,2.9.8,5.9,1.2,8.8a1.7,1.7,0,0,1-.2.9m-2,3.6-.4.6h-.1L234,136.9a2.7,2.7,0,0,1,1.8,1.9c.6,4.5,1.2,9,1.8,13.4a3.8,3.8,0,0,1-.6,3.1m-.9,1.7-1,2-3-22.3h1.5l.6,4.1,1.2,8.9c.3,2.2.6,4.4.9,6.5a1.6,1.6,0,0,1-.2.8m10.2-15.7a2,2,0,0,0-2.5-.5l-1.7,1a.7.7,0,0,1-1.1-.1l-1-1.3-2.4-3.8a6.6,6.6,0,0,0-4.8-3.1l-2.7-.3.3-.8a.8.8,0,0,0,0-.5l-.4-.2-2.4.3a.5.5,0,0,0-.3.4c0,.2.2.3.3.5h.3c.4,2.6.7,5.3,1.1,7.9a.8.8,0,0,0,.5.7,2.7,2.7,0,0,1,.9,4.2,1.7,1.7,0,0,0-.4,1.8c0,.2,0,.3.1.5l.4,2.5h2.2L230.7,137l1.1-.3.4,3.3c.3,2.6.7,5.2,1.1,7.8s.4,2.4.6,3.5.1,1.4.2,2.1a28.4,28.4,0,0,0,1.5,7.1,1.9,1.9,0,0,1-.4,2.3l4.3-.2a.5.5,0,0,0,.4-.4.6.6,0,0,0-.2-.4,1.1,1.1,0,0,1-.1-1.5.6.6,0,0,0,.2-.5c0-.1-.2-.3-.4-.4H239a36.3,36.3,0,0,1,1.9-6.1,31.3,31.3,0,0,1,4.6-7.4,13.3,13.3,0,0,0,1.3-2,2.2,2.2,0,0,0-.5-2.8" transform="translate(0 0)"/><path class="cls-4" d="M235.4,161.1l-1.9-6.1a1.4,1.4,0,0,0-1.5-1h-4.4c0-.6.1-1.2.1-1.8a.6.6,0,0,0-.3-.7,4.6,4.6,0,0,1-2-2.4,1.1,1.1,0,0,1,.6-1.5,1.2,1.2,0,0,1,1.5.8l.6,1h.2a6.1,6.1,0,0,0,.1-.8,1.8,1.8,0,0,0-2.9-1.5,3,3,0,0,0-1.2,1.6,12.9,12.9,0,0,0-.6,6.2,2.2,2.2,0,0,0,2.3,2.1h4.8a.5.5,0,0,1,.6.5l1.4,4.6a1.4,1.4,0,0,0,1.8,1,1.4,1.4,0,0,0,1-1.8" transform="translate(0 0)"/><path class="cls-4" d="M228.4,146.5a2.6,2.6,0,1,0-2.6-2.5,2.6,2.6,0,0,0,2.6,2.5" transform="translate(0 0)"/><path class="cls-4" d="M225.2,161l.2-2.4h2.7l.3,2.4h-3.2m4.4-3.3c-.1-.4-.4-.4-.7-.4l-4.5.2c-.5,0-.7.2-.6.7s.3.4.5.7l-.3,4.5h1c0-.5,0-.9.1-1.4s.2-.4.3-.4h3.1l.3,1.7h1l-.7-4.7c.5-.1.6-.4.5-.8" transform="translate(0 0)"/><path class="cls-4" d="M227.2,148.4a1,1,0,0,0-.7-.5c-.7-.2-1.2.5-1,1.2a4.3,4.3,0,0,0,1.8,2.3,7.9,7.9,0,0,0,4.7,1.1h.7c.6-.1,1-.4.9-1s-.4-.8-1.1-.8h-2a3.6,3.6,0,0,1-3.4-2.3" transform="translate(0 0)"/><path class="cls-4" d="M231.4,159.9c-.1.1-.3.3-.3.4a.6.6,0,0,0,.3.4,1.1,1.1,0,0,1,0,1.5.6.6,0,0,0-.2.5.5.5,0,0,0,.3.3h1.7c-.9-1-.9-2.3-1.4-3.3l-.4.3" transform="translate(0 0)"/><path class="cls-4" d="M228.4,147.9v1.8l1.6-.2-.2-1.8-1.4.2" transform="translate(0 0)"/><path class="cls-4" d="M230.9,153.8H233l-.2-1.2h-2.2l.2,1" transform="translate(0 0)"/><path class="cls-4" d="M233,147.8c0-.6-.1-1.3-.2-1.9h-.1c-.1.2-.4.3-.4.5s.1,1.3.2,2h.2c.1-.2.4-.4.4-.5" transform="translate(0 0)"/><path class="cls-4" d="M381.5,38.2a.5.5,0,0,1,.7-.7c.2.1.1.5.2.9s-.8-.1-.9-.2m1-3.1c.1-.4.1-.8.2-.8a.8.8,0,0,1,.7.1.7.7,0,0,1,0,.6c-.2.1-.5.1-.9.1m-4.4-.1-1.2-1.4c-.4-.4-.3-.8.1-1a1.2,1.2,0,0,1,.9.2c.2.1.4.4.6.6a2.9,2.9,0,0,1,.6.7,1.2,1.2,0,0,1,0,.9c-.3.4-.7.3-1-.1m5.5-7.1,1.3,1.5c.1.2,0,.5,0,.8l-.8-.2a3.3,3.3,0,0,1-.6-.7,3.6,3.6,0,0,1-.6-.7,2,2,0,0,1,0-.8c.3,0,.6,0,.7.1M385,27a3,3,0,0,1,.6.6h.2c.1.5.4,1.4.2,1.5s-.9-.4-1.3-.7a1.7,1.7,0,0,1-.5-.7,4,4,0,0,1-.1-1l.9.3m-4,5.6a4.4,4.4,0,0,1-.7-.8h-.2c-.1-.5-.4-1.4-.2-1.5s.9.4,1.3.7a2.5,2.5,0,0,1,.7.8,2,2,0,0,1,0,.8l-.7-.2m-.5.4a.7.7,0,0,1-.1.7.7.7,0,0,1-.6-.1L378.5,32c-.1-.1,0-.4,0-.7s.6-.1.7.1a4,4,0,0,1,.7.8h0a4.5,4.5,0,0,1,.7.8m-3-4.4-2.4.5A2.8,2.8,0,0,0,373,31c-.1.3-.4.4-.6.7s-.4-.7-.3-.9a3.5,3.5,0,0,1,2.6-2.6l2.5-.5a6.4,6.4,0,0,0,4.6-2.8,24.1,24.1,0,0,1,1.8-2.2c.2-.2.6-.2,1-.3s0,.7-.2,1l-3.1,3.8a7.5,7.5,0,0,1-3.7,1.5m6.6,9.9a24.3,24.3,0,0,0,1.1-2.8,4.4,4.4,0,0,1,2.5-2.7,12.8,12.8,0,0,0,2.4-1.2,5.5,5.5,0,0,0,1.6-1.7c.2-.4,0-1,0-1.5l-1.3.2-.4.2c-1.3.5-2,.1-2.7-1.2l.7-.6,13.1-11a4,4,0,0,1,1.8-.8,1.9,1.9,0,0,0,1.4-.9,3.2,3.2,0,0,1,2.1-1.7,1,1,0,0,0,.8-1.5,1.1,1.1,0,0,0-1.6-.6l-4.6,1.8a.9.9,0,0,0-.5.7,1.4,1.4,0,0,1-.6,1.4L387.7,24.6l-.7.5c-1.4-1-1.6-1.8-.7-3.2l.4-.6c.4-.7.1-1.2-.5-1.1a4.6,4.6,0,0,0-2.5.7,17.6,17.6,0,0,0-2.8,3.2,5.7,5.7,0,0,1-4.1,2.5l-2.4.5a4.6,4.6,0,0,0-3.2,6.4,13.7,13.7,0,0,0,6.1,7.3,4.6,4.6,0,0,0,6.8-2.1" transform="translate(0 0)"/><path class="cls-4" d="M206.1,66.1a6.8,6.8,0,1,0-9.3,2.5,6.8,6.8,0,0,0,9.3-2.5" transform="translate(0 0)"/><path class="cls-4" d="M198.5,45.8c-.2.1-.4.7-.3.8l2.2,3.2.5.4,2,.5h0c-1,1.1-.7,2,.1,3s.7,1.1-.3,2a7.3,7.3,0,0,1,3.3,2.4,2,2,0,0,1,1.4-2.2,1.8,1.8,0,0,0,.8-.6l1.2-2.1h.4a6.8,6.8,0,0,0,6.3-.2,1.2,1.2,0,0,0,.8-1.1.4.4,0,0,1,.2-.3l1.6-.8,4.9-2.4-.2-.4h-.1L217,51.4h-1.7l-1.3.5c-1.6.4-3.1.4-4.3-.9l-.4-.3-3.9-2.2a2.4,2.4,0,0,0-1.2-.2l-1.7.2a2.4,2.4,0,0,1-2.5-2c-.1-.2-.1-.5-.3-.6s-.5-.9-.6-1.4V43.1l-.6-6.1H198l.8,8a.7.7,0,0,1-.3.8" transform="translate(0 0)"/><path class="cls-4" d="M191.7,61.6l2.1-3.7,1-1.8.8,1.2a7.8,7.8,0,0,1,6.3-1.7c.3,0,.7-.3,1.1-.5s0-.4-.1-.6l-4.7-7.4c-.1-.1-.4-.3-.6-.2s-.9.3-.9.9l-.3.3L193,50.5h-.4c-.3.1-.6.1-.7.2s0,.5.1.7l2.1,3.3a.6.6,0,0,1,0,.8l-3.2,5.5a1.3,1.3,0,0,1-.7.5l-3.2.9-.6.2a1.5,1.5,0,0,0,1.8.4l2.4-.8c.3,1,.5,1.9.7,2.8s.7.8,1.2,1c-.3-1.3-.6-2.6-.9-3.8a1.1,1.1,0,0,1,.1-.8" transform="translate(0 0)"/><path class="cls-4" d="M188.1,62c-.8-1.3-.2-2.4.7-3.5l1.5,1.5c.6.6.7.6.9-.2v-.2c1.1-1,1.6-2.4,2.4-3.6a.4.4,0,0,0-.1-.7l-3.5-3.5c-.1-.1-.4-.3-.5-.2a2.1,2.1,0,0,0-.6.6c-.1.2-.1.4-.3.6l-2,2-.4.3c-.7.2-.8.3-.3.9l2.1,2.2-.9,1.6a1.5,1.5,0,0,1-.7.6l-3.2.8a1.2,1.2,0,0,0,1.4.4l2.3-.7.2,1.5.7-.2" transform="translate(0 0)"/><path class="cls-4" d="M211.4,69.3h0l.9-3.2.3-.3a2.1,2.1,0,0,0,.3-.8c0-.1-.3-.3-.5-.3l-1.2-.3-3.9-1a7.3,7.3,0,0,1-2.5,4.8c-.3.3-.1.4.2.5l2.3.6a3.2,3.2,0,0,1-2.7,2.4,10.2,10.2,0,0,0-1.8.5,1.1,1.1,0,0,0,1.4.3l2.1-.6c.2.8.4,1.5.6,2.2a1.1,1.1,0,0,0,.9,1c-.2-1-.5-2-.7-3a1.5,1.5,0,0,1,.1-.8l.8-1.4c.2-.3.4-.3.7-.3l2.1.6c.3.1.7.2.9.1s.1-.5,0-.8" transform="translate(0 0)"/><path class="cls-4" d="M208.1,49a2.9,2.9,0,0,0,2.7-5.3,2.9,2.9,0,0,0-2.7,5.3" transform="translate(0 0)"/><path class="cls-4" d="M212.1,60.5a1.5,1.5,0,0,0,.7-2.6,4.9,4.9,0,0,0-3-1.6,4.2,4.2,0,0,0-2.8.3,1.5,1.5,0,0,0-.6,2.3l.5.6,1.3.9c-.3.9-1.2,1.5-.9,2.7l1.2-2.1a.5.5,0,0,1,.7-.3,4.4,4.4,0,0,0,2.9-.1" transform="translate(0 0)"/><path class="cls-4" d="M194.9,56.7l-.4.6c-.7,1.2-1.4,2.5-2.2,3.7a2.1,2.1,0,0,0-.3,2c.3.8.4.9,1.2.5a7.2,7.2,0,0,1,1.7-5.5c.6-.7.6-.7,0-1.4" transform="translate(0 0)"/><path class="cls-4" d="M204.1,71.3a6.1,6.1,0,0,1-.4-1.4,3.5,3.5,0,0,1,.2-1.1l-4.2,1.5c.6.6,1.1.1,1.7,0l1.7-.5.5,1.7.6-.2" transform="translate(0 0)"/><path class="cls-4" d="M204.1,69.6a1.5,1.5,0,0,0,2.3-.4l-2.2-.6c-.1.4-.2.8-.1,1" transform="translate(0 0)"/><path class="cls-4" d="M206.6,59.6l.6,1.9c.7-.9.5-1.4-.6-1.9" transform="translate(0 0)"/><path class="cls-4" d="M207.6,63.2l1.1.3-.3-1.6-.8,1.4" transform="translate(0 0)"/><path class="cls-4" d="M177.4,37l-1.2-3.3c-.5-1.3-1-2.7-1.4-4a7.2,7.2,0,0,1,.1-4.1l1.1.2.2-.9-6.9-1.5h-.3v.8l.6.2h0a1.5,1.5,0,0,1,0,.2,11.2,11.2,0,0,0,1.5,7.1c.9,1.7,1.8,3.4,2.6,5.1a3.9,3.9,0,0,1,.3,1.5.9.9,0,0,1-.5.7c-.2.1-.5-.1-.7-.3a1.3,1.3,0,0,1-.4-.5l-.7-1.7a.6.6,0,0,0,.2-1,2.6,2.6,0,0,0-.7-.5h-.1l-.2-.5h.2a2.2,2.2,0,0,0,.2-.9.6.6,0,0,0-.9-.5c-.2-.4-.4-.8-.1-1.3s-.2-1.1-.9-1l-.2-.6c-1-2.5-2.1-5-3.2-7.5a7.9,7.9,0,0,0-1.4-2.1c-1.2-1.3-4.3-1.2-4.9,1.2-.1.4-.2.9-.3,1.3s-.2.9-.4,1a4,4,0,0,1-1.9.6,5.3,5.3,0,0,0-2.3.6,1,1,0,0,0-.4.7c0,.3,0,.7.5.7l2.6-.2v-.2l.5-.4,1-.3a2.9,2.9,0,0,0,2.3-2.5,4.6,4.6,0,0,1,.2-.7,1.1,1.1,0,0,1,1.8-.5,2.2,2.2,0,0,1,.6.7l1.2,2.7c-.6,0-.8.3-.6.7s.4.8.9.6l.6,2.1h-.2a2.7,2.7,0,0,0-.2.9.7.7,0,0,0,.8.6l.5,1.5a.5.5,0,0,0-.5.8c.1.5.4.7.9.6l.5,1.7,1.6,5.4.3.5a4.5,4.5,0,0,0,5.9,1.6,4.3,4.3,0,0,0,2.3-5.5" transform="translate(0 0)"/><path class="cls-4" d="M32.8,144.1a11.5,11.5,0,0,0-3.3,1.3,21,21,0,0,0-4.9,4.3,21.2,21.2,0,0,1-3.2,2.9,11.3,11.3,0,0,1-3.3,1.4,2.1,2.1,0,0,1-2.4-.8,2.2,2.2,0,0,1,0-2.4l.7-1.1-1.2-1.4a5.7,5.7,0,0,0-1.8,3.7,3.6,3.6,0,0,0,2.9,3.8,5.8,5.8,0,0,0,3.6-.4,16.8,16.8,0,0,0,5.9-4.5,17.4,17.4,0,0,1,5.1-4.2c3.6-1.8,6.4,0,6.2,4.1,0,.6-.1,1.2-.2,1.8l1.1.3c.5.2.7,0,.8-.5a8.8,8.8,0,0,0-.2-4.5,5.1,5.1,0,0,0-6-3.7" transform="translate(0 0)"/><path class="cls-4" d="M18.4,148.5l11.6-7.9.6-.4a11.4,11.4,0,0,1-4-4.9l-.5.6-9.5,10.5a1.3,1.3,0,0,0,0,1.9,1.3,1.3,0,0,0,1.8.3" transform="translate(0 0)"/><path class="cls-4" d="M33.9,135.4a8.7,8.7,0,0,0,3.8,2.3,1,1,0,0,0,1.3-.6,6.9,6.9,0,0,0-6.2-9.9l-2.1.4c-.9.3-1,.4-.8,1.3a12.7,12.7,0,0,0,3.9,6.5" transform="translate(0 0)"/><path class="cls-4" d="M30.7,138.9a5.8,5.8,0,0,0,6.8.2,16.1,16.1,0,0,1-8.7-10,6,6,0,0,0-1.2,5.7,10.1,10.1,0,0,0,3.2,4.1" transform="translate(0 0)"/><path class="cls-4" d="M298.7,85.6c-.4.7-.8,1.4-1.2,2.1l-.5,1.2,1.2-.4c-.3.7-.5,1.1-1.1.9s-.6-.7-.4-1.1.8-1.5,1.2-2.2l.5-.9-.7-.2c.1-.2.2-.4.3-.4s.7,0,.7.1a1.2,1.2,0,0,1,0,.9m-2.8-2.4h-.3l-.2-.5h-.2l-1.8,1.6-.7.6c-.4.3-.9.4-1.2-.2s-.1-.7.6-1.2v1.1l.9-.5,2.1-1.9a1.1,1.1,0,0,1,.9,0c.1.1.1.5.1.8m16.8-15.6c-.7,0-.8-.1-.4-.8l.3-.5-1.3-1-.8.6-.8-.3v.2l.5.6c-.6.2-.8.1-.9-.6s-.4-.8-.8-.6-.6.5-.6.7.4.5.7.7l.9.3v.3l-.9.2V68l-.5-.2c-.1-.1.1-.4,0-.4s-.5-.6-.8-.6-.7.4-.7.6.4.6.7.8l.7.2c0,.4.1.9-.2,1.2l-7.1,8.5-2.4,2.8-.5.2a1.3,1.3,0,0,1,.1-.5l1.1-1.4,4.3-5.2-1.4-.7c-3.5-1.5-4.8-.1-5.7,2.1a10.5,10.5,0,0,1-1,1.5l-.7.9c.8.4,1.1.9.8,1.6a4.9,4.9,0,0,1-2.9,2.8,1.4,1.4,0,0,1-1.1-.2.8.8,0,0,0-1.2.2,8,8,0,0,1-1.3,1.4l-2,1.3a3.6,3.6,0,0,0-1.4,2.3,10.6,10.6,0,0,1,5.1,3.1,1.5,1.5,0,0,1,.2,2.1L289.6,94c1.3.6,2.4,1.3,3.7,1.8a3.4,3.4,0,0,0,4.2-1.2,22.3,22.3,0,0,0,1.2-2.5,14.1,14.1,0,0,1,1.3-2,.8.8,0,0,0-.1-1.2,1.4,1.4,0,0,1-.4-1,4.9,4.9,0,0,1,1.6-2.9c.9-.8,1.4-.9,2.4-.1l.7-.8,1.9-1.7c1.4-1.2,1.7-2.3,1.1-3.9a25.9,25.9,0,0,0-1.5-2.8l4-5.3.5.3.7-1c.1.7.2,1.2,1,1.1a.9.9,0,0,0,.5-.7c0-.9-.6-.7-1.4-.6l1.1-1.7.2.7c.1.5.3.8.8.7a1.1,1.1,0,0,0,.6-.8c0-.5-.4-.6-.8-.5" transform="translate(0 0)"/><path class="cls-4" d="M289.1,90.7a29.3,29.3,0,0,0-3.1-2.1,1.2,1.2,0,0,0-1.1,0,1.3,1.3,0,0,0-.2,1.1,9.5,9.5,0,0,0,3.3,4.6l.7-.9.6-.7a1.3,1.3,0,0,0-.2-1.9" transform="translate(0 0)"/></g></g></g></svg>