<svg xmlns="http://www.w3.org/2000/svg" viewBox="0 0 238.7 238.7"><defs><style>.cls-1{fill:#fff;fill-rule:evenodd;}</style></defs><title>inst</title><g id="Слой_2" data-name="Слой 2"><g id="Режим_изоляции" data-name="Режим изоляции"><path class="cls-1" d="M175.3,104.6q-6.9.2-13.9,0c-3.1-.1-4,1.1-3,4,4,11.5,1.4,22.2-4.5,32.3s-15.9,16.3-27.3,18.7c-8,1.7-16,.2-23.9-3.2-17.4-7.4-28.8-29.9-22.3-48,1-2.6.1-3.9-2.8-3.8-4.8.1-9.5.1-14.3,0-2.6-.1-3.3,1.1-3.3,3.5.1,19.3,0,38.6.2,57.9a12.8,12.8,0,0,0,12.4,12.5h93.8a12.8,12.8,0,0,0,12.3-12.3c.1-19.4.1-38.8.2-58.3C178.8,105.4,177.8,104.5,175.3,104.6Z"/><path class="cls-1" d="M119.2,145.6c14.5-1.5,25.7-10,26-25.8s-9.7-26.2-25.7-26.4-26,10-26,26.2S103.9,143.8,119.2,145.6Z"/><path class="cls-1" d="M119.3,0A119.3,119.3,0,1,0,238.7,119.3,119.3,119.3,0,0,0,119.3,0Zm74.5,163.6c-.1,13.7-6.6,23-19.1,28.4a27.4,27.4,0,0,1-10.5,1.8c-30,.1-60,.3-89.9,0-13.2-.1-22.4-6.6-27.8-19.3a27.1,27.1,0,0,1-1.6-10.2c-.1-30-.3-60,0-89.9.1-13.3,6.6-22.5,19.2-27.9,3.1-1.3,6.8-1.6,10.2-1.6,15.1-.2,30.1-.1,45.2-.1s29.6-.1,44.4,0,23.1,6.8,28.3,19.2a29.1,29.1,0,0,1,1.7,10.9C194,104.5,194,134.1,193.9,163.6Z"/></g></g></svg>