<svg xmlns="http://www.w3.org/2000/svg" viewBox="0 0 113.6 68.1"><defs><style>.cls-1{fill:#00b3be;}</style></defs><title>map</title><g id="Слой_2" data-name="Слой 2"><g id="Слой_2-2" data-name="Слой 2"><path class="cls-1" d="M99.7,1.8h0c1.6,1.1,2.5,1.7,1.8,3.6-.1.3-1.6,2.4-2.3,2.4h-.1c.4.3.9.5,1,.8.7,2.1,3,.3,3.6,2.2s.3,4.7,1.3,7.1c-1.1.6-2.1,3.3-1.7,5.2l1-.8h.4l-.3,1.4v.8h1.6c.2.1,3.1,3,3.3,3h0a6.4,6.4,0,0,0,.6,2.5c1,2.4,2.7,5,1.8,6.9-1.3-2.7-3.6-3.1-6.2-4.6a5.6,5.6,0,0,1-2.9-4.6,16.4,16.4,0,0,0-2.1-6.4c-.1.6-.4,2.4-.1,2.9l-1.6-.7a3.2,3.2,0,0,0-.3,3.1c0,.1.9,2,1.4,2l.2-.2-1.3,2.9-1.1-.3c-.5,0-.8.3-.9,1.2a2.9,2.9,0,0,1-1.4,1.8c-1.9.9-1.8,2.6-1.8,4.2s0,4.1,0,6.2h2.4l-.2-.3c.5-.4,1-1.2,1.5-1.2h.3c1.3,0,1.9-.3,1.2-2l6.2,4.8c-.5,1.9-.4,2.1,2.7,3.7l-.9,1.9-5.8-6.6-.5.3c.2.5.3,1.2.6,1.6,2.5,2.4,2.2,5.7,2.6,8.7a9.1,9.1,0,0,1-.1,3.1,7.6,7.6,0,0,1-1.3,2.9,10.7,10.7,0,0,1-2.2,1.8,29.2,29.2,0,0,1-1.5-3,1.5,1.5,0,0,1,.3-1.4c1.3-.6.9-1.6.6-2.5a10.8,10.8,0,0,0-1.2-3l-.4.9c-.6,1.2-.9,1.7-1.4,1.7a4.9,4.9,0,0,1-1.7-.6l-.8-.2h-.4l-1.1.2c-1.4,0-2.3-1-3.3-1.9a4.4,4.4,0,0,0-2.9-1.4,4,4,0,0,0-2.9,1.5,30.3,30.3,0,0,1,.4,5c-.1,1.8-4.9,2.7-6.1,3.4s-1.9,1.3-3.1,1.3h-.8l-2.8-.2H69.3c-1.2,0-1.5-.4-2.6-.9a4.9,4.9,0,0,0-1.7-.5c-.6,0-1,.4-1.6,1.3s-.9,2.2-1.8,2.2a3.1,3.1,0,0,1-1.5-.5,4.2,4.2,0,0,0-2.1-.7,4,4,0,0,0-2.6,1.1,3.6,3.6,0,0,1-2.4.9,4.6,4.6,0,0,1-3.4-1.7c-1.2-1.4-3.2-.9-4.3-2.7s-.6-2.8-2-3.7l-.8-.2-1.3.2h-.3c-2.5-.6-1.7-3.5-4.1-3.6l-3.7-.2a6.4,6.4,0,0,0-3.6.8c-1.1.8-.7,1.3-1.1,2.1s.5.7-.3,1.2h-.3a3.9,3.9,0,0,1-1.4-.6c-2.2-1-4.8-2.6-6.2-4.6a1.6,1.6,0,0,0-1.4-.8,4.2,4.2,0,0,0-2.4,1c-.4-.5-.7-.7-1-.7s-1.1,1-1.7,1.1.3,2.6.3,3.9-.6.9-1,.9c-2.4.2-3.4,1.2-3.6,3.8,0,.5,0,1-.1,1.5l-.9.2c-.7,0-1-.6-1.3-1.4a12.6,12.6,0,0,0-4.2-6.4,1,1,0,0,1-.4-.6c-.2-1.4-.3-2.9-.5-4.3l6.9-2.8c-.5-1.1-1-2-1.4-3s-1-2.2-.6-3,0-2-1.4-2.7l2.3-1.5c1.6-1,.8-3.6,1-5a4.1,4.1,0,0,1,.9-1.9c1.1-1.4,3.9-1,4.1-2.9h4c.5-1.7,5-7.6,7.8-7.6a1.5,1.5,0,0,1,1.2.6c1,1.2,1.2,3.8,1.1,5.2s-.9,2.5-1.8,2.5-1-.4-1.4-1.3l-.7-1.4c-1.9,2.1-1.9,2.1-1.3,4l.5-2.5,1.3,2.2h0a3.5,3.5,0,0,1,2.1-.8,4.5,4.5,0,0,1,2,.5,13.6,13.6,0,0,0,2-3c.2,1,2.5,1.7-.1,2.5-.1,0-.1.5-.2.7l.7.2h0l3.7-.3h.3c.4,0,.8.8,1.2,1a25.7,25.7,0,0,0,3,.7l-.4-2.2.3-.2h0c.3,0,3.5,3.4,3.8,3.6s.4-2.2.9-3.2a9.2,9.2,0,0,1,3-3c.2.4,1.1,2.3.9,2.5l.7-.8a1.4,1.4,0,0,0,1,.4c1.4,0,3.3-1.4,4.2-1.9s.1-.9.5-1.2a12.5,12.5,0,0,1,3.7-2.4c2-.6,1.8-2.6,4-2.7h.1c1.3,0,3.5,1.4,3.8,2.7l.5,2.2H69c.6-.2,1.1-.9,1.6-1.4l-.3-.7a9.7,9.7,0,0,1,2.8.7,10.1,10.1,0,0,1,2,2.2l.4-.3V25l2.8-2c-1.7-2.1,1.5-4.4,3.8-4.4h1a2.7,2.7,0,0,0,1.6-1.2c.6-1.1,1.1-1.6,1.9-1.6a5.2,5.2,0,0,1,1.9.6c.5-1.5,1.2-2.9,1.6-4.4C91,8.8,93.4,6.9,96,5c.3-.2,3.4-3.2,3.7-3.2m9.5,25.9h0M99.7,0c-.9,0-1.2.3-3.9,2.8l-.9.8c-2.5,1.8-5.5,4-6.6,8.1a24.4,24.4,0,0,1-.9,2.6h-.9c-2,0-2.9,1.6-3.4,2.5l-.2.2h-.8a6.7,6.7,0,0,0-5.7,3.4,3.7,3.7,0,0,0-.3,2.3l-1.2.9-.7-.5a6.8,6.8,0,0,0-2.6-.8H70.4a1.8,1.8,0,0,0-1.8,2H67.3l-.2-.9c-.6-2.2-3.5-4-5.5-4h-.1a4.4,4.4,0,0,0-3.5,2c-.4.5-.6.7-.9.8a11.5,11.5,0,0,0-3.8,2.2l-.6.4a2.7,2.7,0,0,0-.9,1.4l-.3.2a9.1,9.1,0,0,1-2.2,1.1l-.7-.3-.2-.5v-.2a1.8,1.8,0,0,0-1.2-1h-.5a1.8,1.8,0,0,0-1,.3,10.5,10.5,0,0,0-3.5,3.6l-.2.5c-1.7-1.7-2.1-1.9-2.9-1.9h0L38,28h-.3a1.8,1.8,0,0,0-1,1.5h-.1a2.7,2.7,0,0,0-1.9-1.1H33.3a3.2,3.2,0,0,0-1-1.7l-.2-.2a1.8,1.8,0,0,0-1.4-1.2h-.3l-.8.2a9.3,9.3,0,0,0-1.5-5.1,3.3,3.3,0,0,0-2.6-1.3c-3.4,0-7.4,5.1-8.9,7.7H13.2A1.8,1.8,0,0,0,12,28.6l-.9.4a5.6,5.6,0,0,0-2.8,1.7A5.9,5.9,0,0,0,7,33.4a9.1,9.1,0,0,0,0,1.7c0,.5.1,1.8-.2,2l-.8.5-1.6,1a1.8,1.8,0,0,0,.1,3.1l.6.4h0c-.6,1.3-.1,2.7.4,3.8l.2.5.6,1.5L1.3,50A1.8,1.8,0,0,0,.2,51.9v1c.1,1.1.2,2.2.4,3.4A2.7,2.7,0,0,0,1.7,58a10.8,10.8,0,0,1,3.6,5.5c.6,1.8,1.6,2.7,3,2.7a3.8,3.8,0,0,0,1.7-.4,1.8,1.8,0,0,0,1-1.5v-.5c0-.3,0-.6,0-1s.5-2,1.9-2.1a3.1,3.1,0,0,0,2.7-2.7,23.6,23.6,0,0,0-.1-2.7l.6.2h.2a1.8,1.8,0,0,0,1.1-.4,2.7,2.7,0,0,1,1.3-.6c1.6,2.5,4.6,4.2,6.9,5.2h.2a4,4,0,0,0,2,.6A2.5,2.5,0,0,0,29,60a2.2,2.2,0,0,0,1.3-2.5,5,5,0,0,0,.1-.7h.1a4.7,4.7,0,0,1,2.6-.5h3.7l.4.7a4.8,4.8,0,0,0,3.3,2.9h.8l1.1-.2h.1c.2.2.4.5.6,1.2a8.2,8.2,0,0,0,.8,1.8,5.5,5.5,0,0,0,3.3,2.3,2.9,2.9,0,0,1,1.3.6,6.4,6.4,0,0,0,4.7,2.3,5.4,5.4,0,0,0,3.5-1.3,2.2,2.2,0,0,1,1.4-.7,2.5,2.5,0,0,1,1.2.4,4.7,4.7,0,0,0,2.4.8c1.8,0,2.5-1.5,3-2.3l.4-.7.2-.4.8.3.7.3a4.8,4.8,0,0,0,2.6.7h1.5l2.5.2h1.1a6.1,6.1,0,0,0,3.5-1.2l.6-.4,1.4-.5c2.4-.8,5.3-1.8,5.5-4.2a18.6,18.6,0,0,0-.2-3.8v-.6a1.7,1.7,0,0,1,1-.4,3,3,0,0,1,1.7.9l.3.2a6.1,6.1,0,0,0,4.3,2.2l1.6-.3h0a5.6,5.6,0,0,0,2.4.8,2.3,2.3,0,0,0,1.5-.5h0a3.2,3.2,0,0,0-1,3.5,20.2,20.2,0,0,0,1.2,2.4l.4.7a1.8,1.8,0,0,0,1.2.9h.4a1.8,1.8,0,0,0,1.1-.4l.5-.4a8.1,8.1,0,0,0,2-1.7,9.4,9.4,0,0,0,1.6-3.6,10.8,10.8,0,0,0,.1-3.7c-.1-.6-.1-1.2-.2-1.8V52.6h.1v.2a1.8,1.8,0,0,0,1.4.6h.3a1.8,1.8,0,0,0,1.4-1l.9-1.9a1.8,1.8,0,0,0-.8-2.4l-1.9-1.1v-.6a1.8,1.8,0,0,0-.6-1.9l-6.3-4.8a1.8,1.8,0,0,0-2.9,1.6,2.9,2.9,0,0,0-1.7.9c0-1.3,0-2.6,0-3.8v-.4c0-1.7.1-2,.8-2.3a4.8,4.8,0,0,0,2.3-2.6h.4a1.8,1.8,0,0,0,1.6-1l.9-2a7.5,7.5,0,0,0,3.2,3.7l2.1,1.1c1.6.8,2.7,1.3,3.4,2.8a1.8,1.8,0,0,0,1.6,1h0a1.8,1.8,0,0,0,1.6-1c1.1-2.2-.1-4.7-1.1-6.9l-.7-1.5a5.6,5.6,0,0,1-.5-1.7h0a1.8,1.8,0,0,0-1-1.6l-1.4-1.3c-1.5-1.4-1.7-1.7-2.2-1.8h0v-.2a1.8,1.8,0,0,0-1.1-2,3.2,3.2,0,0,1,.6-1.3,1.8,1.8,0,0,0,.8-2.2,12,12,0,0,1-.6-3.4,16.5,16.5,0,0,0-.6-3.6A3.3,3.3,0,0,0,102.1,8h-.2A11.1,11.1,0,0,0,103.1,6c1.2-3.2-.7-4.5-2.4-5.7a1.8,1.8,0,0,0-1-.3h0Zm.4,26.2h.3l.2,1-.5-1Z"/><path class="cls-1" d="M46.4,21l.9.2c-.1.3-.1.8-.3,1a2.7,2.7,0,0,1-1.4.5c-2.6,0-4.5,1.6-6.2,3.2s-.7,2-1,3.1c-2-.1-1.1-2.1-2-3.1,1.8-1.4,3.4-2.8,5.1-4a6.8,6.8,0,0,1,2.5-.7l2.5-.3h0m0-1.8h-.2l-2.7.3H43a6.3,6.3,0,0,0-2.6.9c-1.3.9-2.5,1.9-3.8,2.9l-1.5,1.2a1.8,1.8,0,0,0-.2,2.6v.5a3.3,3.3,0,0,0,3.2,3.2h0A1.8,1.8,0,0,0,40,29.6a12.5,12.5,0,0,0,.3-1.3,5.6,5.6,0,0,1,.3-1.1c1.8-1.7,3.2-2.6,4.9-2.7a4.4,4.4,0,0,0,2.4-.9,2.7,2.7,0,0,0,1-1.8v-.2a1.8,1.8,0,0,0-1.2-2.3h-.2a3.4,3.4,0,0,0-1.2-.3Z"/><path class="cls-1" d="M2.9,29a1.2,1.2,0,0,1,1.4,1.3c0,.4-.3.8-.5,1.3l-2-2,.5-.5h.6m0-1.8H2a1.8,1.8,0,0,0-1.1.6l-.5.5a1.8,1.8,0,0,0,0,2.5l2,2a1.8,1.8,0,0,0,1.3.5h.3a1.8,1.8,0,0,0,1.3-1.1v-.2a3.3,3.3,0,0,0,.5-1.9,3,3,0,0,0-3.2-3Z"/></g></g></svg>