<svg xmlns="http://www.w3.org/2000/svg" viewBox="0 0 56.5 85.5"><defs><style>.cls-1{fill:#fff;}</style></defs><title>mic</title><g id="Слой_2" data-name="Слой 2"><g id="Слой_2-2" data-name="Слой 2"><path class="cls-1" d="M36.7,12.8c1.3,0,2.4.3,2.5,1.8s-.9,2-2.3,2H36l1,1.4L50.1,35.4c.2.3.5.5.5.8a18.9,18.9,0,0,1-.1,2.2c-.7-.2-1.7-.2-2.1-.7s-2.5-3.2-4-5.1c-.1.8-.2,1.3-.2,1.7,0,12.7,0,25.3.1,38a3.6,3.6,0,0,0,1.2,2.5c2.7,2.1,5.5,4,8.3,6a2.5,2.5,0,0,1,.8,1.7,1.6,1.6,0,0,1-1,1.2h-.4a2.6,2.6,0,0,1-1.5-.4c-2.6-2-5.1-4.1-7.7-6a2.2,2.2,0,0,0-1.2-.3,1.8,1.8,0,0,0-1,.2c-2.6,1.9-5.1,4.1-7.7,6a2.8,2.8,0,0,1-1.6.5h-.3a1.8,1.8,0,0,1-1-1.4,2.4,2.4,0,0,1,.9-1.7l8.6-6.2a2.2,2.2,0,0,0,.8-1.6c0-8.8,0-17.6,0-25.7a33.9,33.9,0,0,1-4.1-3.6c-3.5-4.4-6.9-9-10.6-13.9-.1,1.1-.1,1.6-.1,2.2q0,22.1,0,44.3c0,2.5-1.2,3.9-3.4,3.9h0a3.3,3.3,0,0,1-3.5-3.3c0-6.8,0-13.7,0-20.5,0-2.4,0-4.9,0-7.4H16.6c0,2.3,0,4.7,0,7,0,6.8.1,13.7.1,20.5,0,2.3-1.4,3.7-3.4,3.7L12.1,80a3,3,0,0,1-2.3-3c0-7.4,0-14.8,0-22.2s0-16.4,0-24.8h-2a7.4,7.4,0,0,0-.2,1.2c0,5.2,0,10.4,0,15.6,0,2.4-1,3.6-2.8,3.6H4.6c-1.7,0-2.8-1.4-2.8-3.7,0-5.8,0-11.7.1-17.5a15.1,15.1,0,0,1,.5-3.7c.9-3.3,2.8-4.9,6.2-4.9h7.8l6.8.2A8.7,8.7,0,0,1,28.3,23a81.5,81.5,0,0,1,6.6,8c2.1,2.7,4.2,5.5,6.7,8.2a44.7,44.7,0,0,1,0-5.3,11,11,0,0,0-3.1-9.3,62.7,62.7,0,0,1-5-6.5,2.7,2.7,0,0,0-2.3-1.4h-.9c-1.1,0-2-.5-2.1-1.8s1.1-2,2.5-2h6.1m0-1.8H30.6a4.5,4.5,0,0,0-3.4,1.2,3.6,3.6,0,0,0-1,2.7,3.6,3.6,0,0,0,3.9,3.6h.9c.2,0,.4,0,.8.6l.5.7a57.1,57.1,0,0,0,4.7,6,9.3,9.3,0,0,1,2.7,7.9v.6l-2.1-2.7-1.3-1.7L35,28.1a61.1,61.1,0,0,0-5.4-6.4,10.5,10.5,0,0,0-6.2-2.9l-6.9-.2H8.6C4.4,18.8,1.8,20.8.7,25a17,17,0,0,0-.6,4.2C0,35.2,0,41.1,0,46.7c0,3.2,1.8,5.4,4.6,5.4h.2A4.4,4.4,0,0,0,8,50.8q0,2,0,4,0,5.1,0,10.1T8,77a4.7,4.7,0,0,0,3.6,4.7l1.8.3a5,5,0,0,0,4.8-3.5,5.1,5.1,0,0,0,5.1,3.5h.1c3.2,0,5.2-2.2,5.2-5.7q0-12.8,0-25.6V34.9c2.6,3.4,5,6.6,7.6,9.8a17.2,17.2,0,0,0,2.8,2.6l.9.7v3.5c0,6.9,0,14.1,0,21.3v.2l-4.3,3.1-4.3,3.1a4.3,4.3,0,0,0-1.7,3.1,3.5,3.5,0,0,0,2.4,3.1h.8a4.6,4.6,0,0,0,2.6-.9L38.6,82l4.2-3.3h.3L47.2,82l3.5,2.8a4.3,4.3,0,0,0,2.6.8h.8a3.3,3.3,0,0,0,2.4-3.1,4.2,4.2,0,0,0-1.6-3.1l-3.6-2.6-4.6-3.4a1.9,1.9,0,0,1-.5-1.1c-.1-11.1-.1-22.4-.1-33.3V37.7l1,1.2A3.9,3.9,0,0,0,49.5,40h1a1.8,1.8,0,0,0,1.8-1.7v-.6a12.8,12.8,0,0,0,.1-1.8,2.6,2.6,0,0,0-.8-1.7h-.1l-4.8-6.3L39.1,18l1-.7a3.6,3.6,0,0,0,.9-2.8c-.1-1.1-.6-3.5-4.3-3.5Z"/><path class="cls-1" d="M17.6,1.8a8.5,8.5,0,0,1,8.6,8.3,8.5,8.5,0,0,1-8.5,8.4h-.1a8.4,8.4,0,0,1-8.5-8.3,8.4,8.4,0,0,1,8.4-8.4h.1m0-1.8h-.1a10.3,10.3,0,0,0-7.2,3,10,10,0,0,0-3,7.2,10.2,10.2,0,0,0,10.3,10h.1a10.5,10.5,0,0,0,7.4-3.1A9.9,9.9,0,0,0,28,10.1,10.3,10.3,0,0,0,17.6,0Z"/></g></g></svg>