<svg xmlns="http://www.w3.org/2000/svg" viewBox="0 0 79.8 77.3"><defs><style>.cls-1{fill:#00b3be;}</style></defs><title>people-blue</title><g id="Слой_2" data-name="Слой 2"><g id="Слой_2-2" data-name="Слой 2"><path class="cls-1" d="M53.9,6.5A3.1,3.1,0,0,1,57,9.1a10.1,10.1,0,0,1-1.2,6.2A22.5,22.5,0,0,1,49.5,23c-.5.4-1.3.8-1.5,1.5a5.9,5.9,0,0,0-.1,2c0,3.4.3,6.8.4,10.2a177.8,177.8,0,0,0,1.1,20.1q.6,7,1.2,14.1a7.3,7.3,0,0,1-.1,2.4,3.3,3.3,0,0,1-3.3,2.4h-.3a3.5,3.5,0,0,1-3.2-3.2c-.4-4.8-.8-9.5-1.2-14.3s-.6-7-.9-10.5H38.9c-.1,1.5-.3,3.1-.4,4.7-.5,6.7-1.1,13.3-1.6,20a3.5,3.5,0,0,1-3.5,3.3h-.2A3.3,3.3,0,0,1,29.9,72c.2-3.3.5-6.6.7-10s.7-8.1,1.1-12.1c.8-7.9.3-15.9.4-23.8-.1-.7,0-2.1-.9-2.4l-1-.7A22.5,22.5,0,0,1,24,15.3a10.1,10.1,0,0,1-1.2-6.2A3.1,3.1,0,0,1,26,6.5h.4a3,3,0,0,1,2.8,3.2,4.8,4.8,0,0,0,.2,1.7,9.6,9.6,0,0,0,.9,2.1,17.2,17.2,0,0,0,4.7,5.2l3.4-.2h.9a2.1,2.1,0,0,1,.4,1.6c-.2,2.7-.6,5.4-1,8s-.5,3.8-.8,5.6a1.4,1.4,0,0,0,.2.8l2.1,3.5a24.3,24.3,0,0,0,2.2-3.8c.3-.8-.1-1.8-.2-2.7-.5-3.8-1-7.6-1.5-11.4a2.3,2.3,0,0,1,.3-1.6h.4l3.4.2a17.2,17.2,0,0,0,4.7-5.2,9.8,9.8,0,0,0,.9-2.1,4.9,4.9,0,0,0,.2-1.7,3,3,0,0,1,2.8-3.2h.4m0-1.7h-.6a4.7,4.7,0,0,0-4.3,5,3.2,3.2,0,0,1-.1,1.1,8,8,0,0,1-.8,1.7,15.8,15.8,0,0,1-3.8,4.4l-2.6-.2H38.3l-2.7.2a16.1,16.1,0,0,1-3.8-4.4A8,8,0,0,1,31,11a3.2,3.2,0,0,1-.1-1.1,4.7,4.7,0,0,0-4.3-5H26a4.7,4.7,0,0,0-4.8,4A11.7,11.7,0,0,0,22.5,16a24.3,24.3,0,0,0,6.7,8.2h.2l.8.6c0,.2.1.5.1.6v.5c0,2.5,0,5,0,7.5a153.8,153.8,0,0,1-.4,16c-.3,3.5-.6,7.2-.9,10.6v2.9c-.2,2.8-.5,5.7-.6,8.6a5.1,5.1,0,0,0,1.3,3.8A5.1,5.1,0,0,0,33,77.3h.3a5.2,5.2,0,0,0,5.2-4.9l.8-9.6.8-10.4v-1l.6,6.8.4,4.8c.3,3.1.5,6.4.8,9.6a5.1,5.1,0,0,0,4.7,4.7h.5a5,5,0,0,0,4.9-3.6,8.9,8.9,0,0,0,.2-3c-.4-5.5-.8-10-1.2-14.1V55A161.9,161.9,0,0,1,50,36.6s0-.1,0-.1-.1-2.4-.2-3.6-.2-4.4-.2-6.6c0-.2,0-.4,0-.7a3.8,3.8,0,0,1,0-.7l.5-.4.5-.3A24.3,24.3,0,0,0,57.3,16a11.7,11.7,0,0,0,1.4-7.2,4.7,4.7,0,0,0-4.8-4Z"/><path class="cls-1" d="M39.9,1.7A7,7,0,0,1,47,8.6a7.1,7.1,0,0,1-14.2,0,7,7,0,0,1,7.1-6.9m0-1.7a8.7,8.7,0,0,0-8.8,8.6,8.8,8.8,0,0,0,17.5,0A8.7,8.7,0,0,0,39.9,0Z"/><path class="cls-1" d="M65,23h.2a21.3,21.3,0,0,1,3.5.4c1.8.3,3.6.9,5.5,1.3a2.8,2.8,0,0,1,2.2,2.7q.8,7.6,1.7,15.1a2.4,2.4,0,0,1-2,2.9h-.3a2.4,2.4,0,0,1-2.3-2.3c-.5-4.6-1-9.1-1.6-13.7a3,3,0,0,0-.4-.8h-.3v1.2c0,4-.1,8.1,0,12.1s.5,7.4.7,11.2.7,8.4,1,12.7c.1,1.9-.9,3.1-2.4,3.2h-.3a2.8,2.8,0,0,1-2.9-2.8c-.4-4-.6-7.9-1-11.9s-.4-5.1-.7-7.6H64.2c-.2,2.5-.4,5.1-.7,7.6s-.6,7.9-1,11.9A2.8,2.8,0,0,1,59.7,69h-.3c-1.6-.1-2.5-1.3-2.4-3.2.3-4.2.7-8.4,1-12.7s.6-7.4.7-11.2,0-8,0-12.1V28.7h-.3a3.1,3.1,0,0,0-.4.8c-.5,4.6-1.1,9.1-1.6,13.7a2.4,2.4,0,0,1-2.3,2.3h-.3a2.4,2.4,0,0,1-2-2.9q.9-7.6,1.7-15.1a2.8,2.8,0,0,1,2.2-2.7c1.8-.5,3.6-1,5.5-1.3a21.4,21.4,0,0,1,3.5-.4H65m0-1.7h-.3a23.1,23.1,0,0,0-3.8.4l-4.4,1.1-1.2.3a4.4,4.4,0,0,0-3.4,4.2c-.5,4.9-1.1,9.8-1.7,15.1a4.1,4.1,0,0,0,3.5,4.8h.5a3.8,3.8,0,0,0,2.6-1.1c-.1,1.5-.2,3-.3,4.5L56.4,53l-.4,5.1c-.2,2.5-.4,5-.6,7.6s1.4,4.8,4,5h.4a4.4,4.4,0,0,0,4.5-4.4c.2-2.5.4-5.1.6-7.6v0c.2,2.5.4,5.1.6,7.6a4.4,4.4,0,0,0,4.5,4.4h.4c2.5-.2,4.1-2.3,3.9-5s-.4-5.1-.6-7.6-.3-3.4-.4-5.1l-.2-2.4c-.1-1.5-.2-3-.3-4.5a3.8,3.8,0,0,0,2.7,1.1h.5a4.1,4.1,0,0,0,3.5-4.8c-.6-5.3-1.2-10.3-1.7-15.1a4.4,4.4,0,0,0-3.4-4.2l-1.2-.3-4.4-1.1a22.9,22.9,0,0,0-3.7-.4Z"/><path class="cls-1" d="M65,8.6a6.3,6.3,0,0,1,6.4,6.2,6.4,6.4,0,0,1-12.8,0A6.3,6.3,0,0,1,65,8.6M65,7a8,8,0,0,0-8.1,7.9,8.1,8.1,0,0,0,16.2,0A8,8,0,0,0,65,7Z"/><path class="cls-1" d="M14.8,23H15a21.3,21.3,0,0,1,3.5.4c1.8.3,3.6.9,5.5,1.3a2.8,2.8,0,0,1,2.2,2.7Q27,35,27.9,42.6a2.4,2.4,0,0,1-2,2.9h-.3a2.4,2.4,0,0,1-2.3-2.3c-.5-4.6-1-9.1-1.6-13.7a3.1,3.1,0,0,0-.4-.8H21v1.2c0,4-.1,8.1,0,12.1s.5,7.4.7,11.2.7,8.4,1,12.7c.1,1.9-.9,3.1-2.4,3.2h-.3a2.8,2.8,0,0,1-2.9-2.8c-.4-4-.6-7.9-1-11.9s-.4-5.1-.7-7.6H14c-.2,2.5-.4,5.1-.7,7.6s-.6,7.9-1,11.9A2.8,2.8,0,0,1,9.5,69H9.2c-1.6-.1-2.5-1.3-2.4-3.2.3-4.2.7-8.4,1-12.7s.6-7.4.7-11.2,0-8,0-12.1V28.7H8.3a3,3,0,0,0-.4.8C7.4,34,6.9,38.6,6.3,43.2A2.4,2.4,0,0,1,4,45.5H3.7a2.4,2.4,0,0,1-2-2.9Q2.6,35,3.4,27.4a2.8,2.8,0,0,1,2.2-2.7c1.8-.5,3.6-1,5.5-1.3a21.4,21.4,0,0,1,3.5-.4h.2m0-1.7h-.3a23.1,23.1,0,0,0-3.8.4L6.4,22.8l-1.2.3a4.4,4.4,0,0,0-3.4,4.2C1.2,32.1.7,37.1,0,42.4a4.1,4.1,0,0,0,3.5,4.8H4a3.8,3.8,0,0,0,2.7-1.1c-.1,1.5-.2,3-.3,4.5L6.2,53l-.4,5.1c-.2,2.5-.4,5-.6,7.6s1.4,4.8,4,5h.4a4.4,4.4,0,0,0,4.5-4.4c.2-2.5.4-5.1.6-7.6v0c.2,2.5.4,5.1.6,7.6a4.4,4.4,0,0,0,4.5,4.4h.4c2.5-.2,4.1-2.3,3.9-5s-.4-5.1-.6-7.6-.3-3.4-.4-5.1l-.2-2.4c-.1-1.5-.2-3-.3-4.5a3.8,3.8,0,0,0,2.6,1.1h.5a4.1,4.1,0,0,0,3.5-4.8c-.6-5.3-1.2-10.3-1.7-15.1a4.4,4.4,0,0,0-3.4-4.2l-1.2-.3-4.4-1.1a22.9,22.9,0,0,0-3.7-.4Z"/><path class="cls-1" d="M14.8,8.6a6.3,6.3,0,0,1,6.4,6.2,6.3,6.3,0,0,1-6.4,6.2,6.3,6.3,0,0,1-6.4-6.2,6.3,6.3,0,0,1,6.4-6.2m0-1.7a8,8,0,0,0-8.1,7.9,8,8,0,0,0,8.1,7.9,8,8,0,0,0,8.1-7.9A8,8,0,0,0,14.8,7Z"/></g></g></svg>