<svg xmlns="http://www.w3.org/2000/svg" viewBox="0 0 445.2 445.1"><defs><style>.cls-1{fill:#fff;fill-rule:evenodd;}</style></defs><title>vk</title><g id="Слой_2" data-name="Слой 2"><g id="Слой_1-2" data-name="Слой 1"><path class="cls-1" d="M200.1,196.9c10-.2,20,.2,29.9-1s18.9-7,21.7-18.4-1.5-30.5-20.4-31.8c-10.3-.7-20.6-1-30.8-1.5-3.8-.2-4.9,1.8-4.9,5.2.1,7,0,14,0,21s.1,14.3,0,21.5C195.4,195.2,196.7,197,200.1,196.9Z"/><path class="cls-1" d="M244.7,240.2c-14.7-1.3-29.5-1.4-44.3-2-3.7-.2-5,1.5-5,5.1.1,8.7,0,17.3,0,26h0c0,8.7.1,17.3,0,26,0,3.6,1.3,5.1,5,5.1,11.3-.2,22.7.7,34-.5a56.2,56.2,0,0,0,22.1-7c10.1-6,11.7-16.5,11.1-27.6C266.8,252,258,241.3,244.7,240.2Z"/><path class="cls-1" d="M222.4,0C99.4.6.1,99.9,0,222.6S100.5,445.7,222.8,445.1s222.3-99.8,222.4-222.5S344.5-.6,222.4,0Zm88.5,320.1a83.1,83.1,0,0,1-55.3,23.6c-26.9,1.2-53.9,1-80.9,1.3-11.2.1-22.3,0-33.5,0-6.6,0-6.6,0-6.6-6.7q-.1-109.7-.1-219.4c0-4.5.1-9,0-13.5s1.4-5.5,5.3-5.4c37.8.4,75.6.5,113.4,1.3,16.1.3,31,5.1,44,15.4a44,44,0,0,1,16.4,28.3c3.3,21-1.3,40.1-17.8,55-2.8,2.5-6.3,4.3-9.5,6.4l-5.8,4.1c6,2.1,10.8,3.6,15.4,5.5,21.2,9,33,24.9,34.5,48.2C331.8,285.6,326.7,304.8,310.8,320.1Z"/></g></g></svg>