<svg xmlns="http://www.w3.org/2000/svg" viewBox="0 0 74.6 60"><defs><style>.cls-1{fill:none;stroke:#00b3be;stroke-linejoin:round;stroke-width:1.8px;}.cls-2{fill:#00b3be;}</style></defs><title>bag-blue</title><g id="Слой_2" data-name="Слой 2"><g id="Слой_2-2" data-name="Слой 2"><path class="cls-1" d="M18.8,10.5V58.8h37V10.6Z"/><path class="cls-1" d="M73.7,48q0-15.8,0-31.6a5.5,5.5,0,0,0-5.2-5.8c-2.1-.1-4.3,0-6.5,0V59.1h6.8l1-.3A5.8,5.8,0,0,0,73.7,53c0-1.7,0-3.3,0-5"/><path class="cls-1" d="M6.6,10.5a6.5,6.5,0,0,0-2.5.6A5.5,5.5,0,0,0,.9,16.5c0,12.2,0,24.4,0,36.6A9.8,9.8,0,0,0,1.1,55a5.8,5.8,0,0,0,4.7,4h6.6V10.5H6.6"/><path class="cls-2" d="M27.3,8.3V3.5h20V8.3h4c0-1.5-.1-2.9,0-4.4S50-.1,47.2,0H27.3c-2.4,0-3.8,1.3-3.9,2.8s0,3.7,0,5.6Z"/></g></g></svg>