<svg xmlns="http://www.w3.org/2000/svg" viewBox="0 0 73.3 73.3"><defs><style>.cls-1{fill:#00b3be;fill-rule:evenodd;}</style></defs><title>globe</title><g id="Слой_2" data-name="Слой 2"><g id="Слой_2-2" data-name="Слой 2"><path class="cls-1" d="M71.5,25.1a35.3,35.3,0,0,0-5.7-10.8l-1.3-1.7-.6-.7L61.4,9.5l-.8-.6L58.9,7.5A34.8,34.8,0,0,0,51.1,3,37,37,0,0,0,42.9.5,36,36,0,0,0,36.8,0a36.8,36.8,0,0,0-9.1,1.2,36.3,36.3,0,0,0-11,4.9A37.4,37.4,0,0,0,6.6,15.8a36.4,36.4,0,0,0-4.1,34A36.9,36.9,0,0,0,9.2,60.9l.2.3h.1l2.5,2.5.7.5,1.6,1.3a35,35,0,0,0,7.9,4.7A37.2,37.2,0,0,0,30,72.7a35.7,35.7,0,0,0,12.1.2,36.3,36.3,0,0,0,14.5-5.6A37.1,37.1,0,0,0,69.4,52.9a36.5,36.5,0,0,0,2-27.8Zm-10.1-12a.8.8,0,0,1,.6-.3.8.8,0,0,1,.6.3,34.6,34.6,0,0,1,8.8,20,.8.8,0,0,1,0,.2h0v.2h-.2a37.2,37.2,0,0,0-10.8,1.4h-.2l-.7-1.4-1.6-2.9a41.8,41.8,0,0,0-5.5-7.4c-.4-.4-.5-.7,0-1.2ZM30.3,31.8l4.5,4.5a.7.7,0,0,1,.3.5.8.8,0,0,1-.3.5L23.3,48.7a.8.8,0,0,1-.5.3.8.8,0,0,1-.5-.3,42.2,42.2,0,0,1-6.7-9.7l-.4-.9-.3-.6h.2a36.5,36.5,0,0,0,12.8-7.8H28l.2.2.2.2ZM29.6,28h.1A36.5,36.5,0,0,0,37.5,15v-.2h.2l1.2.7L41.6,17a43.5,43.5,0,0,1,7,5.1.9.9,0,0,1,.4.6.9.9,0,0,1-.3.6L37.4,34.7a.9.9,0,0,1-.6.3.9.9,0,0,1-.6-.3l-4.3-4.3-1.8-1.8-.3-.3ZM24.8,49.8,36.5,38.1l7.2,7.2h-.1a36.7,36.7,0,0,0-7.8,12.9v.2h-.2l-1.5-.8a31.5,31.5,0,0,1-3.1-1.8l-4.8-3.6-1.3-1c-.4-.3-.6-.5-.6-.7S24.4,50.1,24.8,49.8ZM38.1,36.5l.3-.3.3-.3L49.8,24.7c.3-.3.5-.5.7-.5s.3.2.6.5a43.9,43.9,0,0,1,5.4,7.4l1.2,2.3.5,1v.2h-.2L56,36.7c-1.6.8-3.2,1.5-4.6,2.4s-2.8,1.9-4.3,3l-1.9,1.4h-.1ZM38.2,13A37.1,37.1,0,0,0,39.6,2.1V1.9h.2A30.6,30.6,0,0,1,46,3a35,35,0,0,1,14.5,8.2h.1l-.3.3-.3.3-2.4,2.4-6.6,6.6a.9.9,0,0,1-.6.4h0a1,1,0,0,1-.6-.3,43.5,43.5,0,0,0-11-7.4l-.4-.2-.3-.2ZM14.5,10C15.8,8.4,21,5.2,25.3,3.8a35,35,0,0,1,11.3-2h1.2V2a34.4,34.4,0,0,1-1.3,10.3v.2h-.2A40.7,40.7,0,0,0,21.7,9.7a39.5,39.5,0,0,0-7.1.6h-.4Zm-.3,2.2a37.6,37.6,0,0,1,7.6-.8,38.9,38.9,0,0,1,14,2.7h.2v.2a34.5,34.5,0,0,1-7.4,12.3h-.1L13.9,12.3Zm-2,1.9v-.3L26.7,28.3h-.1a34.3,34.3,0,0,1-12.3,7.4h-.2v-.2A37.4,37.4,0,0,1,12.2,14.2ZM1.8,37.6A32.9,32.9,0,0,1,4.2,24.2C6,19.9,8.5,15.7,10,14.5l.4-.3v.4a39.3,39.3,0,0,0,2.1,21.6v.2h-.2a34.2,34.2,0,0,1-9.4,1.3H1.8Zm10,22.6-.3.2h-.4A34.6,34.6,0,0,1,1.9,39.8v-.2H5.4a33.1,33.1,0,0,0,7-1.2.8.8,0,0,1,1.1.5A43.1,43.1,0,0,0,21.1,50a.6.6,0,0,1,0,1l-6.5,6.5Zm23.2.6-.2.7c-.3,1.5-.7,3-.9,4.6a28.5,28.5,0,0,0-.2,2.9c0,.4,0,.9-.1,1.3v1H32.6L30.8,71a35.5,35.5,0,0,1-9-2.8,36.1,36.1,0,0,1-8.6-5.8.7.7,0,0,1-.3-.5.7.7,0,0,1,.2-.5l9.3-9.3.5-.2a.8.8,0,0,1,.5.3,43.3,43.3,0,0,0,9.2,6.6h.1l1.9,1A.8.8,0,0,1,35,60.8Zm23.7,2.6A34.9,34.9,0,0,1,36,71.5h-.5v-.2A34.4,34.4,0,0,1,36.8,61v-.2h.2a41.3,41.3,0,0,0,14.7,2.8,40.6,40.6,0,0,0,6.8-.6h.6Zm.3-2.4c-1.4.8-4,.9-6.1.9h0c-4.8,0-11.7-1-15.5-2.8h-.1a34.2,34.2,0,0,1,7.4-12.2H45L59.3,60.9Zm2-1.8v.3L46.6,45.1h.1c1.9-2.4,9.4-6.9,12.3-7.4h.2A37.4,37.4,0,0,1,61.1,59.2Zm8-9.9a32.4,32.4,0,0,1-5.7,9.6l-.4.5v-.6a40.4,40.4,0,0,0-2.2-21.6v-.2H61a34,34,0,0,1,10.3-1.3h.2v.2A34.7,34.7,0,0,1,69.1,49.2Z"/></g></g></svg>