<svg xmlns="http://www.w3.org/2000/svg" viewBox="0 0 52.3 64.6"><defs><style>.cls-1{fill:#00b3be;fill-rule:evenodd;}</style></defs><title>list</title><g id="Слой_2" data-name="Слой 2"><g id="Слой_2-2" data-name="Слой 2"><path class="cls-1" d="M8.9,25.7H40.1a.7.7,0,0,0,0-1.5H8.9a.8.8,0,0,0,0,1.5Z"/><path class="cls-1" d="M8.9,32.8H35.4a.8.8,0,0,0,0-1.5H8.9a.8.8,0,0,0,0,1.5Z"/><path class="cls-1" d="M30.6,38.9a.8.8,0,0,0-.7-.7H8.9a.8.8,0,0,0,0,1.5H29.8A.8.8,0,0,0,30.6,38.9Z"/><path class="cls-1" d="M8.9,44.9a.8.8,0,0,0,0,1.5H24.5a.8.8,0,0,0,0-1.5Z"/><path class="cls-1" d="M28.6,59.4l.9-.5a27.2,27.2,0,0,0,2-2.1,67.7,67.7,0,0,0,6-8.6q3-5,5.9-10.2l8.5-15.3a7.2,7.2,0,0,0,.4-1.1,2.1,2.1,0,0,0-1.1-2l-2-1.1H49V6.4A6.4,6.4,0,0,0,42.6,0H17.5a4.5,4.5,0,0,0-2.4,1.1L1.3,14.6A4.3,4.3,0,0,0,.2,16.5a.9.9,0,0,0-.2.6V58.3a6.4,6.4,0,0,0,6.4,6.4H42.7A6.4,6.4,0,0,0,49,58.3V51.6a.9.9,0,0,0-1.8,0v6.6a4.6,4.6,0,0,1-4.6,4.6H6.4a4.6,4.6,0,0,1-4.6-4.6V17.7h12a4.2,4.2,0,0,0,3.9-2.9V1.8H42.6a4.6,4.6,0,0,1,4.6,4.6V18.7a2.9,2.9,0,0,0-.7.9L37.5,35.9a153.2,153.2,0,0,0-7.2,14.6A36.8,36.8,0,0,0,28,57.2a7,7,0,0,0-.1,1.7C27.9,59.4,28.2,59.6,28.6,59.4Z"/></g></g></svg>