<svg xmlns="http://www.w3.org/2000/svg" viewBox="0 0 59.5 102.1"><defs><style>.cls-1{fill:#fff;}</style></defs><title>selebrate</title><g id="Слой_2" data-name="Слой 2"><g id="Слой_2-2" data-name="Слой 2"><path class="cls-1" d="M40.7,1.8a10.7,10.7,0,0,1,8.7,4.7c4,5.5,2.8,13.9-2.5,18a9.9,9.9,0,0,1-6.3,2.2H39L34,52.6h.2l12-14.2a6,6,0,0,1-1.5-7.3,7.9,7.9,0,0,1,6.6-5H52a5.7,5.7,0,0,1,5.6,4.4c.9,4.4-2.9,9.2-7.7,9.7h-.3l-1.8-.2h0a1.5,1.5,0,0,0-1,.3L34.1,55.6a1.2,1.2,0,0,0-.2.9,3.1,3.1,0,0,1-.6,2.8c-2.7,3.6-5.4,7.2-8.3,10.6a2.5,2.5,0,0,0-.5,3l7.2,22.9c.7,2.1-.4,3.4-2.8,3.5h-.2a2.2,2.2,0,0,1-2.3-1.7L22.4,84.6c-2.1.4-2.1.4-2.1,2.2.1,3.5.1,7.1.3,10.6a2.5,2.5,0,0,1-1.7,2.8H16.8c-1.5-.5-1.8-1.5-1.9-2.9-.1-4-.4-8-.3-12s-.9-5-1.7-7.7l-.7.8L8.6,83.4a4,4,0,0,1-3.2,1.7,4,4,0,0,1-2.2-.7c-1.7-1.1-2-3.2-.6-5l7.9-10.2a6.3,6.3,0,0,1,3.3-2.2l4.9-1.4a3,3,0,0,0,1.4-.9L27,55.7a4.6,4.6,0,0,1,3.4-2.1l-2.7-8.5-2.6-8.4H22.5a9.5,9.5,0,0,1-8.4-7.5A9.3,9.3,0,0,1,15.9,21a7.7,7.7,0,0,1,6-2.9,8.4,8.4,0,0,1,3.6.8c5.5,2.6,7.4,10.3,3.7,14.9a2.9,2.9,0,0,1-.8.9c-1.6.8-1.3,1.8-.9,3.1,1.5,4.4,2.8,8.9,4.2,13.3l.4,1.1,1.3-6.5L37,27.1c.1-.4.3-.8-.3-1a11.4,11.4,0,0,1-7.2-9.3A13.1,13.1,0,0,1,32.1,6.2a10.8,10.8,0,0,1,8.5-4.4m0-1.8V0a12.6,12.6,0,0,0-9.9,5.1,14.9,14.9,0,0,0-3,12l.3,1.3-1.7-1a10.1,10.1,0,0,0-4.4-1,9.5,9.5,0,0,0-7.4,3.5,11.1,11.1,0,0,0-2.1,9.7,11.4,11.4,0,0,0,10,8.9h1.5l.4,1.3L26,45.6l2.1,6.7a7,7,0,0,0-2.6,2.3l-6.8,9-.5.3-4.8,1.4a8,8,0,0,0-4.3,2.8L2.9,76.2,1.3,78.4A5.5,5.5,0,0,0,.1,82.7,4.9,4.9,0,0,0,2.3,86a5.8,5.8,0,0,0,3.2,1,5.8,5.8,0,0,0,4.6-2.4l2.2-2.9a13.9,13.9,0,0,1,.6,3.8c0,2.4.1,4.8.2,7.1s.1,3.3.2,4.9a4.4,4.4,0,0,0,3.1,4.5h3.3a4.3,4.3,0,0,0,2.9-4.6c-.1-2.5-.2-5-.2-7.4l2.5,8.1a4,4,0,0,0,4.1,3H29a4.7,4.7,0,0,0,4-1.8,4.4,4.4,0,0,0,.4-4l-2.6-8.3L26.2,72.3c-.3-.8-.3-.8.1-1.2,2.3-2.6,4.3-5.4,6.4-8l2-2.7a4.9,4.9,0,0,0,1-3.9L47.9,41.9h2.2a10.6,10.6,0,0,0,7.4-4.4,9.5,9.5,0,0,0,1.8-7.5A7.5,7.5,0,0,0,52,24.4H51l-1.8.4A15.5,15.5,0,0,0,50.8,5.4,12.5,12.5,0,0,0,40.7,0ZM29,36.5h.2a3.8,3.8,0,0,0,1.3-1.2h.1a11.1,11.1,0,0,0,2.1-9.2,14.1,14.1,0,0,0,2.4,1.5L34.2,32,31.7,45.1c-.8-2.6-1.6-5.2-2.5-7.8l-.2-.8Zm11.6-8a11.5,11.5,0,0,0,4.1-.7A10.6,10.6,0,0,0,43,30.6a7.7,7.7,0,0,0,.8,8l-4.6,5.5L37,46.6l3.5-18.1Z"/><path class="cls-1" d="M12.2,51.4h0a7,7,0,0,1,7.1,6.7c0,3.6-3.3,6.6-7.1,6.6h-.1A7,7,0,0,1,5,58.1a7,7,0,0,1,7.2-6.6m0-1.8a8.8,8.8,0,0,0-9,8.4c0,4.6,4,8.5,9,8.5h.1c4.8,0,8.9-3.8,8.9-8.4a8.2,8.2,0,0,0-2.4-5.8,9.3,9.3,0,0,0-6.5-2.7Z"/></g></g></svg>